<?xml version="1.0" standalone="no"?>
<!DOCTYPE svg PUBLIC "-//W3C//DTD SVG 1.1//EN" "http://www.w3.org/Graphics/SVG/1.1/DTD/svg11.dtd" >
<svg xmlns="http://www.w3.org/2000/svg" xmlns:xlink="http://www.w3.org/1999/xlink" version="1.1">
<metadata></metadata>
<defs>
<font id="comicneuesansidmedium" horiz-adv-x="1370" >
<font-face units-per-em="2048" ascent="1638" descent="-410" />
<missing-glyph horiz-adv-x="614" />
<glyph horiz-adv-x="0" />
<glyph unicode="&#xd;" horiz-adv-x="681" />
<glyph unicode=" "  horiz-adv-x="614" />
<glyph unicode="&#x09;" horiz-adv-x="614" />
<glyph unicode="&#xa0;" horiz-adv-x="614" />
<glyph unicode="!" horiz-adv-x="526" d="M135 -16q0 29 1 69.5t2 75.5t1 37q0 43 31 71.5t74 28.5t71.5 -30.5t28.5 -73.5v-10q0 -8 -1 -23t-1 -27q31 -35 25 -79q-8 -53 -15 -82q-4 -18 -6 -29q-4 -10 -8 -18q-10 -23 -29 -39q-27 -20 -61 -23q-41 -2 -72 23q-23 20 -31 49q-6 14 -8 33q-2 16 -2 47zM147 442 q-6 170 1.5 349.5t27 428t25.5 336.5q2 43 33.5 71t74.5 26t71 -34t26 -75q-6 -100 -26 -344t-27 -415t-1 -334q2 -43 -26.5 -74t-71.5 -33t-73.5 26.5t-33.5 71.5zM342 -41v-2v2z" />
<glyph unicode="&#x22;" horiz-adv-x="684" d="M35 1094q4 41 7 84t4 47t2 28.5t1 32.5v53q0 45 2 97q0 43 31 71.5t74 28.5t71.5 -30.5t28.5 -73.5q-2 -49 -2 -97v-57q0 -6 -2 -35t-2 -32t-4 -50t-6 -84q-4 -43 -36 -69.5t-75 -23.5t-69.5 35t-24.5 75zM295 991q63 352 63 520q0 43 30 73t73 30t72.5 -30t29.5 -73 q0 -188 -67 -557q-8 -41 -43 -65.5t-76 -16t-65.5 43t-16.5 75.5z" />
<glyph unicode="#" horiz-adv-x="1269" d="M-10 162q49 164 96 307q-35 4 -59.5 29.5t-28.5 62.5q-2 43 24.5 75t69.5 36l64 4l55 160l-94 -7q-43 -2 -75 26t-35 70t24.5 73.5t68.5 35.5q117 8 187 13l153 415q14 39 53 56.5t79 3t57.5 -53t3.5 -79.5l-123 -328q106 4 203 6l133 358q14 39 53 56.5t79 3t57.5 -53 t2.5 -79.5l-106 -285l119 -4q43 -2 71.5 -34t26.5 -74t-34 -70.5t-73 -26.5q-90 4 -186 4l-55 -157q78 0 155 -5q41 -2 70 -33.5t27 -73.5t-34 -70.5t-75 -26.5q-102 6 -215 6q-76 -229 -137 -434q-12 -41 -49 -61.5t-78 -8.5t-61.5 49t-8.5 78q57 197 117 371 q-92 -5 -207 -13l-119 -379q-12 -41 -49 -61t-78 -8t-61.5 49t-7.5 78zM377 692q111 8 207 10l55 158q-94 -2 -205 -8z" />
<glyph unicode="$" horiz-adv-x="1181" d="M20 1071q-14 141 67 226t204 118q66 16 141 19q-4 82 -10 161q0 27 16.5 46.5t43 20.5t46 -15.5t21.5 -42.5l8 -181q82 -12 141 -45q16 -8 37 -23.5t35 -27.5l29 -24q14 -14 16 -15q33 -27 37 -68.5t-22.5 -75.5t-68.5 -38.5t-77 22.5q-23 18 -37 35l-24 21q-6 8 -19 14 q-16 8 -39 14q4 -166 4 -344q199 -59 285 -106q174 -96 201 -262q20 -113 -18 -216.5t-112.5 -170t-176 -98t-203.5 -11.5q-4 -92 -8 -205q-2 -25 -21.5 -42t-45.5 -16t-43 20.5t-17 45.5q8 133 12 242l-6 2q-55 33 -104.5 76t-92.5 100.5t-67 94.5q-20 31 -62 98 q-23 37 -11.5 78t47.5 63.5t77 11t63 -46.5q98 -164 166 -231q6 213 10 399q-154 47 -235 99q-168 102 -187 278zM225 1092q6 -76 88 -125q49 -29 131 -58q0 166 -6 320q-51 0 -98 -12q-125 -33 -115 -125zM555 213q76 -27 151.5 2t118.5 98.5t29 153.5q-12 68 -98 117 q-62 32 -189 71q-4 -203 -12 -442z" />
<glyph unicode="%" horiz-adv-x="1779" d="M45.5 973q-22.5 119 28.5 226.5t157 152.5q117 39 212.5 10t162.5 -111q63 -78 82 -178t-18 -205q-12 -28 -41 -59q4 -10 6 -23q2 -29 -16.5 -51t-47.5 -24q-70 -6 -98.5 -7.5t-96 2t-120.5 23t-98 53.5q-90 72 -112.5 191zM181.5 1002.5q11.5 -70.5 62.5 -109.5 q72 -57 233 -49q2 10 10 18q8 10 21 23l16 16q12 14 15 21q25 61 13.5 125.5t-54.5 113.5q-41 51 -95.5 67.5t-117.5 -7.5q-57 -23 -86 -85.5t-17.5 -133zM309 -132q-6 26 8 48l492 834q205 365 375 731q12 23 35.5 32t47 -2.5t32.5 -35t-1 -48.5q-172 -371 -378 -737 l-496 -840q-12 -23 -38 -28.5t-48.5 7.5t-28.5 39zM900 304q-9 28 5 54q0 2 19.5 39t25.5 47.5t25.5 45t32.5 51.5l36 45q23 27 43.5 43t48 34.5t56.5 28.5q88 35 175 13.5t156.5 -72.5t107.5 -135t26 -172q-16 -119 -96 -192t-189 -91q-102 -16 -204.5 21.5t-168.5 125.5 q-20 25 -32 66q-16 0 -33 8q-25 12 -34 40zM1071 373q6 -9 10 -17q0 -2 17 -55q6 -20 12 -29q41 -53 107.5 -77.5t134.5 -14.5q66 12 111.5 54t54.5 112q10 66 -32 126t-110.5 87t-134.5 2q-51 -18 -90 -65t-80 -123z" />
<glyph unicode="&#x26;" horiz-adv-x="1323" d="M80 244q-90 182 55 362q59 74 182 170q-63 94 -92 174q-51 154 -10 277t152 184q104 61 231 29.5t207 -152.5q123 -180 -8 -364q-59 -82 -193 -187q59 -70 139 -151l211 -211q10 20 15.5 42.5t8.5 40t7 58.5t10 70q4 43 39 67.5t77 19.5t66.5 -40t18.5 -76 q0 -10 -8 -74.5t-13.5 -89t-23.5 -74t-45 -94.5l70 -75q29 -31 26 -72q-2 -43 -33.5 -72t-73.5 -26.5t-71 34.5l-61 64q-164 -111 -379 -113q-158 0 -296 68.5t-208 210.5zM264 334q39 -78 124 -121t194 -43q129 0 231 57l-217 215q-90 94 -156 170q-100 -80 -145 -133 q-63 -80 -31 -145zM401.5 1122q-6.5 -45 16.5 -102q18 -53 61 -119q111 86 150 141q27 39 28.5 67t-20.5 65q-27 39 -59.5 56t-60.5 16t-52.5 -14t-40.5 -39t-22.5 -71z" />
<glyph unicode="'" horiz-adv-x="409" d="M82 926q29 139 72 518q2 29 24.5 46t51 14t46 -25.5t13.5 -51.5q-43 -385 -72 -530q-6 -27 -29.5 -43t-51 -10t-44 29.5t-10.5 52.5z" />
<glyph unicode="(" horiz-adv-x="751" d="M116.5 795.5q22.5 222.5 124 430.5t273.5 359q23 20 52.5 18.5t49 -24.5t17.5 -52.5t-25 -47.5q-186 -164 -277 -409t-83 -499t94 -505.5t240 -444.5q18 -25 15 -53.5t-26.5 -47t-52.5 -15.5t-47 26q-133 166 -222 375t-122 438t-10.5 451.5z" />
<glyph unicode=")" horiz-adv-x="665" d="M30.5 1516q-1.5 30 19 51.5t50.5 23.5t50 -18q168 -152 266 -360.5t119.5 -430t-11 -451t-118.5 -437.5q-86 -207 -211 -373q-18 -25 -48 -28t-53.5 14.5t-27 47t13.5 52.5q147 195 231 446.5t93.5 506.5t-79.5 499t-270 407q-23 20 -24.5 50z" />
<glyph unicode="*" horiz-adv-x="786" d="M67.5 1230.5q-6.5 24.5 7 46t38 28t47.5 -6.5l92 -57q2 27 5 87.5t7 96.5q0 8 2 13.5t2 9.5q6 16 19 27q18 18 45 16q23 -2 39 -16q10 -10 14 -25q4 -6 4 -14q4 -12 6 -50q10 -86 15 -106l12 -45q74 45 158 82q23 10 46 2t33.5 -31.5t2 -47t-32.5 -34.5q-90 -41 -164 -90 l6 -14l49 -62q25 -31 31 -51q12 -37 -10 -65q-23 -27 -60 -27q-66 0 -112 70l-21 28q-10 16 -12 21l-12 -17q-12 -12 -33 -45q-27 -43 -45 -63q-2 -4 -6 -6q-4 -4 -9 -6q-14 -10 -30 -11q-23 -2 -41 13q-16 12 -23 32q-2 14 0 29q2 6 5 13.5t12 21.5q20 35 20 37 q43 84 45 92l2 6q-35 25 -127 80q-20 14 -26.5 38.5z" />
<glyph unicode="+" horiz-adv-x="1136" d="M93 531.5q-1 37.5 24.5 65.5t64.5 30q109 2 271 2q-2 170 -7 284q0 41 28 71t68 31t69.5 -26.5t31.5 -66.5q4 -119 6 -291q162 0 275 4q37 0 64.5 -25.5t28.5 -63.5t-24.5 -65.5t-64.5 -29.5q-113 -2 -279 -5q4 -197 8 -321q0 -41 -27.5 -70.5t-67.5 -30.5t-69.5 26.5 t-31.5 66.5q-4 126 -6 329q-158 0 -269 -4q-37 0 -64.5 26t-28.5 63.5z" />
<glyph unicode="," horiz-adv-x="481" d="M72 -283.5q0 25.5 16 43.5q88 88 122 161t28 179q-2 25 15 43.5t43 20.5t44 -15.5t20 -44.5q6 -135 -37.5 -230t-144.5 -200q-18 -18 -43.5 -18t-44 17.5t-18.5 43z" />
<glyph unicode="-" horiz-adv-x="927" d="M46 538.5q1 36.5 27.5 62.5t63.5 26q184 -4 578 8q37 2 64.5 -22.5t28.5 -61.5t-23.5 -64.5t-61.5 -27.5q-401 -14 -590 -13q-37 2 -62.5 29t-24.5 63.5z" />
<glyph unicode="." horiz-adv-x="487" d="M106 108.5q0 53.5 39 92.5t92.5 39t92.5 -39t39 -92.5t-39 -92.5t-92.5 -39t-92.5 39t-39 92.5z" />
<glyph unicode="/" horiz-adv-x="673" d="M-8 70q197 696 442 1370q8 25 31.5 35t47.5 1.5t34 -31.5t2 -46q-244 -672 -438 -1362q-6 -25 -29 -37t-47.5 -6t-36.5 28.5t-6 47.5z" />
<glyph unicode="0" horiz-adv-x="1136" d="M52 683q-3 142 29 307t105 272q18 27 46 56.5t59 59t37 37.5q29 31 71.5 33t73.5 -27q8 -8 14 -18q96 4 150 -8q199 -47 309 -359q39 -111 58.5 -230.5t11.5 -199.5q-14 -141 -90 -277t-191 -223q-260 -197 -454 -71q-154 100 -203 379q-23 127 -26 269zM256 690 q2 -127 23 -239q35 -193 114 -244q72 -47 219 63q80 59 133 158q55 98 66 199q6 55 -8 151q-16 96 -49 189q-37 102 -81 160.5t-81 66.5q-35 6 -47.5 6t-51 -2t-75.5 -2q-9 0 -17 2q-29 -29 -47 -55q-51 -72 -75.5 -199t-22.5 -254z" />
<glyph unicode="1" horiz-adv-x="870" d="M46 972q-13 40 6.5 78t58.5 50q117 39 192.5 90t163.5 149l4 4l6 15q6 12 17 31q53 102 147 96q49 -4 81 -39t28 -84q0 -31 -21 -70q-4 -8 -12 -22.5t-10 -18.5l-5 -10q-31 -125 -47 -362q-10 -154 -6 -404l6 -412q0 -43 -29.5 -72.5t-72.5 -29.5t-72.5 29.5t-29.5 72.5 q0 61 -1 129t-3.5 151t-2.5 130q-4 250 7 418q6 98 14 164q-119 -92 -289 -148q-41 -14 -79 5.5t-51 59.5z" />
<glyph unicode="2" horiz-adv-x="1249" d="M70 213q6 23 22 51q20 37 60 92l24 33l25 31l20 26q8 10 12 17l7 8l215 268q133 174 149 248q20 84 4 127q-8 23 -30 31q-29 16 -94.5 5t-135.5 -50q-12 -6 -20 -15l-25 -24q-18 -18 -41 -39q-33 -27 -75 -24t-69.5 35t-24.5 74t34 71l16 16l31 29q14 14 35.5 30.5 t40.5 26.5q98 53 198.5 70.5t200.5 -13.5q111 -43 152 -151q39 -102 4 -248q-29 -115 -189 -322l-213 -268l-6 -8l-14 -16l-18 -25l-23 -29l-25 -34l-18 -27q14 -2 33 0q39 4 164 41q74 23 229 76l266 96q41 14 79 -4.5t52.5 -58.5t-4 -77.5t-57.5 -52.5l-270 -96 q-164 -57 -238 -80q-139 -41 -199 -49q-186 -18 -272 100q-33 47 -12 109zM250 223q0 2 14 -6q-2 18 -14 6z" />
<glyph unicode="3" horiz-adv-x="1275" d="M62.5 351q15.5 40 54.5 56.5t79 1t56 -54.5l18 -53q2 0 7.5 -17.5t7.5 -25.5q12 -35 24 -47q45 -53 172 -25q147 35 288.5 152t174.5 229q29 96 -59 162q-61 43 -153.5 63.5t-180.5 10.5q-4 0 -72 -27q-100 -37 -174 -2q-57 25 -67 82q-12 70 51 113q23 14 69 26 q84 23 86 23q98 51 158 115q53 55 39 90q-6 4 -20 8q-35 12 -95 10q-123 -2 -192 -33q-8 -4 -27 -20l-51 -49q-33 -27 -76 -23t-69.5 37t-22.5 75.5t37 69.5q8 6 15 12.5t15.5 14.5t14.5 12q39 39 78 56q106 51 274 53q96 2 162 -21q104 -33 143 -116q70 -158 -71 -312 q145 -29 248 -104q102 -74 134.5 -174.5t2.5 -206.5q-51 -176 -240 -332q-180 -147 -375 -192q-246 -57 -372 88q-37 43 -62 114q0 2 -16 48q-6 23 -13 34q-16 39 -0.5 79z" />
<glyph unicode="4" horiz-adv-x="1163" d="M6 440q-23 84 53 156q10 10 18.5 17.5t11.5 9.5t5 3t4 3l60 86l170 243q53 82 135 220.5t133 257.5q18 39 57 54t78 -2.5t54.5 -56t-1.5 -77.5q-55 -127 -142 -274.5t-142 -229.5l-170 -248l196 55q125 37 211 66l51 18q10 39 27 66q8 16 21.5 32.5t46 30t69.5 4.5 q43 -12 66.5 -43.5t23.5 -68.5q2 -37 -17 -78t-50 -74q-6 -47 -10 -112q0 -14 -17 -480q-2 -41 -32.5 -70.5t-72.5 -27.5t-72 33t-28 74q16 467 17 483v4l-176 -53q-289 -84 -363 -94q-2 -2 -16 -7q-27 -6 -41 -8q-39 -8 -70 0q-72 18 -88 88z" />
<glyph unicode="5" horiz-adv-x="1107" d="M37 332q-14 39 3 78t57 53t79 -3.5t53 -58.5q8 -20 15 -51q2 0 5 -15.5t5 -23.5q8 -29 16 -39q123 -152 295 -69q82 39 140.5 117.5t72.5 166.5q27 193 -71 261q-96 68 -312 45q-8 0 -15 -2.5t-24 -8.5l-37 -12q-104 -33 -174 10q-41 27 -55 78q-6 25 -6 55q0 41 10 103 q10 68 41 196q2 8 4 25q4 37 6 43q12 80 58 125q10 10 23.5 17.5t19.5 7.5l8 2q6 2 16 2q8 2 25 2q23 2 63 4h187q248 0 293 -2q43 -2 70.5 -34t25.5 -75t-34 -70.5t-75 -25.5t-280 2h-183q-10 -2 -16 -2q-2 -2 -2 -8v-11q-4 -31 -8 -51q-31 -121 -41 -180v-6q49 16 80 20 q289 29 448 -82q203 -139 156 -456q-18 -141 -109 -262q-90 -119 -217 -179q-90 -43 -182 -47q-94 -4 -189.5 38t-170.5 136q-35 41 -54 113l-12 43q-4 20 -8 31z" />
<glyph unicode="6" horiz-adv-x="1136" d="M35 713q41 250 147 452q125 236 281 287q47 14 106 4q2 0 35 -6q12 -2 19 -2q43 -2 70.5 -35t25.5 -75t-35 -69.5t-74 -25.5q-18 2 -43 6h-10l-8 4h-10l-15 2q-78 -25 -162 -184q-74 -141 -112 -323q53 63 133 116q80 51 164 78q57 18 112 21q57 4 116 -8.5t111 -51.5 t89 -102q76 -127 20 -297q-43 -135 -157 -266q-106 -127 -246.5 -207t-267.5 -62q-115 16 -184.5 94t-100.5 193q-51 188 -4 457zM293 201q25 -25 59 -31q57 -6 151.5 47t180.5 153.5t117 194.5q27 84 -2 133q-53 90 -191 50q-70 -23 -132 -69t-91 -93q-53 -88 -61 -142 q-4 -18 -5 -38v-62q0 -41 -2 -82q-1 -34 -24 -61z" />
<glyph unicode="7" horiz-adv-x="1136" d="M-61 1134q-2 42 27.5 72.5t70.5 32.5q217 6 538 152q43 20 148 61q61 25 90 35q20 8 33 12q12 2 20 4t19 2q31 2 55 -14q88 -51 76 -156q-4 -53 -41 -116q-20 -39 -55 -86l-21 -29l-8 -10q-96 -147 -180 -299l28 8q31 8 56.5 -7.5t33 -45t-8 -55t-44.5 -31.5l-160 -41 q-147 -285 -243 -560q-14 -41 -52 -59t-78 -4t-58.5 52t-4.5 77q74 213 176 430q-100 -23 -184 -37q-29 -4 -53.5 13.5t-29.5 46t12.5 53t45.5 31.5q127 20 293 61q125 242 279 477q4 6 16 23l10 12q-61 -25 -88 -37q-168 -74 -314 -119t-298 -49q-43 -2 -73.5 28t-32.5 72z " />
<glyph unicode="8" horiz-adv-x="989" d="M-16 1022q-12 41 8 79t59 50q31 8 60 0q41 127 174 225q68 49 145 82q78 31 166 40t160 -28q106 -53 112 -170q4 -72 -37 -161q-14 -29 -35.5 -64t-37.5 -59l-33 -45q-16 -23 -18 -25q-8 -14 -27 -39l-47 -63l-51 -70q111 -70 172 -137q113 -121 98 -252 q-10 -80 -92 -168q-63 -68 -154 -127q-94 -61 -180 -88q-121 -39 -201 4q-84 43 -111.5 121t-13.5 166q18 127 123 307q29 54 66 111l-74 41q-133 78 -180 135q-31 35 -43 92q0 2 -4 29q-2 10 -4 14zM301 260q-9 -58 16 -72h2h5q4 0 9 1t14 3.5t18 4.5q59 18 129 63 q70 47 116 96q14 16 23.5 29.5t11.5 17.5l2 7q6 37 -43 88q-45 49 -137 108q-37 -57 -66 -106q-86 -150 -100 -240zM303 1069q0 -29 12 -51q4 -6 23 -19l27 -20q23 -14 36 -25q18 -16 29 -41l43 58l39 55l27 35q4 8 28.5 41t42.5 63q20 31 35 62q19 39 21 59q-35 16 -111 -2 t-149 -74q-51 -37 -77 -74.5t-26 -66.5z" />
<glyph unicode="9" horiz-adv-x="1159" d="M-18.5 982q14.5 89 57.5 177q63 125 169.5 225.5t217.5 128.5q17 5 33 7q12 14 26 24q41 31 99 19q45 -8 104 -50q115 -78 162 -170q31 -57 20 -157q41 -59 84 -158q59 -137 78 -283.5t-12 -295.5q-37 -156 -143.5 -269.5t-284.5 -154.5q-63 -12 -133 -14.5t-149 19 t-136 64.5q-43 33 -84 92l-27 41q-12 20 -22 31q-25 35 -19.5 77t39 67.5t75.5 20.5t69 -38l31 -45l24 -39q20 -31 37 -43q41 -31 113.5 -40t136.5 7q223 51 274 271q43 180 -33 393q-53 -102 -124 -176q-68 -70 -146 -109t-178 -35t-199 66q-98 63 -136 160.5t-23.5 186.5z M223 1069q-92 -184 29 -262q135 -86 264 47q108 112 141 274l-18 25q-6 8 -21 27l-40 45l-39 47l-35 45q-16 2 -25 0q-59 -16 -135 -87t-121 -161z" />
<glyph unicode=":" horiz-adv-x="501" d="M147 813q0 45 32 77t77 32t77 -32t32 -77t-32 -76.5t-77 -31.5t-77 31.5t-32 76.5zM166 123q0 45 31.5 76.5t76.5 31.5t77 -31.5t32 -76.5t-32 -77t-77 -32t-76.5 32t-31.5 77z" />
<glyph unicode=";" horiz-adv-x="602" d="M147 -214q0 26 17 44q88 90 123 161.5t30 176.5q-2 25 15.5 44t43 20t45 -16t19.5 -44q8 -135 -39 -229.5t-147 -198.5q-18 -18 -44 -18t-44.5 17t-18.5 43zM266 534.5q0 45.5 32 77t77 31.5t76.5 -31.5t31.5 -77t-31.5 -77t-76.5 -31.5t-77 31.5t-32 77z" />
<glyph unicode="&#x3c;" horiz-adv-x="1376" d="M-10 547q-8 25 3 47.5t34 30.5q80 29 194 82q180 82 197 90q150 66 391 157q256 98 360 144q25 8 48.5 -1.5t33 -33t0 -47t-31.5 -33.5l-363 -141q-254 -98 -389 -156q-12 -6 -195 -92l-34 -16q295 -139 954 -392q39 -14 56.5 -53t2 -78t-54.5 -56t-78 -1l-375 145 l-333 136q-205 88 -365 167q-29 14 -44 42t-11 59z" />
<glyph unicode="=" horiz-adv-x="1228" d="M56 323.5q1 36.5 27.5 62.5t63.5 26q281 -4 863 10q37 0 63.5 -25.5t27.5 -62.5t-24.5 -63.5t-62.5 -28.5q-586 -12 -871 -11q-37 2 -62.5 29t-24.5 63.5zM64.5 711q1.5 37 28 62.5t63.5 25.5q281 -4 862 10q37 0 63.5 -25.5t27.5 -62.5t-24.5 -63.5t-62.5 -28.5 q-586 -12 -870 -11q-37 2 -63 29t-24.5 64z" />
<glyph unicode="&#x3e;" horiz-adv-x="1398" d="M-3 29.5q-9 23.5 0 47t32 34.5q127 53 381 150t372 149q35 14 191 90l47 20q-621 240 -952 404q-37 18 -51.5 58t5 77t59.5 51t77 -6q160 -78 362 -164l320 -133l374 -143q39 -14 56.5 -53.5t1.5 -78.5q-6 -16 -17 -28q-10 -27 -38 -37q-76 -25 -191 -78 q-158 -78 -195 -94q-121 -51 -373.5 -147.5t-379.5 -151.5q-25 -8 -48.5 1t-32.5 32.5z" />
<glyph unicode="?" horiz-adv-x="1140" d="M121 1141q4 10 6 30l8 41q14 70 45 115q66 90 185.5 137t244.5 45q86 -2 163 -26.5t144.5 -86t92.5 -153.5q10 -37 10 -77t-7 -72.5t-24.5 -69.5t-35 -64.5t-43 -60.5t-44.5 -53l-43 -47l-69 -72q-57 -59 -84 -92q-68 -76 -80 -121l2 -12q0 -4 2 -10v-9q2 -6 4 -10 q4 -23 6 -41q4 -41 -23.5 -73.5t-69.5 -37t-75 23.5t-37 71q0 6 -2 18q-6 31 -6 33q-10 59 2 104q27 88 121 199l88 94l72 74q160 172 139 252q-14 51 -67.5 82t-139.5 33t-157.5 -27t-100.5 -70q-6 -8 -12 -37q-2 -6 -3 -12t-2 -13t-1 -13q-6 -29 -13 -50 q-12 -41 -49 -61.5t-77.5 -8t-61 49.5t-8.5 78zM401 76q0 53 39 92t92.5 39t92.5 -39t39 -92t-39 -92t-92.5 -39t-92.5 39t-39 92z" />
<glyph unicode="@" horiz-adv-x="2031" d="M162 592q-33 430 227 682q252 244 680 229q270 -10 424 -117q158 -113 248 -368q6 -20 2 -41q14 -23 10 -51q-2 -18 -3 -38t-1 -48.5t-2 -51.5q-4 -109 -47 -174q-80 -123 -148 -192q-70 -74 -145 -92q-131 -29 -240 114q-111 -125 -262 -112q-211 18 -295 174 q-72 129 -28 303q41 158 153 262q133 125 291 94q92 -16 184 -106l4 24q8 33 36 51.5t60.5 11.5t51 -35t12.5 -60q-63 -301 -96 -418q18 2 35.5 -21.5t27.5 -50.5l19 -51q8 -23 12 -23q66 14 193 213q18 31 20 97q2 10 2 40.5t1 59.5t5 51l-8 17q-70 207 -186 288 q-113 80 -334 86q-362 10 -563 -182q-203 -197 -176 -553q20 -254 272 -407q113 -68 301 -76q281 -12 447 59q139 59 223 152q84 94 192 274q16 31 49 39t63 -9.5t38 -50t-10 -61.5q-57 -98 -95.5 -153.5t-98.5 -127t-133 -122.5t-163 -92q-201 -84 -520 -72 q-229 10 -379 100q-324 197 -350 535zM750 766q-29 -106 10 -178q41 -74 162 -84q51 -4 82.5 22.5t93.5 112.5q4 6 10 12q6 8 9 14.5t3 7.5t1 2t1 3q23 80 45 178l-8 8q-12 10 -38.5 39t-36 38t-28 24.5t-32.5 21.5t-31 10q-72 12 -141 -51q-76 -70 -102 -180z" />
<glyph unicode="A" d="M-30 110q-6 18 -7 35q0 22 10 43q305 670 408 914q23 53 57 125q39 80 51 110q2 0 3 2v2q0 2 1 11.5t5 25.5q8 37 26 62q38 53 102 53h5q55 -2 96 -49q18 -23 37 -58q25 -47 51 -126q0 -2 59 -209q90 -317 177 -512l98 -213q63 -139 94 -226q6 -18 6 -35q0 -21 -10 -43 q-18 -38 -58 -52q-18 -6 -35 -7q-22 1 -43 11q-38 18 -52 57q-31 88 -88 209l-101 217l-18 43l-127 -21l-135 -20q-45 -6 -114 -20.5t-128 -30.5q-20 -6 -43 -2l-139 -304q-16 -39 -56 -53q-18 -6 -36 -6q-22 -1 -44 9q-38 18 -52 58zM399 633q92 20 371 63q-43 127 -92 301 q-43 156 -45 160q-45 -88 -64 -133z" />
<glyph unicode="B" horiz-adv-x="1425" d="M35 882v39q0 67 5 129q7 78 21 156q-14 14 -22 33q-8 20 -8 40q0 19 7 38q15 39 54 57l14 6l11 31q14 39 52 57q22 11 44 11q17 0 35 -6t33 -19q66 18 159 25q12 1 26 0q54 -1 128 -13q92 -16 174 -49q45 -18 84 -42.5t79 -62.5q39 -38 59 -92q12 -35 13 -73 q0 -21 -4 -43q-12 -94 -104 -203q197 -14 295 -115q117 -120 118 -248q0 -68 -34 -139q-59 -125 -240 -254q-2 -2 -23.5 -19t-37 -27.5t-42 -26t-48.5 -21.5q-94 -33 -219 -47q-117 -13 -214 -13h-14q-102 1 -207 1q-37 0 -64.5 24.5t-33.5 61.5q-8 14 -10 33 q-6 29 -23.5 141.5t-23.5 159.5t-18.5 149.5t-15.5 167t-5 153.5zM240 842q31 6 47 8q29 6 139 14q74 6 113 17q63 16 157.5 108t102.5 144q0 10 -5.5 22t-32 32.5t-71.5 39.5q-62 25 -130 37q-59 10 -95 10h-12q-100 -6 -177 -41q-36 -156 -36 -352v-39zM254 625 q12 -117 59 -428h50q310 0 454 47q10 4 20.5 10t17.5 12t25.5 19.5t34.5 23.5q137 100 172 176q12 24 12 48q0 54 -57 110q-54 56 -218 56q-65 0 -148 -9q-88 -10 -260 -39q-115 -20 -162 -26z" />
<glyph unicode="C" horiz-adv-x="1417" d="M-64 588q-3 32 -4 64q0 63 13 124q20 145 84.5 277.5t164.5 238.5q102 106 250 166q125 50 268 51q27 0 54 -2q166 -10 282.5 -82.5t188.5 -222.5q10 -22 10 -44q0 -17 -6 -35q-14 -40 -52 -58q-21 -10 -43 -10q-17 0 -35 6q-40 14 -58 51q-49 96 -115 141 q-70 43 -184 50q-15 1 -31 1q-105 0 -199 -37q-108 -42 -184 -120t-126 -180.5t-67 -218.5q-10 -62 -10 -121q-1 -90 23 -170q38 -133 143 -223.5t262 -104.5q35 -4 69 -3q115 0 208 42q37 16 64.5 31.5t56.5 40.5l43 39q16 16 55 57l63 63q29 31 72 31t72.5 -29.5 t29.5 -72.5t-30 -72l-60 -59q-39 -43 -61 -64l-57 -51q-35 -33 -76 -56.5t-90 -45.5q-133 -60 -293 -60q-42 0 -86 4q-119 12 -217.5 54t-167 104.5t-119.5 144.5t-73 173.5t-32 187.5z" />
<glyph unicode="D" horiz-adv-x="1415" d="M41 1350q0 43 30.5 71.5t73.5 28.5q377 -6 596 -59q408 -98 516 -373q38 -93 39 -191q0 -17 -2 -35q-8 -116 -45 -214q-39 -96 -106 -195q-92 -133 -219 -240q-129 -106 -260 -168q-96 -46 -226 -46q-43 0 -90 5q-29 -57 -92 -57q-39 0 -68.5 26.5t-33.5 65.5l-33 11 q-41 10 -63 46q-15 23 -15 48q0 14 4 28q8 36 37 58q27 20 57 20h6q-4 92 -32 441q-30 350 -30 571q0 38 1 72q-45 31 -45 86zM291 1241q-1 -28 -1 -62q0 -190 29 -542q29 -348 35 -498q43 -5 81 -5q87 0 143 26q106 51 213.5 141t183.5 199q116 166 116 311q0 69 -26 133 q-68 174 -373 248q-162 39 -401 49z" />
<glyph unicode="E" horiz-adv-x="1243" d="M20 717q-2 10 -2 20q0 31 20 57q26 34 66 40l5 2q10 111 26 256q39 305 39 331q0 43 31 72t74 29q54 -2 83 -47q73 -2 158 -2q191 0 445 12h5q38 -1 68 -27q32 -28 33 -70v-5q-1 -39 -27 -69q-28 -32 -71 -34q-257 -12 -449 -12q-86 0 -159 2l-25 -205q-16 -135 -23 -203 l215 25q141 14 185 20q6 1 11 1q36 0 64 -24q32 -26 38 -68q1 -7 1 -14q0 -34 -22 -60q-27 -32 -68 -39q-35 -4 -193.5 -20.5t-242.5 -29.5q-2 -31 -2 -59q2 -246 62 -344q23 -39 53 -47q14 -4 30 -3q37 0 89 17q47 16 434 230q23 12 47 12q15 -1 31 -5q41 -12 61 -48 q12 -23 12 -48q0 -15 -4 -30q-12 -41 -49 -62q-399 -219 -463 -241q-84 -31 -158 -31q-46 0 -88 12q-106 31 -172 137q-88 147 -90 449v39q-29 6 -51 29.5t-27 54.5z" />
<glyph unicode="F" horiz-adv-x="1175" d="M4 715q-3 14 -3 27q0 45 38 77q-4 168 -4 277q-1 40 -1 72t1 55q2 27 4 45q4 37 18 59q55 86 170 125q39 12 152 18q82 4 213 9q78 2 205 3t151 3h6q39 -1 68 -27q31 -28 33 -72v-5q0 -41 -27 -69q-29 -30 -72 -32q-27 0 -154.5 -2t-205.5 -4q-113 -4 -205 -8 q-88 -4 -102 -11q-27 -8 -47 -26q0 -4 -2 -17q-1 -20 -1 -49t1 -67q0 -92 4 -226q113 16 319 31h6q38 1 68 -25q33 -28 35 -70v-6q0 -39 -26 -69q-28 -33 -71 -35q-212 -14 -325 -32q16 -391 26 -476q1 -6 1 -11q1 -37 -23 -65q-26 -32 -69 -37q-7 -1 -13 -1q-34 0 -62 22 q-32 26 -38 68q-10 90 -27 491q-31 23 -41 60z" />
<glyph unicode="G" horiz-adv-x="1548" d="M57 557q-16 83 -16 169q0 108 25 220q41 203 155 350q80 100 185 154q109 53 220 57q14 1 28 1q97 0 190 -24q108 -28 205 -83q31 -16 56 -39t46 -51l35 -45q12 -16 31.5 -49t21.5 -39q16 -25 16 -53q0 -11 -3 -23q-9 -41 -45 -64q-26 -16 -54 -16q-11 0 -23 3 q-40 9 -63 46q-10 12 -28.5 43t-24.5 41l-19 25q-12 18 -23 27.5t-26 17.5q-100 57 -204 73q-35 6 -69 6q-68 0 -133 -22q-96 -33 -159 -113q-84 -106 -117 -267q-18 -89 -18 -173q0 -69 12 -135q23 -119 85.5 -209t146.5 -135q81 -43 181 -43h9q104 2 205 59 q147 82 196 187q33 72 35 204q-125 -10 -220 -10q-41 0 -77 2q-43 2 -71 34q-25 30 -25 69v6q2 43 33 70q30 26 69 26h6q9 -4 48 -4q20 0 47 1q80 3 91 4t94 7t101 8q2 0 13 2q25 6 35 9q19 3 36 3q67 0 107 -48q10 -10 15 -22.5t7 -18.5v-7q2 -6 2 -12v-10v-23v-63 q-2 -68 -6 -191l-4 -129q-4 -76 -5 -115.5t-1 -45.5q0 -43 -29.5 -73t-72.5 -30t-73 30t-30 73q0 8 2 71q-78 -102 -225 -184q-152 -84 -309 -85h-4q-154 0 -277 69q-125 69 -217 196q-88 127 -119 291z" />
<glyph unicode="H" horiz-adv-x="1284" d="M94 104q4 96 31 385l16 181q-47 31 -47 86q0 68 62 94v12q1 28 1 60q0 188 -51 493q-2 10 -2 20q0 30 18 56q24 35 67 42q9 2 18 2q31 1 59 -19q35 -24 41 -68q54 -322 54 -528q0 -33 -1 -62h113q272 0 432 8q2 39 23.5 250t29.5 324q4 40 36 68q29 25 66 25h8 q42 -3 70 -35q26 -30 25 -69v-6q-10 -121 -34.5 -363.5t-32.5 -363.5q-5 -126 -5 -191v-21q1 -64 9 -213.5t10 -225.5v-5q0 -38 -28 -66q-30 -30 -71 -33h-5q-39 -1 -68 27q-31 30 -33 73q-2 61 -9 197q-7 138 -9 210q-1 24 -1 55q0 63 3 156q-147 -6 -406 -6h-137 q-6 -53 -18 -184q-25 -272 -29 -373q-3 -44 -33 -72q-28 -27 -67 -26h-6q-43 2 -72 32q-27 29 -27 69v5z" />
<glyph unicode="I" horiz-adv-x="489" d="M145 -12q0 178 8.5 486t10.5 484v63q0 166 -8 425v5q0 37 26 67q28 32 71 34h5q38 0 68 -26q32 -28 34 -72q9 -270 8 -440v-48q-2 -178 -10 -489t-8 -489q0 -43 -29.5 -73t-72.5 -30t-73 30t-30 73z" />
<glyph unicode="J" horiz-adv-x="1021" d="M25 335q14 40 53 57q21 10 43 10q18 0 36 -6q40 -15 58 -54q10 -25 23 -61l8 -19q6 -20 10 -31q14 -45 31 -63q80 -89 156 -89q33 0 65 17q53 27 98 90.5t70 147.5q20 71 20 192q0 115 -18 275q-2 25 -35 272q-23 178 -27 254v5q0 38 27 68q29 32 71 34h5q39 0 69 -27 q31 -29 33 -72q4 -68 25 -233q33 -258 37 -279q18 -160 18 -285q0 -159 -29 -262q-33 -117 -103.5 -215t-166.5 -147q-75 -41 -156 -41q-39 0 -80 9q-124 30 -231 151q-43 47 -72 127l-18 55q-10 27 -18 41q-9 21 -9 42q0 18 7 37z" />
<glyph unicode="K" horiz-adv-x="1339" d="M59 887q4 86 25 248q16 154 20 235q2 42 34 70q30 27 69 26h5q42 -2 70 -34q27 -29 27 -68v-6q-4 -86 -22 -248q-18 -154 -23 -236q-4 -76 -4 -146v-46l361 385q37 41 172 211q113 141 186 217q29 31 71 33h5q39 0 67 -28q33 -32 33 -76q0 -38 -29 -68q-66 -72 -174 -207 q-125 -156 -180 -217l-59 -68q137 -330 483 -755q23 -30 23 -65q-1 -6 -1 -12q-4 -42 -38 -68q-29 -23 -64 -24q-5 0 -11 1q-42 4 -69 36q-328 403 -477 723l-270 -286l-13 -13q14 -135 41 -286q2 -10 2 -20q-1 -30 -19 -56q-24 -35 -64 -43q-10 -2 -20 -2q-30 0 -56 18 q-35 24 -43 66q-62 342 -62 652q0 80 4 157z" />
<glyph unicode="L" horiz-adv-x="1316" d="M74 154q-1 28 -1 67t1 88q4 162 18 434l19 299l18 279q8 119 10 139q2 43 34 71q29 26 68 26q3 -1 7 -1q42 -2 70 -34q26 -29 26 -68v-6q-2 -20 -10 -139l-19 -279l-18 -297q-14 -270 -18 -430q-1 -45 -1 -81t1 -62v-31q23 -12 77 -14h10q92 0 244 35q125 29 273 77 l104 35q61 23 76 27q16 5 31 5q25 0 48 -12q38 -20 50 -61q5 -16 5 -31q-1 -25 -13 -48q-20 -38 -60 -50q-14 -4 -73 -24l-103 -35q-164 -53 -291 -84q-168 -39 -284 -39h-21q-193 6 -258 125q-12 25 -16 61q-4 23 -4 58z" />
<glyph unicode="M" horiz-adv-x="1607" d="M76 94q16 176 30 402q18 260 27 370q12 152 27 260q2 12 1 17.5t-3 26t-2 42.5v14q0 40 10 68q20 49 67 68q20 7 40 7q28 0 57 -13q82 -43 151 -185q49 -96 101 -256q16 -53 75 -262q41 -145 56 -184q10 -31 49 -121l112 234l230 503q10 23 90 177l57 106l19 37l8 10l4 8 l4 9l12 12q10 8 21 14q24 12 50 12q15 0 30 -4q55 -18 74 -77q8 -20 10 -48q4 -35 4 -90q0 -72 -4 -143q-9 -152 -11 -316q0 -41 -1 -86q-1 -132 3 -291q4 -212 5 -317q0 -43 -30 -72.5t-73 -29.5t-72.5 29.5t-29.5 72.5q0 63 -5 429q-2 166 -2 270q0 125 3 159l-209 -460 q-88 -184 -143 -289q-35 -66 -60 -103q-16 -25 -31 -38q-29 -33 -63 -41q-19 -5 -37 -5q-22 0 -43 8q-37 15 -57 50q-20 29 -27 76q-2 8 -3 16t-2 19.5t-1 15.5l-4 18l-33 82l-37 94q-16 47 -59 199q-51 180 -76 256q-18 61 -37 111q-2 -12 -10 -115q-10 -111 -27.5 -373 t-29.5 -403q-4 -41 -37 -69q-28 -24 -64 -24q-6 1 -11 1q-41 4 -69 36q-24 28 -25 65q0 6 1 11z" />
<glyph unicode="N" horiz-adv-x="1384" d="M41 35q6 444 70 1032q0 2 1 27.5t3 56.5t6 68.5t10 64.5q25 106 96 141q31 15 63 15q69 0 140 -70q37 -37 68 -102l30 -70q326 -553 504 -829v22q27 496 27 1200q0 43 29.5 73t72.5 30t73 -30t30 -73q0 -711 -27 -1212q-2 -25 -3 -89.5t-3 -92.5q-2 -59 -6 -93 q-4 -25 -11 -43q-18 -55 -67 -75q-19 -7 -38 -7q-23 0 -46 11q-14 6 -27 18q-12 10 -26 27q-16 20 -43 57l-90 139q-186 289 -525 865q-14 23 -33 65q0 -8 -1 -50t-3 -64q-63 -580 -69 -1016q0 -41 -31 -71t-73 -30t-71.5 31t-29.5 74zM1020 125v2v-2z" />
<glyph unicode="O" horiz-adv-x="1603" d="M0 675.5q0 106.5 16 213.5q31 164 114 304t224.5 239.5t315.5 117.5q-4 13 -4 27q0 22 10 43q18 38 58 52q17 6 33 6q23 0 46 -11q104 -51 208.5 -132t198 -181.5t162.5 -223.5q70 -119 93 -239q9 -46 9 -97q0 -145 -73 -331q-70 -180 -208 -309q-138 -128 -318 -174 q-76 -19 -157 -20q-110 0 -228 36q-123 41 -219.5 113.5t-152.5 161.5t-92 193.5t-36 211zM216 578q28 -129 117 -234.5t232 -150.5q83 -28 163 -28q117 0 226 60q182 98 265 312q60 155 60 257q0 30 -5 56q-29 145 -147.5 296.5t-274.5 260.5q-27 -59 -92 -59h-4h-16 q-192 0 -334 -136q-148 -142 -189 -362q-15 -73 -15 -142q0 -67 14 -130z" />
<glyph unicode="P" horiz-adv-x="1341" d="M96 645q-14 25 -14 49q0 28 18 56q2 47 5.5 137t5.5 131q0 8 -1 72v42q0 40 1 72q2 76 8 123q6 35 14 59q16 45 47 70q47 39 123 39q20 0 37.5 -1t17.5 1q103 11 195 11q406 0 590 -220q80 -96 80 -205q0 -72 -35 -149q-66 -145 -242 -270q-162 -113 -342 -160 q-95 -25 -176 -25q-70 0 -129 19q0 -238 29 -428q2 -10 2 -19q0 -30 -20 -56q-26 -34 -67 -41q-9 -2 -18 -2q-32 0 -58 20q-34 26 -40 69q-32 209 -32 488q0 58 1 118zM305 729q25 -23 43 -33q33 -16 80 -15q53 0 125 19q145 37 275 129.5t173 186.5q15 32 15 62 q0 41 -29 77q-122 146 -425 146q-83 0 -179 -11q-20 -2 -61 0q-6 -35 -7 -92q-1 -33 -1 -73v-41q1 -66 1 -74q-2 -43 -6 -137.5t-4 -143.5z" />
<glyph unicode="Q" horiz-adv-x="1560" d="M1 638q-1 16 -1 32q0 113 32 221q36 123 100.5 234.5t158.5 197.5q96 88 211 135q99 41 242 41q56 0 118 -6q90 -10 151.5 -40t125.5 -91q39 -37 67 -72q39 -12 60 -49q4 -12 24.5 -48t38 -69.5t27.5 -64.5q39 -106 39 -257q0 -79 -11 -171q-29 -254 -110 -404 q-14 -25 -31 -47q72 -70 148 -114q35 -23 46 -64q4 -13 4 -26q0 -27 -15 -51q-23 -36 -64 -47q-14 -4 -27 -4q-26 0 -51 15q-94 58 -188 148q-144 -94 -324 -94q-75 0 -156 16q-184 37 -340.5 152.5t-222.5 281.5q-47 115 -52 245zM207 698q-2 -22 -2 -44q0 -98 37 -183 q47 -113 160.5 -198t254.5 -113q59 -12 114 -12q100 0 183 42q-133 158 -147 172q-27 29 -27 69v5q2 43 33 72q29 27 67 27q4 0 7 -1q43 -2 71 -32q45 -49 142 -164q59 115 82 315q8 75 8 139q0 80 -12 144q-29 14 -41 45l-33 72q-16 39 -23.5 53t-18.5 34.5t-26 35.5 l-37 38q-43 39 -73.5 53.5t-83.5 20.5q-38 5 -87 5q-24 0 -51 -1q-81 -4 -124 -22q-102 -45 -187.5 -136.5t-130.5 -202t-55 -233.5z" />
<glyph unicode="R" horiz-adv-x="1480" d="M78 566q4 173 23.5 327t56.5 332q-10 16 -13 37q-1 6 -1 13q0 48 42 79l23 104q10 40 46 62q25 15 54 16q12 0 24 -3q41 -9 63 -45q16 -26 16 -56q0 -11 -2 -23l-7 -20q48 4 106 3q39 0 83 -1q80 -2 181 -27t185 -70q49 -27 88 -60.5t74 -83.5t40 -108q1 -13 1 -27 q0 -49 -14 -108q-29 -92 -117 -182t-203 -160l76 -84l51 -61l54 -64l45 -49q29 -33 55 -57q27 -23 53 -43q18 -14 35.5 -22.5t48.5 -21.5t60 -30q37 -18 50 -59q5 -16 5 -32q0 -24 -12 -46q-20 -36 -60 -50q-16 -5 -31 -6q-24 0 -47 13q-6 2 -43 18.5t-70.5 35t-58.5 36.5 q-35 27 -67.5 56.5t-65.5 64.5l-53 61l-57 66q-37 43 -47 57q-68 80 -119 125q-111 -36 -204 -36q-76 0 -140 24q12 -268 98 -502q6 -17 6 -35q1 -22 -9 -43q-18 -39 -58 -53q-18 -6 -35 -6q-22 0 -43 9q-39 17 -54 58q-60 162 -88 333q-25 150 -24 301v43zM299 815 q68 -4 148.5 -20.5t113.5 -32.5q51 -22 98 -53q113 53 194 128.5t97 131.5q5 15 5 30q0 64 -95 115q-123 66 -276 72q-35 1 -68 1q-83 0 -158 -7q-43 -201 -59 -365z" />
<glyph unicode="S" horiz-adv-x="1413" d="M57 1040q-1 16 -1 31q0 136 112 223q88 68 240 90q71 8 141 8q55 0 109 -5q124 -11 200 -44q25 -10 54.5 -27.5t57 -38t31.5 -22.5q35 -23 45 -63q3 -12 2 -24q0 -28 -16 -53q-22 -35 -63 -45q-12 -3 -24 -3q-28 0 -54 16q-25 14 -46.5 30.5t-34.5 26t-30 15.5 q-47 17 -141 27q-46 5 -95 5q-52 0 -108 -5q-98 -14 -145 -52q-29 -22 -29 -60v-9q4 -55 84 -105q72 -43 254 -98q289 -86 320 -98q190 -68 280 -160q76 -78 86 -141q7 -38 7 -75q-1 -80 -35 -150q-50 -102 -146 -171q-84 -61 -192 -89q-75 -19 -147 -19q-31 0 -62 4 q-96 14 -184.5 55t-160 105.5t-124 124t-107.5 137.5q-19 27 -19 58q0 9 2 19q8 42 42 66q27 19 59 20q9 0 18 -2q42 -7 66 -42q102 -145 207 -234q104 -86 229 -102q22 -4 45 -4q41 0 85 12q69 18 124 57q95 67 95 158q0 17 -3 35q-2 2 -11 12t-21 23q-55 59 -203 110 q-25 10 -309 95q-205 59 -301 120q-166 100 -183 258z" />
<glyph unicode="T" horiz-adv-x="1359" d="M-82 1305v6q0 39 26 69q28 32 70 33q33 2 156 9.5t168 9.5t151.5 8t169 7t153.5 2t171 1q74 -2 158 -6q43 -2 71 -34q27 -30 27 -69v-5q-1 -42 -33 -70q-29 -27 -68 -27h-5q-119 6 -253 6q-107 0 -223 -4q2 -610 74 -1364q1 -5 1 -11q0 -36 -24 -64q-28 -32 -70 -38 q-6 -1 -11 0q-35 0 -64 24q-33 28 -37 69q-72 737 -73 1376q-45 -2 -426 -25h-6q-39 0 -69 26q-32 28 -34 71z" />
<glyph unicode="U" horiz-adv-x="1417" d="M127 1260v5q-1 39 27 67q30 30 72 32h5q39 0 68 -28q31 -30 33 -72q2 -61 3 -181t2 -187t9 -169t22.5 -173t41.5 -157q29 -82 67 -155q49 -92 143 -133q61 -26 123 -27q34 0 68 8q96 22 154 103q100 139 122 573q3 116 5 240q1 53 1 108q0 74 -1 152q-2 136 -2 178 q0 43 29.5 72.5t72.5 29.5t72.5 -29.5t29.5 -72.5q0 -40 2 -180q1 -94 1 -181v-86q-1 -127 -5 -241q-27 -496 -159 -682q-82 -113 -202 -161q-92 -37 -184 -37q-28 0 -55 4q-119 14 -226.5 83.5t-168.5 179.5q-47 86 -80 185.5t-49 183.5t-25.5 197.5t-10.5 184.5t-2 190.5 t-3 175.5z" />
<glyph unicode="V" horiz-adv-x="1351" d="M158 1075q-2 11 -2 21q0 29 16 56q22 36 65 44q11 2 22 2q29 0 55 -16q36 -22 44 -66q89 -415 228 -739q8 31 19 64.5t16.5 52t7.5 20.5q154 465 407 1014q16 39 56 53q18 6 37 6q23 0 43 -9q38 -17 52 -57q6 -18 7 -35q0 -22 -10 -44q-248 -539 -400 -993q0 -2 -10 -31 l-23 -78l-26 -86q-27 -84 -43 -131q-10 -31 -17 -47l-10 -21l-8 -16q-23 -33 -59 -41q-15 -4 -30 -4q-37 0 -67 26q-12 10 -20 23q-6 10 -14 27q-10 18 -25 57q-51 121 -55 131q-158 356 -256 817z" />
<glyph unicode="W" horiz-adv-x="1861" d="M76 1022q-4 15 -4 29q0 24 12 48q20 38 60 50q15 4 29 4q25 -1 49 -13q38 -20 50 -61l88 -293q23 -78 33 -106l21 -62q6 -14 14 -45l23 -84q6 -18 18 -69t20 -80l3 18q49 209 122 451q53 174 91 270q27 63 47 103q39 66 88 86q37 8 61.5 8t49 -16.5t35.5 -27.5t22 -24 q29 -39 53 -106q14 -43 29 -94q4 -16 8 -31l2 -10v-2l39 -109q18 -55 49 -123l41 -102q14 -31 54 -120t46 -105q6 35 39 236.5t47.5 279t50.5 225.5q35 150 76 266q14 41 52 59q21 10 43 11q17 -1 35 -7q40 -14 58 -52q11 -22 11 -43q0 -16 -6 -33q-39 -115 -72 -253.5 t-49.5 -224.5t-45 -271t-40.5 -249q-14 -80 -31 -151q-14 -63 -31 -103q-10 -29 -22 -47q-27 -41 -66 -57q-22 -8 -42 -8t-40 8q-39 14 -61 51q-14 27 -21 68q0 6 -1 20t-1 19q0 6 -2 10q-14 41 -36 92l-70 158l-76 172l-63 155q-37 94 -64 174q0 4 -2 9v2v2l-2 6 q-2 14 -6 26l-6 21q-33 -86 -74 -227q-70 -229 -119 -441q-2 -4 -3 -12t-3 -20.5t-4 -22.5q-10 -57 -23 -96q-18 -66 -47 -107q-49 -72 -123 -86q-13 -3 -25 -3q-28 0 -50 12q-34 18 -49 51q-16 29 -19 67q0 6 -1 19.5t-1 17.5v6l-22 62q-18 45 -27 75l-25 90q-14 59 -16 74 q-16 57 -23.5 85t-12.5 41t-19 56l-35 107z" />
<glyph unicode="X" horiz-adv-x="1312" d="M104 155q-1 8 -1 15q0 33 20 59q176 233 381 547q-129 184 -203 332q-10 21 -10 44q0 16 5 33q13 39 51 59q22 12 46 12q16 0 32 -6q40 -14 60 -52q53 -109 142 -237q184 283 305 446q24 35 66 42q9 2 18 2q31 -1 58 -21q34 -26 41 -67q1 -9 1 -17q0 -32 -20 -58 q-123 -170 -342 -506l133 -184l135 -205q94 -145 149 -221q21 -26 21 -58q0 -8 -1 -17q-7 -41 -41 -67q-27 -20 -58 -21q-9 0 -18 2q-42 7 -66 42q-55 76 -152 221q-86 133 -137 205l-86 121q-201 -303 -346 -494q-27 -35 -69 -40q-7 -1 -13 -1q-35 0 -63 22q-32 26 -38 68z " />
<glyph unicode="Y" horiz-adv-x="1271" d="M96 1410q13 40 50 60q23 11 46 11q16 0 32 -5q40 -14 61 -51q188 -375 413 -649q123 285 254 670q12 41 50 60q22 10 45 10q17 0 34 -6q41 -13 59 -51q11 -22 11 -44q0 -17 -6 -35q-137 -408 -287.5 -748.5t-347.5 -629.5q-23 -35 -65 -43q-11 -2 -21 -2q-30 0 -56 17 q-34 24 -42 66q-3 11 -3 21q0 30 19 56q143 213 272 479q-39 6 -63 35q-244 297 -451 700q-10 22 -10 45q0 17 6 34z" />
<glyph unicode="Z" horiz-adv-x="1449" d="M6 156q8 37 33 82q35 55 106 137l74 80l72 69l35 35l508 522l151 152q-55 -6 -141 -19.5t-105 -15.5q-225 -23 -473 -41h-6q-40 -1 -70 25q-32 28 -35 71v8q1 38 25 68q28 33 70 37q246 16 469 41q16 2 107.5 15.5t150.5 19.5q96 12 158 12q43 0 71 -6q51 -8 82 -33 q41 -32 41 -80q0 -10 -2 -20q-2 -14 -10 -31q-4 -8 -10 -16q-4 -8 -15 -17q-10 -14 -32 -39l-103 -102l-72 -74l-67 -65l-33 -33l-508 -522l-35 -33l-69 -70q-39 -41 -72 -77l-25 -29l43 4q23 2 38.5 4t17.5 2q57 4 235 22.5t299 27.5t234 12q43 0 74.5 -30t31.5 -73 t-29.5 -74.5t-72.5 -31.5q-115 -2 -232.5 -11.5t-287.5 -25.5l-232 -25q-2 0 -24 -2l-56 -6q-31 -2 -57 -4q-57 -4 -94 -4q-27 0 -43 2q-49 6 -78 35q-40 38 -40 95q0 15 3 32z" />
<glyph unicode="[" horiz-adv-x="628" d="M82 -285q0 6 2 11q6 250 8 505.5t0 643t-2 503.5q-4 12 -6 25q0 27 17.5 45t43.5 20q25 0 53.5 1t37 1t20.5 1.5t22.5 0t23.5 -1.5t44 -2t64 -2q27 -2 44 -21.5t16 -45t-20 -43t-44 -17.5q-154 6 -193 7q0 -102 2 -473t1 -609.5t-7 -472.5l53 -4q27 -2 30 -3t19 -1h21 q4 0 32.5 1t57.5 1q35 2 60.5 -22.5t26.5 -59.5t-23.5 -60.5t-59.5 -25.5q-25 0 -54.5 -1t-35.5 -1h-21q-14 0 -24 1t-23.5 1t-43 3t-64.5 5q-12 0 -23 4q-25 2 -40 20.5t-15 43.5v6v16z" />
<glyph unicode="\" horiz-adv-x="745" d="M-61 1343q-8 25 2 48.5t33.5 32t47 -1.5t31.5 -33q244 -653 565 -1309q10 -23 2 -46.5t-30.5 -34.5t-46 -3t-35.5 31q-324 659 -569 1316z" />
<glyph unicode="]" horiz-adv-x="536" d="M-12 -307q2 35 28.5 57.5t61.5 20.5q49 -4 98 -7q41 -4 86 -2h23q20 526 -4 1110q-4 98 4 265q6 162 8 204l-107 5l-112 -5q-27 0 -45.5 17.5t-19.5 44.5t16.5 45t44.5 20q25 0 53.5 1t36.5 1t20.5 1.5t22.5 0t23.5 -1.5t44 -2t63.5 -2q18 -2 33 -12q23 -4 36 -20.5 t13 -38.5q0 -68 -8 -265q-8 -176 -5 -253q25 -604 5 -1164q6 -16 6 -32q2 -35 -22.5 -61t-59.5 -26q-25 0 -54.5 -1t-35.5 -1h-21q-14 0 -24.5 1t-23.5 1t-43 3.5t-64.5 5.5t-57 28.5t-20.5 61.5z" />
<glyph unicode="^" horiz-adv-x="987" d="M90 611q-8 23 2 46q12 31 47 93q29 53 41 81q14 35 49 129.5t65 162t64 130.5q4 8 39 99l23 63l10 21q2 4 3 8t3 6q2 4 6 8q4 6 11 10q16 12 36 13q31 0 54 -25q6 -10 14 -22q12 -18 27 -52q23 -51 57 -147q20 -51 54 -145.5t42 -114.5q10 -29 40 -94.5t51.5 -119.5 t35.5 -104q6 -25 -6 -46t-36.5 -28.5t-46 5t-30.5 37.5q-12 45 -31.5 93t-48 111.5t-42.5 100.5l-21 57l-37 103l-39 102l-30 78q-23 -61 -31 -74q-33 -61 -59.5 -123.5t-61.5 -152.5l-49 -134q-14 -37 -47 -96q-33 -57 -45 -82q-10 -25 -34 -33t-47.5 2.5t-31.5 33.5z" />
<glyph unicode="_" horiz-adv-x="1218" d="M-45 -182.5q0 16.5 12.5 29t28.5 12.5q539 0 1061 10q16 0 28.5 -11.5t12.5 -28.5t-11.5 -29.5t-29.5 -12.5q-522 -10 -1061 -10q-16 0 -28.5 12t-12.5 28.5z" />
<glyph unicode="`" horiz-adv-x="522" d="M24 1484.5q-1 28.5 18 49t48 21.5t49 -19q174 -166 246 -250q20 -23 18 -50.5t-24.5 -47t-50 -17t-45.5 24.5q-70 78 -238 242q-20 18 -21 46.5z" />
<glyph unicode="a" horiz-adv-x="1343" d="M14 490q4 76 23 153q33 127 103.5 237.5t187 189.5t252.5 85h16q81 0 170 -35q29 33 72 33t73.5 -28.5t30.5 -71.5q0 -31 8 -285q6 -203 6 -329v-58q-2 -59 -2 -143v-21q4 -4 7.5 -11l5.5 -11v-2q10 2 19 7t16.5 11t26 18.5t34.5 24.5q26 17 55 17q11 -1 22 -3 q42 -8 66 -43q17 -26 17 -55q-1 -11 -3 -22q-8 -42 -42 -66q-4 -2 -25 -16l-37 -25q-16 -12 -39.5 -24.5t-46.5 -20.5q-36 -11 -71 -11q-87 0 -171 68q-16 12 -26 31q-27 -25 -55 -43q-103 -68 -222 -68q-67 0 -139 21q-92 27 -158 80q-68 53 -106 118q-36 66 -54 144 q-14 63 -15 126q0 14 1 28zM236 592q-18 -69 -19 -130q0 -69 24 -127q44 -110 162 -145q41 -13 79 -12q61 0 110 33q66 43 160 178v38q0 140 -11 482q-43 18 -59 24.5t-42 12.5t-52 4q-117 -4 -215.5 -106.5t-136.5 -251.5z" />
<glyph unicode="b" horiz-adv-x="1140" d="M25 1001q2 268 24 500q4 43 37 69q29 23 65 24q5 0 11 -1q44 -5 70 -37q23 -28 23 -64q0 -5 -1 -11q-25 -260 -27 -514q12 12 25 20q109 80 293 86h20q191 -1 303 -109q118 -114 146 -290q7 -49 7 -98q1 -106 -33 -216q-50 -160 -161 -258q-63 -54 -155 -78 q-85 -23 -160 -22h-12q-123 4 -244 72v-2v-6q0 -40 -26 -69q-28 -32 -71 -34h-5q-39 1 -69 27q-32 28 -34 69q-16 340 -22 494q-5 117 -5 277q0 80 1 171zM229 676q4 -156 15 -363q12 -2 22 -8l62 -35q35 -20 50 -28.5t37.5 -17.5t42 -13t46.5 -4h12q46 -1 94 13 q56 16 82 38q66 57 100 167q24 75 24 150q0 35 -5 69q-15 108 -79 168q-60 56 -165 56h-14q-123 -4 -178 -45q-20 -16 -38 -33.5t-42.5 -47t-48.5 -54.5z" />
<glyph unicode="c" horiz-adv-x="1085" d="M18 475q0 76 11 150q14 96 55 183t104.5 160.5t157.5 114.5q82 36 178 35h29q137 -8 201 -45q25 -16 63 -53l74 -66q33 -26 37 -68q1 -5 1 -11q-1 -35 -25 -64q-28 -33 -69 -37h-10q-36 0 -65 25q-31 25 -80 69q-29 25 -35 31q-18 10 -104 14h-15q-108 0 -187 -83 q-85 -90 -109 -238q-8 -48 -8 -92q0 -94 34 -170q51 -114 156 -144q54 -15 99 -15q14 0 27 1q56 6 115 45q16 10 27.5 21.5t24 32t18.5 33.5t22 48l23 58q18 37 58 52q18 7 36 7q21 1 42 -9q38 -18 54 -58q7 -19 7 -38q0 -20 -9 -40q-4 -6 -20 -46t-27.5 -61.5t-33 -57.5 t-49 -63.5t-62.5 -50.5q-120 -78 -257 -78q-74 0 -153 23q-84 25 -148.5 76t-102 115.5t-61.5 141t-24 152.5z" />
<glyph unicode="d" horiz-adv-x="1112" d="M-10 467q4 137 54 272t130 226q80 86 240 108q47 7 89 7q95 0 165 -36q37 -20 75 -53q10 291 43 535q6 40 40 66q28 21 62 22q7 0 14 -1q42 -5 68 -39q22 -29 22 -66q0 -6 -1 -11q-12 -84 -21 -177t-14.5 -167t-8.5 -183.5t-4 -167.5q0 -29 -1 -75q0 -47 1 -109 q1 -124 1 -168t3 -186.5t3 -175.5q0 -43 -28.5 -73.5t-71.5 -30.5t-74 28.5t-31 71.5v10q-59 -47 -141 -80q-86 -33 -174 -33q-76 0 -154 25q-104 35 -172 113t-92 164q-23 80 -22 169v15zM195 465v-11q0 -203 147 -251q45 -16 90 -16q50 0 98 20q29 10 48.5 20.5t39 26.5 t29.5 29l41 41l51 55q-2 203 -2 346q-14 6 -26 16q-4 2 -80 76q-33 33 -58 43q-27 15 -73 15q-26 0 -58 -5q-86 -12 -116 -45q-53 -59 -91 -159.5t-40 -200.5z" />
<glyph unicode="e" horiz-adv-x="1128" d="M22 486q4 76 23 153q33 127 103.5 237.5t187.5 189.5t252 85q12 1 23 1q23 0 45 -3q32 -4 66 -14.5t53.5 -17.5t53 -22.5t41.5 -19.5q40 -16 56 -55h4q40 -10 62 -46q16 -26 16 -56q0 -11 -2 -23q-2 -4 -5 -16q-4 -31 -4 -33q-8 -57 -32 -96q-86 -129 -398 -220 q-109 -33 -342 -84q4 -96 51.5 -164.5t135.5 -95.5q61 -19 89 -19q6 0 11 1q16 2 94 37q88 41 105 53q10 8 32 31l74 65q29 27 68 27h5q42 -2 70 -34q27 -30 27 -69v-5q-2 -42 -35 -70l-67 -64q-31 -31 -49 -43q-33 -25 -144 -76q-109 -49 -153 -55q-16 -2 -33 -2 q-62 0 -152 27q-92 27 -158.5 80t-104.5 118q-37 66 -55 144q-14 62 -14 123q-1 15 0 31zM268 666q143 31 242 61q240 70 283 137l2 13q2 4 2 8q-2 0 -4 2l-52 22l-43 17q-12 6 -31.5 12t-36 7t-34.5 1q-100 -4 -189.5 -82t-138.5 -198z" />
<glyph unicode="f" horiz-adv-x="913" d="M3 946q-1 7 -1 13q0 35 22 64q27 34 70 40l60 6q18 111 45 211q31 123 67 190q85 156 232 156h4q72 0 151 -51q16 -10 32.5 -22.5t27.5 -18.5l22 -12q39 -18 53 -60q5 -17 5 -34q0 -23 -11 -44q-18 -38 -59 -52q-18 -5 -34 -5q-23 0 -44 10q-6 2 -102 64q-31 20 -45 20 q-25 0 -54 -49q-23 -45 -49 -141q-16 -70 -30 -144h127q45 0 75.5 -29.5t30.5 -73.5t-29.5 -74.5t-72.5 -30.5h-107h-53q-8 -92 -13.5 -203t-7.5 -187.5t-3 -212t-1 -198.5q0 -41 -30.5 -71t-72.5 -30t-72 31t-30 74q0 59 1.5 183t2.5 202t6 187.5t13 201.5l-10 -2 q-6 -1 -11 -1q-36 0 -66 23q-34 27 -39 70z" />
<glyph unicode="g" horiz-adv-x="1077" d="M45 616q18 125 73.5 237t145.5 175q95 69 201 69q102 0 213 -63q6 1 12 1q34 0 60 -21q32 -23 41 -62l2 -10q14 -27 12 -55q6 -29 30.5 -130.5t45.5 -191.5l34 -172q35 -197 41 -332q1 -19 1 -38q0 -156 -46 -240q-57 -100 -148 -171t-196 -93q-43 -9 -85 -9 q-73 0 -142 28q-109 44 -184 159q-16 23 -30.5 56.5t-27 68.5t-14.5 39q-8 21 -8 42q0 19 7 38q15 39 55 55q21 8 41 8q19 0 38 -7q39 -15 55 -54q12 -31 23 -58q8 -29 15 -45t18 -33q62 -93 152 -93q21 0 44 5q59 12 115.5 56.5t91.5 109.5q22 37 22 137q0 15 -1 33 q-2 55 -11 125q-68 -53 -114 -76q-126 -61 -234 -61q-24 0 -47 3q-127 17 -209 120q-66 84 -87 205q-12 69 -12 138q0 53 7 107zM248 588q-6 -42 -6 -82q0 -46 8 -89q14 -79 49 -124q36 -45 97 -45q59 0 141 41q23 10 43 25.5t49.5 40t58.5 44.5q6 5 14 9q-8 43 -96 430 q-76 53 -139 53q-46 0 -84 -29q-47 -35 -84 -108.5t-51 -165.5z" />
<glyph unicode="h" horiz-adv-x="1056" d="M59 565q0 125 1 187.5t4.5 174t9.5 187.5l14 176q8 96 21 185q5 41 39 67q28 21 61 20h15q42 -6 68 -40q22 -29 22 -65q0 -6 -1 -11q-33 -229 -43 -500q134 135 286 135h17q229 -12 312 -211q43 -100 47 -313q4 -184 4 -313.5t-4 -204.5q-2 -41 -34 -69q-30 -27 -69 -27 h-5q-42 1 -70 33q-27 29 -27 69v6q4 82 4 207.5t-4 294.5q-4 174 -31 240q-16 39 -45.5 59t-89.5 25h-6q-44 0 -85 -29q-44 -31 -105 -103l-25 -32q-10 -16 -25.5 -44t-29.5 -51q-9 -14 -21 -22q0 -98 8 -559q0 -43 -28.5 -74t-71.5 -31t-73.5 29t-30.5 72q0 37 -2 176 l-5 184q-2 47 -2 172z" />
<glyph unicode="i" horiz-adv-x="403" d="M70 975q0 41 30.5 70.5t72.5 29.5t71.5 -30.5t29.5 -73.5q-1 -39 -1 -89q0 -136 4.5 -349t4.5 -348q0 -49 -1 -87q0 -43 -31 -72.5t-73 -29.5t-71.5 30.5t-29.5 71.5q1 41 1 95q0 133 -4 341t-4 344q0 54 1 97zM76 1339l2 109q0 43 30.5 71.5t73.5 28.5t72 -30.5 t29 -73.5l-2 -109q0 -43 -31 -71.5t-74 -28.5t-71.5 30.5t-28.5 73.5z" />
<glyph unicode="j" horiz-adv-x="417" d="M-122 -446q-3 11 -3 23q0 27 16 52q70 115 114 252t60.5 274.5t23.5 292.5q4 98 4 193q0 54 -1 107q-2 74 -2 150t2 155q0 41 31 70.5t73 29.5t71.5 -30.5t29.5 -73.5q-1 -49 -1 -138v-99q1 -163 1 -264.5t-12.5 -259t-35 -273t-69.5 -250t-117 -244.5q-23 -35 -63 -44 q-12 -3 -23 -3q-28 0 -54 16q-36 23 -45 64zM76 1339l2 109q0 43 30.5 71.5t73.5 28.5t72 -30.5t29 -73.5l-2 -109q0 -43 -31 -71.5t-74 -28.5t-71.5 30.5t-28.5 73.5z" />
<glyph unicode="k" horiz-adv-x="999" d="M45 397v172t1 187.5t4 174t9 187.5l15 176q8 96 20 185q6 41 40 67q28 21 62 21q7 0 14 -1q42 -5 68 -39q22 -29 22 -66q0 -6 -1 -11q-49 -338 -49 -801q250 242 377 412q25 35 67 40q7 1 13 1q34 0 63 -20q35 -24 40 -67q1 -7 1 -14q0 -34 -20 -63q-100 -133 -244 -283 q18 -14 28 -34q111 -231 289 -521q14 -24 14 -51q0 -11 -3 -25q-9 -42 -45 -64q-25 -15 -53 -15q-12 0 -24 3q-42 9 -65 46q-180 293 -287 518l-71 -70q-30 -28 -70 -28h-8q0 -72 3 -209t3 -164q0 -43 -28.5 -73.5t-71.5 -30.5t-74 28.5t-31 71.5q0 37 -4 176z" />
<glyph unicode="l" horiz-adv-x="434" d="M72 961q0 276 22 507q4 43 37 70q28 23 64 23q6 -1 12 -1q43 -4 69 -36q23 -28 24 -65q0 -5 -1 -11q-23 -238 -23 -490q0 -270 8.5 -423.5t28.5 -495.5v-6q1 -39 -25 -69q-28 -32 -71 -34h-6q-39 0 -69 26q-32 28 -33 71q-20 346 -28.5 498.5t-8.5 435.5z" />
<glyph unicode="m" horiz-adv-x="1564" d="M62 754q0 7 -1 13q0 117 9 214q4 43 36 71q28 24 63 24q5 0 11 -1q61 -6 86 -63q90 59 203 71q25 3 49 3q67 0 132 -20q89 -28 149 -99l4 -6q47 43 96 69q89 49 193 49q66 0 139 -20q115 -31 164 -121q10 -20 18 -45t11 -49.5t4.5 -41t1.5 -36.5v-27q4 -94 6 -200.5 t4 -236.5t4 -202q0 -43 -29 -73.5t-72 -30.5t-73.5 28.5t-30.5 71.5q-2 72 -3 201t-4 234.5t-7 199.5q0 16 -1 35.5t-1 29t-1 18.5t-2 14.5t-6 11.5q-8 14 -36 22q-45 12 -85 12q-53 0 -96 -22q-55 -31 -141 -129q6 -119 8 -346t2 -266q0 -43 -28.5 -74t-71.5 -31 t-73.5 28.5t-30.5 71.5q-2 74 -2.5 209.5t-2.5 245t-8 207.5q-4 61 -10 68q-38 47 -117 47q-14 0 -30 -2q-109 -12 -154 -78q-12 -20 -22.5 -41t-23.5 -54.5t-26 -60.5q2 -94 11.5 -276.5t11.5 -270.5v-5q0 -39 -28 -67q-30 -30 -72 -32h-5q-40 0 -68 28q-30 30 -32 72 q-2 76 -8 211l-10 230q-4 92 -4 217z" />
<glyph unicode="n" horiz-adv-x="1060" d="M66 680l4 35q1 81 1 145t-1 111q0 43 29.5 73.5t71.5 30.5t72.5 -29.5t30.5 -70.5v-17q39 37 68 54q66 39 154 55q44 8 86.5 8t83.5 -8q98 -16 169.5 -81.5t82.5 -178.5q8 -100 12 -216t6 -258.5t4 -217.5v-5q0 -40 -28 -69q-30 -31 -71 -33h-5q-39 0 -68 28 q-31 30 -33 70q-2 78 -4 216.5t-5 252t-13 216.5q-4 61 -84 75q-21 4 -44 4q-25 0 -53 -5q-52 -9 -88 -29q-27 -16 -100 -103l-70 -84v-93q0 -292 11 -462v-5q0 -39 -26 -69q-28 -32 -70 -34h-6q-39 0 -69 26q-32 28 -34 70q-10 169 -10 462v101q-6 0 -4 35z" />
<glyph unicode="o" horiz-adv-x="1095" d="M10 506q-1 14 -1 28q-1 78 19 155q22 91 72 172t137 137.5t201 70.5q20 3 43 3q40 0 90 -9q41 0 80 -8q190 -43 289 -307q35 -97 34 -197q0 -23 -1 -47q-10 -125 -68 -236q-61 -119 -168 -190q-109 -74 -248 -76q-111 0 -201.5 44t-148 118t-90.5 162t-39 180zM213 518 q8 -137 84 -225q74 -86 187 -86h5q156 0 236 155q39 72 46 157q1 18 1 35q0 64 -20 120q-51 135 -115 170q-18 2 -82 14q-72 -4 -205 -61q-24 -13 -49 -9q-89 -91 -89 -239q0 -15 1 -31z" />
<glyph unicode="p" horiz-adv-x="1161" d="M66 231q-16 26 -16 52q0 28 18 57q0 123 4 258v70q0 72 2 120q2 78 8 127q4 33 12 58q16 55 62 78q85 46 204 46q98 0 220 -32q115 -29 211 -82q100 -51 155 -121q66 -80 90 -241q5 -33 5 -65q0 -42 -9 -81q-18 -68 -59 -117t-88 -83.5t-107 -61.5q-158 -74 -411 -107 q-6 0 -19 -2q-23 -4 -33 -6q-23 -4 -43 -2q2 -299 23 -569v-6q0 -39 -25 -69q-28 -32 -70 -35h-8q-37 0 -66 25q-32 28 -36 69q-24 319 -24 690v30zM272 311q6 -8 11 -10h4q6 0 22 4q20 4 33 6q221 27 350 86q146 68 146 168q0 11 -2 23q-18 109 -50 147q-29 35 -98.5 72 t-159.5 59q-122 32 -190 32q-33 0 -53 -7v-4q-6 -37 -9 -105v-118v-70q-4 -154 -4 -283z" />
<glyph unicode="q" horiz-adv-x="1118" d="M25 451q-1 16 -1 31q0 110 37 218q43 127 121 220q4 4 13 16l18 27q39 49 86 67q97 36 205 36q20 0 41 -1q59 -4 162 -70l65 -45l4 41q6 43 40 69q28 21 62 21q7 0 14 -1q42 -5 68 -38q22 -29 22 -64q0 -5 -1 -11q-27 -215 -40 -355.5t-21 -339.5q-3 -62 -3 -122 q0 -130 13 -246q18 -170 63 -312q5 -16 5 -31q0 -24 -12 -47q-19 -36 -60 -50q-17 -5 -33 -5q-23 0 -45 11q-37 20 -51 61q-76 242 -84 580q-25 -20 -58 -39q-82 -51 -163 -56q-12 -1 -25 -1q-68 0 -135 24q-150 45 -225.5 157.5t-81.5 254.5zM229 461q8 -180 160 -225 q56 -17 86 -17q3 0 5 1q30 1 69 24l37 26q14 10 28.5 27.5t22.5 30.5l31 43q20 31 34 53q8 10 19 20q8 131 27 291q-29 3 -52 19l-24 16q-18 12 -38 26.5t-38 26.5l-68 37q-15 1 -30 1q-63 0 -119 -21l-4 -4q-4 -4 -15 -19q-12 -18 -22 -29q-51 -63 -82 -153 q-27 -80 -27 -155v-19z" />
<glyph unicode="r" horiz-adv-x="815" d="M75 544q-1 173 -1 286q0 150 2 192q0 41 30.5 70.5t73.5 29.5q41 0 71 -29.5t30 -72.5q80 55 194 67q7 1 14 0q61 0 117 -47l19 -16q8 -6 10 -8l4 -4q2 -2 6 -4q37 -23 46 -65q3 -12 3 -24q0 -28 -16 -54q-22 -36 -63 -45q-13 -3 -25 -3q-27 0 -51 14q-21 12 -54 43 q-43 -43 -80.5 -66.5t-63.5 -45t-62 -74.5q0 -84 2 -296t2 -326q0 -43 -30 -73t-73 -30t-72.5 30t-29.5 73q0 74 -3 478zM469 885q-4 -4 6 -8q4 -2 8 0q-2 2 -6 4l-2 2q-4 4 -6 2z" />
<glyph unicode="s" horiz-adv-x="1024" d="M30 368q4 42 34 70q28 25 66 24h8q42 -3 71 -34l61 -74q35 -43 49.5 -58t40 -36.5t60.5 -42.5q55 -28 106 -27q18 0 34 2q66 12 106 69q32 44 32 101q0 15 -2 31q-18 14 -63 31q-23 8 -234 68q-172 47 -254 102q-117 79 -117 195q0 36 11 75q39 139 155 213 q111 70 238 70h14q134 -4 238 -76q25 -16 53.5 -40.5t57 -52.5t36.5 -34q33 -29 35 -72v-6q0 -38 -26 -68q-28 -32 -70 -34q-4 0 -7 -1q-38 0 -67 25l-47 46q-25 25 -42 40t-38 29q-66 39 -134 40h-3q-66 0 -122 -37q-58 -38 -74 -99q-4 -10 0 -20.5t24 -24.5 q51 -35 193 -74q233 -63 252 -72q172 -63 192 -180q7 -41 7 -80q0 -59 -16 -113q-28 -89 -90 -145q-64 -58 -142 -88q-64 -25 -135 -24q-15 0 -33 1q-90 7 -171 54q-47 27 -87 60.5t-60 55t-59 68.5t-58 68q-24 29 -24 65q1 5 1 10z" />
<glyph unicode="t" horiz-adv-x="708" d="M-28 1025q3 41 35 69q30 26 69 26h6q6 0 14 -2q10 135 27 275q6 43 39 69q28 21 62 21q7 0 14 -1q42 -5 68 -38q22 -29 23 -65q0 -6 -1 -11q-16 -129 -27 -254q82 2 176 10h6q39 0 69 -24q32 -26 35 -70v-9q1 -37 -23 -65q-26 -32 -70 -36q-109 -8 -205 -11 q-4 -111 -4 -217q0 -177 12 -340q8 -109 22 -151q12 -35 25 -39q4 2 6 4q61 47 66 51q26 14 53 14q12 0 25 -3q40 -9 62 -46q15 -26 15 -53q-1 -12 -3 -25q-10 -41 -46 -63q-6 -2 -10 -6t-12 -10l-23 -19q-59 -47 -121 -49h-7q-87 0 -140 50q-55 52 -82 126q-23 68 -35 203 q-13 165 -13 345q0 114 5 234h-18q-41 4 -69 36q-25 29 -25 66v8z" />
<glyph unicode="u" horiz-adv-x="1071" d="M66 507q0 77 4 231.5t4 230.5q0 43 30.5 72.5t72.5 29.5t72 -30.5t30 -71.5q0 -78 -4.5 -228.5t-4.5 -226.5t4 -229q2 -35 20.5 -53.5t57.5 -22.5q15 -2 31 -2q33 0 67 8q52 12 85 37q55 39 198 176q-3 101 -3 218q0 156 5 339q0 43 31 71.5t74 28.5t71.5 -30.5 t28.5 -73.5q-4 -187 -5 -351q0 -301 15 -526v-6q0 -38 -26 -68q-28 -32 -69 -34h-6q-39 0 -69 26q-32 28 -35 70l-4 66q-49 -45 -84 -70q-67 -50 -157 -72q-58 -15 -115 -14q-30 0 -59 4q-104 12 -177 81t-79 189q-4 154 -4 231z" />
<glyph unicode="v" horiz-adv-x="1026" d="M4 848q-2 11 -2 22q0 29 16 56q22 37 62 46q12 3 24 3q28 1 54 -15q37 -22 47 -63q16 -70 127 -381q53 -145 90 -235l18 -50l19 45q45 109 100 271q125 362 143 448q8 41 44 65q27 18 56 17q10 0 21 -2q41 -8 65 -44q18 -27 17 -56q0 -10 -2 -21q-20 -100 -151 -475 q-59 -170 -103 -278q-25 -61 -43 -99q-10 -23 -18 -36q-20 -33 -49 -50q-41 -22 -88 -22q-15 0 -31 2q-64 10 -107 49q-14 14 -28 39q-8 12 -17 33q-16 33 -37 88q-39 94 -92 241q-115 322 -135 402z" />
<glyph unicode="w" horiz-adv-x="1484" d="M14 856q-2 10 -2 20q0 29 18 56q24 35 65 43q11 2 21 2q30 1 56 -17q35 -24 43 -67q41 -213 104 -414q31 -96 62 -164q6 12 10 29l47 160l49 172q16 61 38 151.5t34 163.5q6 43 40 69q27 20 58 20q9 0 18 -2q41 -6 67 -40q19 -26 20 -56q0 -9 -2 -19q-2 -27 -8 -54l4 -12 q45 -215 116 -416q41 -115 82 -186l4 10q12 27 17 43l51 156l59 180q14 49 38 143.5t38 167.5q6 43 41 67q27 19 59 20q9 0 18 -2q43 -8 67 -42q18 -26 18 -55q0 -10 -2 -20q-12 -82 -39 -183.5t-43 -155t-60 -186.5t-49 -151q-10 -27 -26 -66q-18 -39 -21 -47q0 -4 -2 -8 v-14q-2 -16 -4 -23q-6 -41 -22 -66q-20 -33 -54 -47q-22 -9 -46 -9q-14 0 -29 3q-96 25 -179 162q-55 90 -108 240l-31 88l-61 -213l-21 -62q-2 -6 -6 -16l-8 -19l-4 -16q-2 -2 -2 -8q-4 -37 -4 -39q-6 -39 -23 -66q-20 -33 -55 -48q-19 -8 -41 -8q-17 0 -35 5 q-92 25 -168 164q-47 88 -96 244q-70 219 -111 438z" />
<glyph unicode="x" horiz-adv-x="1046" d="M20 51q-4 14 -4 27q0 26 15 51q98 174 274 420q-154 217 -244 418q-10 22 -10 43q1 18 7 36q14 40 53 56q22 10 43 10q18 0 36 -6q40 -14 56 -53q73 -158 188 -330q133 182 230 332q24 35 64 44q12 3 22 3q28 0 54 -16q36 -22 45 -64q3 -12 3 -23q0 -28 -16 -55 q-86 -135 -275 -395q145 -188 336 -385q29 -31 29 -74t-31 -71.5t-74 -28.5t-71 30q-174 182 -316 357q-141 -199 -227 -350q-20 -37 -62 -47q-15 -4 -29 -4q-24 0 -48 13q-36 21 -48 62z" />
<glyph unicode="y" horiz-adv-x="1030" d="M-3 996q13 40 51 60q23 11 46 11q16 0 32 -5q40 -13 60 -50q160 -317 342 -557l97 319l84 283q12 41 50 61q23 11 47 11q16 0 32 -5q41 -12 60 -50q12 -23 12 -48q0 -15 -5 -31l-69 -237l-80 -262q-31 -102 -88.5 -256t-113.5 -262.5t-142 -228.5t-187 -208 q-29 -27 -66 -27h-7q-41 3 -70 34q-27 30 -27 69v5q2 42 35 71q209 188 354 536q-240 293 -442 689q-10 23 -10 45q0 17 5 33z" />
<glyph unicode="z" horiz-adv-x="1316" d="M31 137q-2 29 8 56q2 6 8 14q4 6 8 14l21 27l63 74l191 213l319 348l-145 -25l-230 -39q-10 -2 -20 -2q-30 1 -56 19q-34 24 -41 66q-2 9 -2 18q-1 31 19 59q24 35 68 41l229 39q66 12 244 43l110 18l35 6q6 2 10 2q2 0 4 2h7h4h6q8 0 16 -2q45 -8 68 -47q19 -28 19 -62 q0 -17 -5 -36q-6 -29 -24 -57q-20 -37 -64 -84q-29 -31 -67 -68q-8 -6 -17 -14l-12 -12l-6 -7q-70 -70 -318 -344l-170 -190q4 0 6 2q434 57 758 119q10 2 20 2q30 0 56 -19q35 -23 43 -65q2 -11 2 -20q0 -30 -18 -56q-24 -35 -66 -43q-338 -66 -766 -123q-8 0 -21.5 -3 t-46 -7t-55.5 -4q-63 0 -106 24q-74 39 -86 123z" />
<glyph unicode="{" horiz-adv-x="729" d="M-61 547q0 57 51 94q25 18 78 35q88 29 98 43q39 55 39 162q0 29 -6 104.5t-9 112.5q-2 143 60 227q76 109 266 145q23 4 42.5 -9t23.5 -35.5t-9 -42t-36 -23.5q-143 -29 -195 -100q-39 -53 -37 -160q0 -29 6 -104.5t6 -114.5q2 -143 -61 -228q-8 -14 -22.5 -25.5 t-25.5 -18.5t-29.5 -14t-26.5 -9l-29 -11q-18 -6 -21 -6q-35 -12 -47 -20l-2 -2q0 -12 53 -35q2 -2 25 -11t34 -14.5t30.5 -16.5t35 -23.5t25.5 -26.5q68 -90 70 -232q0 -39 -4 -110q-6 -72 -7 -103q0 -98 39 -151q55 -72 211 -107q23 -6 35 -25.5t7 -42t-24.5 -34.5 t-41.5 -8q-195 43 -275 147q-66 84 -63 223q0 33 6 109q4 66 4 100q-2 104 -47 164l-8 8q-4 4 -10.5 8.5t-11.5 7.5t-15 7t-16.5 7t-20.5 9t-23 11l-36 18q-16 6 -39 23.5t-35 42t-12 55.5z" />
<glyph unicode="|" horiz-adv-x="358" d="M104 -135q8 256 10.5 523t0.5 661.5t-2 523.5q0 25 18.5 43t43 18t43 -18t18.5 -43q0 -127 2 -524.5t0 -664.5t-11 -523q0 -25 -19.5 -42.5t-44 -17.5t-42 19.5t-17.5 44.5z" />
<glyph unicode="}" horiz-adv-x="763" d="M-16.5 1439.5q6.5 22.5 27 35t42.5 6.5q195 -49 273 -156q61 -84 59 -221q-2 -35 -8 -109q-6 -66 -6 -100q0 -102 45 -162q4 -6 8 -9t10 -7t11.5 -7t15.5 -8.5t17 -8.5t21.5 -8t22.5 -9q23 -10 38 -18.5t38 -26t35 -42t12 -54.5q-2 -59 -51 -95q-25 -16 -80 -34 q-90 -29 -100 -44q-41 -55 -41 -157q0 -29 6 -104.5t8 -110.5q2 -143 -57 -228q-80 -109 -271 -147q-25 -4 -44 8t-23 36t8 43.5t35 23.5q150 31 203 102q39 55 36 160q-2 20 -8 102q-6 74 -6 113q-2 143 64 229q10 12 23 23.5t25.5 18.5t31 14.5t27.5 10.5t28.5 8t21.5 7 q35 10 47 18l2 3q0 4 -1 6t-14 11t-38 19q-2 0 -26 11l-33 16q-12 4 -31.5 15.5t-35 23.5t-25.5 27q-68 92 -68 231q0 39 6 109.5t6 101.5q4 98 -37 151q-53 74 -208 113q-23 6 -35.5 26.5t-6 43z" />
<glyph unicode="~" horiz-adv-x="1357" d="M-20.5 400q-8.5 42 14.5 77q170 254 352 248q25 -2 48.5 -6t47.5 -14l41 -17q16 -8 43 -25.5t35 -23.5l33 -25q27 -18 29 -18q113 -82 174 -80q106 6 256 197q27 35 69.5 39t76.5 -21.5t38 -69t-20 -75.5q-209 -264 -410 -275q-59 -4 -124 17.5t-98.5 43t-82.5 56.5 q-84 59 -105 72q-31 18 -57 18q-70 2 -174 -156q-25 -35 -67 -43t-76.5 15.5t-43 65.5z" />
<glyph unicode="&#xa1;" horiz-adv-x="528" d="M143 -487q4 104 15.5 280t16.5 273.5t9 270.5t-6 271q-2 43 25.5 75t70.5 34t75 -25.5t34 -70.5q10 -102 6 -282.5t-9 -282t-15 -277.5q-10 -147 -17 -275q-2 -43 -33.5 -71.5t-73.5 -26.5t-71 34t-27 73zM176 1081q6 53 10 82q2 18 7 29q2 10 6 18q10 25 28 41 q27 25 64 25q41 2 71 -23q20 -18 31 -47q4 -12 8 -30q2 -16 5 -48q0 -23 1 -54.5t1 -55.5v-47v-25q0 -43 -29 -73.5t-72 -30.5t-73.5 28.5t-30.5 71.5v10v23v26q-31 35 -27 80z" />
<glyph unicode="&#xa2;" horiz-adv-x="1128" d="M6 518q-4 98 25 187q25 94 77 179t124.5 152.5t174 99t214.5 13.5q2 0 30 -4l39 106q8 25 31.5 35t47.5 2t34 -31.5t2 -46.5l-33 -92q29 -12 53 -26q43 -29 84 -88l25 -37q10 -16 16 -25q27 -33 22 -75t-38 -68.5t-74.5 -21.5t-68.5 38q-14 16 -31 41l-21 35 q-16 23 -24 29q-6 4 -10 6q-125 -358 -236 -723q102 -10 180 24q23 10 40.5 19.5t34.5 25t28 25.5l36 39l43 45q31 31 73 31t73 -30t31 -72t-29 -72l-41 -41q-27 -31 -42 -45.5t-42 -37t-56.5 -41t-66.5 -34.5q-147 -63 -319 -35l-45 -156q-6 -25 -29 -37t-47.5 -5.5 t-36.5 29t-6 46.5l45 160q-98 45 -165 123t-92.5 167t-29.5 187zM225 409.5q33 -112.5 127 -169.5q109 358 230 708q-121 14 -217.5 -69.5t-135.5 -227.5q-37 -129 -4 -241.5z" />
<glyph unicode="&#xa3;" horiz-adv-x="1157" d="M-24.5 55.5q-0.5 30.5 18.5 53.5q6 16 16 30l49 66l43 61q27 37 41 62l33 57q18 35 26.5 62.5t14.5 58.5t5 61.5t-9 59.5q-2 10 -4 18q-82 2 -154 4q-25 0 -41 18.5t-16 43t18.5 41t42.5 16.5q41 -2 86 -2q-45 61 -67 100q-113 195 12 398q70 113 199 155.5t265 26.5 t252 -88t157 -195q14 -39 12 -92q0 -2 -2 -31v-20q2 -43 -28 -74t-72 -33t-72.5 28t-32.5 71v39l2 10v16v21q-18 53 -82.5 94t-157 51t-164 -14.5t-100.5 -71.5q-27 -43 -33 -78q-8 -35 -1.5 -57.5t24.5 -52.5q6 -12 31.5 -48t51.5 -77t44 -82h285q25 0 42 -17.5t17 -42 t-17.5 -42t-41.5 -17.5h-123h-125q33 -188 -90 -401q76 -2 217 -41q74 -20 107.5 -27.5t83.5 -10.5t86 11t73 47q27 23 61.5 21t57 -29t20.5 -61.5t-28 -57.5q-49 -43 -104.5 -66.5t-99.5 -30.5t-102.5 -1t-91.5 14l-88 23q-14 4 -20 6q-68 20 -110 27.5t-95 4.5t-100 -24 l-23 -31q-33 -45 -88 -41q-53 -18 -90 25q-20 25 -20.5 55.5z" />
<glyph unicode="&#xa4;" horiz-adv-x="1130" d="M52 286.5q-3 24.5 11 43.5q57 78 60 80q6 6 18 16q-57 117 -41 264q12 131 82 238q-4 6 -20.5 26.5t-22.5 29.5t-20.5 28.5t-20.5 31.5l-16 35q-8 20 -14.5 40t-10.5 40q-4 25 10.5 45.5t39 24.5t45 -10.5t24.5 -38.5q4 -29 17.5 -57.5t25.5 -45.5l41 -57q33 27 68 47 q-8 12 -9 27q0 25 16.5 43t41.5 18q6 0 30.5 2t39 2t40.5 -2q127 -16 242 -131q66 94 182 195q18 16 43 14t41.5 -20.5t14.5 -43t-21 -41.5q-119 -100 -180 -196q0 -2 -4 -4q55 -86 71.5 -175t-18.5 -186q-16 -35 -41 -69q6 -5 12 -11q12 -16 22.5 -28t13.5 -17.5t7 -9.5 l5 -4q4 -4 18 -14l53 -39q18 -14 21.5 -39t-11 -44.5t-39 -22.5t-45.5 12l-49 36l-28 23q-6 6 -60 72q-18 -18 -43 -39q-49 -41 -74.5 -59.5t-76.5 -41t-105 -26.5q-137 -10 -229 80l-2 -2q-2 -2 -5 -6.5t-14.5 -20.5t-29.5 -39q-14 -20 -39 -23.5t-44.5 11t-22.5 39z M217 678q-10 -113 31 -201q23 -4 35 -22q14 -18 12 -43q53 -51 135 -45q51 4 88 25.5t98 72.5q102 86 132 153q25 51 11 120t-61 139q-51 76 -123 120q-10 -2 -20 -2q-145 10 -234.5 -82t-103.5 -235z" />
<glyph unicode="&#xa5;" horiz-adv-x="1144" d="M-25.5 1414q15.5 40 55.5 57.5t80 2t58 -56.5q43 -100 182 -385l115 -231l8 -19q47 49 172 285q37 66 100 188l82 160q23 37 64 49.5t79 -9t50 -62.5t-8 -80q-20 -35 -83 -157t-100 -187l-6 -13h95q35 0 58 -23.5t23 -58t-23.5 -58t-57.5 -23.5q-145 0 -187 -2 q-68 -113 -110 -156l-11 -12q4 2 8 2q102 4 248 4q35 0 58.5 -23.5t23.5 -58.5t-23.5 -58.5t-58.5 -23.5q-141 0 -239 -4q-45 -2 -70 35q14 -369 16 -506q0 -43 -29.5 -75t-72.5 -32t-74.5 30t-31.5 73q-2 141 -17 483h-12q-141 0 -240 -4q-35 -2 -59.5 21.5t-26.5 57.5 t21.5 58.5t56.5 26.5q104 4 229 4l-38 72l-54 106q-23 0 -54.5 -2t-92.5 -2q-35 -2 -59.5 21.5t-26.5 57.5t21.5 58.5t56.5 26.5l75 4q-129 268 -170 360q-16 39 -0.5 79z" />
<glyph unicode="&#xa6;" horiz-adv-x="393" d="M94 657q-2 33 20.5 58.5t56.5 27.5t59.5 -20t27.5 -57q6 -106 6 -304q0 -203 4 -294q2 -35 -21.5 -59.5t-57 -26.5t-58.5 21.5t-27 55.5q-4 94 -4 303q0 193 -6 295zM104 942q-4 98 2 270q4 180 3 261q0 35 23.5 59t57 24t58 -23t24.5 -56q2 -49 -4 -269q-4 -168 0 -258 q2 -35 -21.5 -59.5t-57 -26.5t-58.5 21.5t-27 56.5z" />
<glyph unicode="&#xa7;" horiz-adv-x="1105" d="M63 590q-16 72 25 143q53 88 158 146q-121 82 -152 190q-18 68 0.5 129.5t63.5 104.5t98 71.5t113 44.5q82 16 167 16.5t173 -39.5t145 -114q10 -12 20.5 -32.5t17.5 -37t13 -33t6 -18.5q14 -31 3 -62.5t-41.5 -46t-62.5 -3t-46 42.5q-12 25 -18.5 44t-10.5 28.5 t-12 19.5q-47 59 -135 79.5t-178 -3.5q-90 -23 -129 -67t-27 -83q16 -61 125 -119q35 -18 82 -39q23 -4 41 -18l4 -2l143 -58q186 -78 260 -159q121 -133 49 -320q-18 -49 -65 -96l-33 -33l-20 -20q35 -45 49 -96q29 -111 12 -193q-12 -68 -72.5 -120t-134.5 -85 q-74 -31 -141 -41q-86 -12 -143 15q-39 20 -81 52t-86 70.5t-59 49.5q-27 23 -30.5 55.5t18 60t54 31.5t61.5 -16l69 -62q39 -35 67 -57.5t60 -36.5q10 -6 45 0q47 6 99 29q37 16 64.5 35.5t37.5 32t12 16.5q8 47 -12 123q-14 57 -115 118q-61 37 -243 119q-174 78 -234 131 q-57 51 -74 113zM223 629q2 -10 23 -29q43 -39 190 -104q203 -90 264 -129l19 -11q10 12 26 29l31 29q25 25 31 39q35 92 -19 151q-51 55 -202 119l-142 57l-4 2q-162 -47 -209 -131q-10 -16 -8 -22z" />
<glyph unicode="&#xa8;" horiz-adv-x="632" d="M63 1341.5q0 34.5 24 58t58.5 23.5t58 -23.5t23.5 -58t-23.5 -58t-58 -23.5t-58.5 23.5t-24 58zM348 1345.5q0 34.5 23.5 58t58.5 23.5t58.5 -23.5t23.5 -58t-23.5 -58t-58.5 -23.5t-58.5 23.5t-23.5 58z" />
<glyph unicode="&#xa9;" horiz-adv-x="1576" d="M-20.5 780q14.5 125 67.5 239t143 208q115 119 262.5 187.5t322.5 68.5t331 -86q-10 49 33 76q25 16 54.5 10t45.5 -33q82 -125 140.5 -293t74.5 -351t-39 -335q-23 -66 -74 -128t-91 -96t-103 -81q-154 -111 -333 -140.5t-354 32t-302 208.5q-104 119 -148.5 254 t-30 260zM133 629.5q27 -142.5 135 -269.5q100 -117 239.5 -166t284 -25t269.5 116q88 63 141 117.5t78 117.5q37 106 31 239.5t-43 266.5t-97 250q0 -2 -2 -4q-16 -27 -45.5 -33t-54.5 10q-127 80 -272.5 87t-273.5 -49t-227 -160.5t-144.5 -229.5t-18.5 -267.5zM322 731 q2 80 26.5 159t72.5 147.5t127 107.5t177 35q106 -8 152 -35q18 -12 49 -39q37 -33 57 -49q25 -20 28 -53t-17.5 -58.5t-53 -28.5t-59.5 17l-62 55q-18 16 -24 21q-12 8 -78 10q-102 6 -169 -77t-69 -216q-2 -127 58 -205q61 -76 170 -61q70 10 104.5 48t77.5 132 q12 31 43 43t60.5 -1t42 -44t-2.5 -59q-25 -57 -44 -92t-55 -79t-87 -70t-119 -34q-199 -27 -313 121q-96 121 -92 305z" />
<glyph unicode="&#xaa;" horiz-adv-x="874" d="M3 1135.5q3 66.5 24 126.5q53 139 170 198q131 68 290 8q18 18 45 19q29 2 49.5 -17.5t20.5 -48.5v-252v-147q2 -31 2 -47v-6h2q23 29 37 39q23 18 50.5 15t46 -25.5t15.5 -50t-26 -46.5l-8 -8q-2 -2 -8 -9t-15 -16q-41 -43 -90 -45t-90 37q-23 23 -39 55 q-37 -39 -69 -63q-94 -63 -215 -27q-70 20 -116 70.5t-62.5 112t-13.5 128zM131 1044q27 -82 100 -104q63 -18 111 12q35 25 98 113q10 12 27 18v86v99v80q-6 0 -12 4q-117 47 -203 2q-76 -39 -111 -135q-35 -94 -10 -175z" />
<glyph unicode="&#xab;" horiz-adv-x="1019" d="M137 627q6 23 27.5 45t34 31.5t43.5 29.5q111 80 178 139q18 18 43.5 16.5t43 -20t15.5 -44.5t-20 -42q-74 -66 -189 -147q-47 -33 -59 -45q6 -12 25 -35q23 -27 174 -178q18 -18 18 -43t-18.5 -43.5t-43 -18.5t-42.5 19q-156 156 -183 186q-72 84 -47 150zM524 600 q4 23 23.5 46.5t32 34.5t41.5 34q115 94 174 151q18 16 43.5 16.5t43 -18t17.5 -44.5t-18 -44q-63 -59 -183 -158q-41 -33 -53 -45q8 -14 29 -34q14 -16 180 -168q18 -16 20.5 -42t-15 -44.5t-43 -20.5t-44.5 17q-170 154 -188 174q-76 80 -60 145z" />
<glyph unicode="&#xac;" horiz-adv-x="1169" d="M10 766q0 25 18.5 43t43.5 18q27 0 187.5 3.5t264.5 3.5q168 2 267 0q59 0 94 -5q49 -2 69 -12q55 -27 76 -78q12 -31 17 -100q4 -51 4 -129q0 -90 -4 -225q0 -25 -19.5 -42.5t-44.5 -17.5t-42 19.5t-17 44.5q4 131 4 221q0 72 -4 121q-4 51 -9 63q-2 6 -10 11h-4 q-2 0 -9 1t-15 1q-33 4 -89 4q-96 2 -262 0q-104 0 -266 -3t-188 -3q-25 0 -43.5 18t-18.5 43z" />
<glyph unicode="&#xad;" horiz-adv-x="927" d="M46 538.5q1 36.5 27.5 62.5t63.5 26q184 -4 578 8q37 2 64.5 -22.5t28.5 -61.5t-23.5 -64.5t-61.5 -27.5q-401 -14 -590 -13q-37 2 -62.5 29t-24.5 63.5z" />
<glyph unicode="&#xae;" horiz-adv-x="1576" d="M-20.5 780q14.5 125 67.5 239t143 208q115 119 262.5 187.5t322.5 68.5t331 -86q-10 49 33 76q25 16 54.5 10t45.5 -33q82 -125 140.5 -293t74.5 -351t-39 -335q-23 -66 -74 -128t-91 -96t-103 -81q-154 -111 -333 -140.5t-354 32t-302 208.5q-104 119 -148.5 254 t-30 260zM133 629.5q27 -142.5 135 -269.5q100 -117 239.5 -166t284 -25t269.5 116q88 63 141 117.5t78 117.5q37 106 31 239.5t-43 266.5t-97 250q0 -2 -2 -4q-16 -27 -45.5 -33t-54.5 10q-127 80 -272.5 87t-273.5 -49t-227 -160.5t-144.5 -229.5t-18.5 -267.5z M379 1071.5q-2 34.5 20.5 59t57.5 26.5q14 0 85.5 7t120 10.5t123.5 -0.5q119 -10 187 -62q92 -72 82 -203q-8 -104 -92 -180q57 -61 63 -166q2 -33 0 -76q-4 -55 -4 -59q0 -35 -24.5 -57.5t-59.5 -22.5t-57.5 24.5t-22.5 59.5q0 6 4 66q2 35 0 55q-2 43 -18 61h-4 q-4 2 -12.5 5.5t-18.5 5.5q-18 4 -41 8q-27 -6 -53 -10q-12 0 -53 -9q-49 -8 -72 -12q-37 -4 -60 -2l5 -199q2 -27 -16.5 -45t-44 -19t-44 17.5t-18.5 42.5q-10 291 -4 615q-27 25 -29 59.5zM530 795q23 6 56 8q55 4 129 0l41 -4q43 14 75 35q55 39 60 88q4 43 -19 61 q-29 20 -98 27q-68 6 -242 -11q-2 -106 -2 -204z" />
<glyph unicode="&#xaf;" horiz-adv-x="788" d="M-54 1313.5q-3 25.5 12 45t40 23.5q43 4 85 7.5t91 5.5t85 2t93.5 -1t83 -1t90 -2t82.5 -2q25 0 42.5 -18.5t17.5 -44t-18.5 -43t-45.5 -17.5q-16 0 -81.5 2t-90 2t-82 1t-90.5 1t-80 -2t-87 -5t-79 -7q-27 -2 -46 13t-22 40.5z" />
<glyph unicode="&#xb0;" horiz-adv-x="763" d="M82 1071q-14 100 31 193.5t147 138.5q63 27 107.5 29t113.5 -23q9 -4 17 -12l26 -13q104 -63 119 -202q8 -82 -19.5 -161t-97 -136.5t-168.5 -57.5q-113 0 -186.5 71t-89.5 173zM182 1085q10 -68 57.5 -111.5t118.5 -43.5q90 0 142.5 73.5t42.5 167.5q-8 90 -70 125 q-76 45 -205 -12q-8 -2 -14 -2q-45 -37 -62.5 -89t-9.5 -108z" />
<glyph unicode="&#xb1;" horiz-adv-x="1286" d="M2 641q0 25 18.5 43t42.5 18h422q-4 55 -9 161t-5 116q-2 27 15.5 45t43 20.5t44 -15t20.5 -42.5q2 -33 4 -90t5 -105.5t5 -89.5h496q25 0 43 -18t18 -43t-18.5 -43t-42.5 -18h-488q12 -137 33 -248q4 -25 -11 -45.5t-40 -25.5t-45.5 10.5t-26.5 39.5q-20 119 -32 269 h-431q-25 0 -43 18t-18 43zM46 55.5q-7 24.5 5 46t37 29.5q176 51 492 39q76 -4 240.5 -14.5t240.5 -12.5q25 0 42 -18.5t17 -44t-18.5 -43t-44.5 -17.5q-76 2 -241 12.5t-243 14.5q-295 10 -452 -35q-25 -6 -46.5 6.5t-28.5 37z" />
<glyph unicode="&#xb2;" horiz-adv-x="786" d="M7.5 1267q1.5 26 21.5 42q53 49 130 82.5t144 33.5q96 -2 140 -71.5t14 -190.5q-14 -59 -121 -194q-145 -184 -160 -207q-33 -45 -45 -74q45 0 131 27q76 23 150 49q27 8 55 18l61 25q35 12 56 18q23 10 46 -1t32.5 -34.5t-2 -47t-35.5 -31.5l-172 -66l-154 -49 q-104 -31 -166 -33q-86 -2 -119 53q-27 47 2 117q16 41 58 101q20 31 166 213q90 113 98 145q16 70 2 96q-8 12 -37 12q-43 0 -98 -24.5t-94 -56.5q-18 -18 -44 -17.5t-43.5 20t-16 45.5z" />
<glyph unicode="&#xb3;" horiz-adv-x="739" d="M11 852.5q9 24.5 33 34.5t48.5 1t34.5 -34q4 -12 10 -29q0 -2 3 -11t5 -13q6 -18 13 -25q16 -18 55 -14q51 4 117 39q66 33 112 78q43 41 47 67q16 68 -18 101q-35 35 -121 45q-39 4 -63 2q-2 0 -58 -23q-31 -10 -49 -12q-45 0 -63 35q-16 31 0 65q23 49 94 74 q51 16 57 20q45 31 60 58q4 8 6 14q-12 4 -31 4q-45 0 -98 -15.5t-80 -33.5q-20 -16 -46 -12t-41 24.5t-11 46t24 39.5q45 35 118 55.5t136 18.5q86 0 127 -45q55 -63 2 -158q-10 -20 -28 -41q98 -18 153 -71q84 -82 53 -219q-14 -61 -84 -127q-61 -59 -139 -101 q-88 -47 -164 -53q-104 -8 -162 57q-20 25 -34 66l-9 26q-4 12 -8 19q-10 23 -1 47.5z" />
<glyph unicode="&#xb4;" horiz-adv-x="561" d="M86 1237q0 29 20 49q80 80 216 232q18 23 46.5 24.5t50 -18t23.5 -48.5t-18 -49q-135 -156 -219 -239q-20 -20 -49 -20.5t-49.5 20t-20.5 49.5z" />
<glyph unicode="&#xb5;" horiz-adv-x="1173" d="M-133 -324q14 113 45 250t57.5 233.5t73.5 251t66 224.5l28 102q10 55 23 97q2 8 8 26l39 160q2 6 6 33q0 6 2 17t3 20.5t1 15.5q6 41 14 59q8 20 21 35q45 49 106 31q41 -10 64 -47q6 -12 10 -27q16 -49 4 -123q-8 -45 -28 -106l-33 -97l-12 -28l-29 -113 q-29 -141 -37 -270q-6 -117 6 -193q10 -53 27 -73q10 4 27.5 17t33 28.5l33.5 33.5q14 18 25 29q109 111 197.5 258.5t133.5 292.5v2l19 96q12 63 22 103q6 25 13 41q4 14 8 22q14 27 35 43q4 4 13 9.5t36.5 13.5t52.5 -4q49 -16 66 -64q8 -20 8 -43q-2 -25 -15 -63 q-2 -4 -18 -47q-8 -23 -8 -29q-25 -106 -31 -129l-4 -16v-9q-2 -6 -2 -10q-20 -78 -53 -180q-35 -104 -52 -168q-12 -51 -19 -78t-11 -58.5t-5 -45t-4.5 -63.5t-5.5 -87q-4 -43 -35.5 -70.5t-73.5 -24.5t-69.5 34.5t-25.5 72.5q2 35 6 91l-31 -33l-12 -15l-29 -28 q-12 -14 -33.5 -33.5t-40.5 -34.5q-150 -115 -270 -22q-35 27 -59 67q-61 -229 -82 -401q-6 -43 -39 -68.5t-76 -20.5t-68.5 37.5t-21.5 75.5z" />
<glyph unicode="&#xb6;" horiz-adv-x="1112" d="M-41 954q-2 115 47 221.5t141 170.5q90 61 211 89.5t228.5 25.5t222.5 -9q10 4 22 2l13 -4l90 -6q25 -2 42 -20.5t15 -44t-20.5 -43t-44.5 -15.5q-23 2 -54 4q-14 -123 -16 -269.5t4 -257t18.5 -280.5t16.5 -268q4 -72 4 -154t-2 -182t-2 -154q0 -25 -18.5 -43t-43 -18 t-43 18.5t-18.5 42.5l2 242q4 242 -2 244q-4 90 -14 260l-21 282q-6 113 -4 265.5t19 279.5q-145 8 -236 2q-16 -49 -22.5 -118.5t-6.5 -109.5t4.5 -141.5t4.5 -121.5q4 -164 5 -335t0 -425t-1 -336q0 -25 -18.5 -43t-43 -18t-43 18.5t-18.5 42.5q0 41 1 414t-1 413h-10 q-125 6 -162 21q-119 43 -180.5 141.5t-65.5 216.5zM82 958q4 -139 98 -210q0 20 10 36q10 12 22.5 28.5t16.5 25.5l7 12q-33 0 -58 14q-33 23 -41 66q-6 26 0 51q-23 4 -41 20q-6 6 -10 13q-4 -29 -4 -56zM139 1161q23 20 56 45q53 39 141 97q-66 -23 -119 -60 q-45 -31 -78 -82zM283 705q10 -2 92 -7h2l-4 142v16q-12 -29 -33 -72q-2 -4 -47 -69q-4 -6 -10 -10zM322 1145q14 -10 22 -25q14 -25 21 -45q0 55 2 101zM354 979q8 -4 13 -10v30l-5 -8z" />
<glyph unicode="&#xb7;" horiz-adv-x="471" d="M111 704.5q0 49.5 35.5 85t85 35.5t85 -35.5t35.5 -85t-35.5 -85t-85 -35.5t-85 35.5t-35.5 85z" />
<glyph unicode="&#xb8;" horiz-adv-x="606" d="M47 -326.5q8 23.5 31.5 33.5t46.5 2q84 -33 137 -22.5t75.5 29t24.5 38.5q6 25 -20 39q-51 29 -164 -6q-25 -6 -47 5t-31 36q-6 25 4 46.5t33 29.5q4 4 8 6q16 12 32 22.5t20 14.5t10 8t11 9l11 11l25 21q16 14 35 33q14 12 34.5 11t34 -15.5t12.5 -35t-16 -34.5l-32 -29 q45 -6 79 -24q49 -27 71 -74t11 -98q-20 -104 -131 -148q-113 -41 -268 12q-25 8 -35 32t-2 47.5z" />
<glyph unicode="&#xb9;" horiz-adv-x="528" d="M22.5 1181.5q-8.5 24.5 2.5 48.5t36 32q61 20 101.5 46.5t85.5 77.5q2 0 2 1.5v3.5l4 8l8 14q33 57 88 55q20 -2 34.5 -13t18.5 -23l5 -11q2 -8 2 -16q0 -2 -2 -6v-4v-4l-2 -7l-5 -20q-8 -37 -14 -68q-20 -104 -22 -161q-8 -2 -4 -217.5t4 -217.5q0 -27 -18.5 -45 t-45.5 -18t-45 18.5t-18 44.5q0 47 -2.5 138.5t-2.5 165t5 139.5q2 31 8 69q-57 -41 -144 -69q-25 -8 -48 3t-31.5 35.5z" />
<glyph unicode="&#xba;" horiz-adv-x="761" d="M18 1042q-37 121 8.5 242t178.5 191q2 2 10 6q12 6 18 10q29 16 58 16q25 2 53.5 -2t59 -10t36.5 -8q21 -3 35 -17l17 -8q117 -61 143 -213q16 -86 -4.5 -175t-83 -162.5t-154.5 -96.5q-133 -29 -235.5 40t-139.5 187zM133.5 1209.5q-18.5 -70.5 3.5 -130.5 q25 -78 87.5 -118.5t140.5 -22.5q80 16 122.5 103t26.5 186q-16 92 -80 127q-78 41 -213 -21q-4 -2 -10 -2q-59 -51 -77.5 -121.5z" />
<glyph unicode="&#xbb;" horiz-adv-x="1011" d="M126 799.5q-3 25.5 12.5 45t41 22.5t45.5 -11q166 -133 203 -168q80 -78 61 -147q-6 -20 -25.5 -45t-29.5 -33l-39 -37q-98 -86 -162 -156q-16 -18 -41.5 -20t-44 15.5t-20.5 43t16 43.5q66 76 170 166q45 39 56 53q-8 10 -27 29q-31 31 -195 158q-18 16 -21 41.5z M520.5 323q0.5 26 16.5 44q66 68 176 161q45 37 55 50q-8 12 -27 32q-29 29 -188 162q-20 16 -22.5 42t14 45.5t42 21.5t44.5 -15q164 -137 196 -170q80 -78 62 -147q-6 -20 -25.5 -45t-31 -36t-39.5 -34q-106 -90 -166 -153q-18 -18 -44 -18.5t-44.5 17t-18 43.5z" />
<glyph unicode="&#xbc;" horiz-adv-x="1619" d="M121 1163.5q-8 24.5 3 48t36 31.5q61 20 101 47t85 78q2 0 2 1v3l4 8l8 15q33 57 89 55q20 -2 34.5 -13.5t18.5 -23.5l4 -10q2 -8 2 -17q0 -2 -2 -6v-4v-4l-2 -6l-4 -20q-8 -37 -15 -68q-20 -104 -22 -162q-8 -2 -4 -217t4 -217q0 -27 -18.5 -45.5t-45 -18.5t-45 18.5 t-18.5 45.5q0 47 -2 138t-2 165t4 139q2 31 8 70q-57 -41 -143 -70q-25 -8 -48.5 3.5t-31.5 36zM427 88q-7 25 3 47q383 727 713 1254q12 20 36.5 26t46 -7t27.5 -37.5t-8 -47.5q-326 -522 -704 -1245q-12 -23 -37 -30t-47.5 4t-29.5 36zM926 281q-14 27 0 57q6 16 26 33 q8 8 15.5 14t9.5 8t4 2l35 43q23 27 41 54q141 186 209 331q10 25 33.5 33t47 -2t31.5 -33.5t-2 -46.5q-74 -158 -221 -356l-41 -51q51 14 127 47q16 6 41 18l45 21l33 14q33 12 55 14q57 6 80 -41l4 -20q2 -4 2 -6v-6q-2 -4 -2 -13q0 -12 -2 -37q-2 -31 -10 -110 q-14 -166 -14 -185q-2 -25 -20.5 -42t-43.5 -16t-42 19.5t-17 43.5q2 23 16 192l8 80l-84 -37q-209 -92 -323 -57q-29 8 -41 35z" />
<glyph unicode="&#xbd;" horiz-adv-x="1695" d="M121 1163.5q-8 24.5 3 48t36 31.5q61 20 101 47t85 78q2 0 2 1v3l4 8l8 15q33 57 89 55q20 -2 34.5 -13.5t18.5 -23.5l4 -10q2 -8 2 -17q0 -2 -2 -6v-4v-4l-2 -6l-4 -20q-8 -37 -15 -68q-20 -104 -22 -162q-8 -2 -4 -217t4 -217q0 -27 -18.5 -45.5t-45 -18.5t-45 18.5 t-18.5 45.5q0 47 -2 138t-2 165t4 139q2 31 8 70q-57 -41 -143 -70q-25 -8 -48.5 3.5t-31.5 36zM349 104.5q-7 24.5 3 47.5q383 727 713 1253q12 20 36.5 26.5t46 -7t27.5 -38t-8 -47.5q-326 -522 -704 -1245q-12 -23 -37 -30t-47.5 4.5t-29.5 36zM916.5 683q1.5 26 21.5 42 q53 49 130 83t144 34q96 -2 140.5 -72t13.5 -190q-14 -59 -121 -195q-145 -184 -160 -207q-33 -45 -45 -74q45 0 131 27q76 23 150 49q27 8 55 19l62 22q35 14 55 21q23 10 46.5 -1.5t32.5 -35t-2 -47t-36 -31.5l-172 -66l-154 -49q-104 -31 -166 -32q-86 -2 -118 53 q-27 47 2 117q16 41 57 100q20 31 166 213q90 113 98 145q16 70 2 97q-8 12 -37 12q-43 0 -98 -24.5t-94 -57.5q-18 -18 -44 -17.5t-43.5 20t-16 45.5z" />
<glyph unicode="&#xbe;" horiz-adv-x="1681" d="M87 825.5q9 24.5 32.5 34.5t48.5 1t35 -34q4 -12 10 -28q0 -2 3 -11.5t5 -13.5q6 -18 12 -24q16 -18 56 -15q49 4 112.5 37t110.5 78q41 41 45 68q16 66 -16 98q-35 33 -117 43q-39 4 -64 2q-2 0 -57 -21q-31 -12 -47 -14q-45 0 -66 37q-14 31 3 65q25 47 94 70 q49 16 53 21q43 29 57 57q6 8 9 14q-12 2 -31 2q-45 0 -97.5 -15t-78.5 -34q-20 -14 -46 -10t-40.5 25.5t-10.5 47.5t27 40q41 29 112.5 49t133.5 22q88 0 129 -45q55 -61 4 -158q-12 -20 -29 -38q94 -18 150 -74q80 -80 51 -213q-14 -61 -82 -127q-59 -57 -137 -98 q-86 -47 -162 -54q-102 -8 -160 58q-20 25 -35 65l-8 27q-4 12 -8 18q-10 23 -1 47.5zM496.5 92.5q-7.5 24.5 3.5 46.5q379 717 702 1231q12 20 37 26.5t46.5 -7t27.5 -37.5t-8 -47q-319 -510 -695 -1223q-12 -23 -36.5 -30t-47 4.5t-30 36zM987 283q-14 27 0 57q6 16 27 33 q8 8 15 14t9 8t4 2l35 41q23 29 41 56q141 186 209 331q10 25 33.5 33t47.5 -2t32 -33.5t-2 -46.5q-74 -158 -221 -356l-21 -25q63 2 107 21q16 6 40 18l46 21l32 14q33 12 56 14q57 6 79 -41l5 -20q2 -4 2 -6v-6q-2 -4 -2 -13q0 -12 -2 -37q-2 -31 -11 -110 q-14 -166 -14 -184q-2 -25 -20.5 -42.5t-43 -16.5t-42 19.5t-17.5 43.5q2 23 16 192l9 80l-84 -37q-209 -92 -324 -57q-29 8 -41 35z" />
<glyph unicode="&#xbf;" horiz-adv-x="1146" d="M137 -152q-35 119 33 252q43 82 143 195q10 12 68 74l84 94q63 78 76 123l-2 14q-2 6 -2 10t-2.5 9.5t-2.5 9.5q-4 23 -6 41q-4 41 24 73.5t70 36.5t74.5 -23.5t36.5 -70.5q0 -6 2 -18q6 -31 6 -33q10 -57 -2 -103q-23 -88 -114 -200l-88 -99q-59 -66 -68 -73 q-84 -94 -114.5 -153.5t-18.5 -100.5q14 -51 68.5 -81t139.5 -31t156.5 30t100.5 72q6 10 10 36q2 6 2 15l4 12q0 8 2 14q4 29 10 50q10 41 47 62t78 10t62.5 -48t9.5 -78l-6 -30l-6 -43q-14 -70 -45 -115q-61 -92 -181 -142.5t-245 -48.5q-84 0 -161 22.5t-146.5 83 t-96.5 152.5zM463 977q0 53 39 92t92 39t92 -39t39 -92t-39 -92t-92 -39t-92 39t-39 92z" />
<glyph unicode="&#xc0;" d="M-30.5 109.5q-14.5 39.5 3.5 78.5q305 670 408 914q23 53 57 125q39 80 51 110q2 0 3 2v2q0 2 1 11.5t5 25.5q8 37 26 62q39 55 107 53q55 -2 96 -49q18 -23 37 -58q25 -47 51 -126q0 -2 59 -209q90 -317 177 -512l98 -213q63 -139 94 -226q14 -41 -4 -78.5t-58 -52 t-78 4t-52 57.5q-31 88 -88 209l-101 217l-18 43l-127 -21l-135 -20q-45 -6 -114 -20.5t-128 -30.5q-20 -6 -43 -2l-139 -304q-16 -39 -56.5 -53t-79 3.5t-53 57zM341 1863.5q-1 28.5 18.5 49t48.5 21.5t49 -19q172 -164 245 -244q18 -23 17.5 -50.5t-22 -47t-49 -18.5 t-48.5 22q-70 78 -238 240q-20 18 -21 46.5zM399 633q92 20 371 63q-43 127 -92 301q-43 156 -45 160q-45 -88 -64 -133z" />
<glyph unicode="&#xc1;" d="M-30.5 109.5q-14.5 39.5 3.5 78.5q305 670 408 914q23 53 57 125q39 80 51 110q2 0 3 2v2q0 2 1 11.5t5 25.5q8 37 26 62q39 55 107 53q55 -2 96 -49q18 -23 37 -58q25 -47 51 -126q0 -2 59 -209q90 -317 177 -512l98 -213q63 -139 94 -226q14 -41 -4 -78.5t-58 -52 t-78 4t-52 57.5q-31 88 -88 209l-101 217l-18 43l-127 -21l-135 -20q-45 -6 -114 -20.5t-128 -30.5q-20 -6 -43 -2l-139 -304q-16 -39 -56.5 -53t-79 3.5t-53 57zM399 633q92 20 371 63q-43 127 -92 301q-43 156 -45 160q-45 -88 -64 -133zM462 1599.5q-1 28.5 17 49.5 q70 74 209 247q16 23 45 26t51.5 -14.5t25.5 -46t-15 -51.5q-141 -178 -213 -256q-20 -20 -49 -21t-49.5 18.5t-21.5 48z" />
<glyph unicode="&#xc2;" d="M-30.5 109.5q-14.5 39.5 3.5 78.5q305 670 408 914q23 53 57 125q39 80 51 110q2 0 3 2v2q0 2 1 11.5t5 25.5q8 37 26 62q39 55 107 53q55 -2 96 -49q18 -23 37 -58q25 -47 51 -126q0 -2 59 -209q90 -317 177 -512l98 -213q63 -139 94 -226q14 -41 -4 -78.5t-58 -52 t-78 4t-52 57.5q-31 88 -88 209l-101 217l-18 43l-127 -21l-135 -20q-45 -6 -114 -20.5t-128 -30.5q-20 -6 -43 -2l-139 -304q-16 -39 -56.5 -53t-79 3.5t-53 57zM366 1504q-5 25 9 48q10 14 63 95l80 122l27 37l18 29q14 18 29 29q33 25 72 8q20 -8 36 -31q6 -10 17 -31 l49 -81l86 -150q14 -23 7 -47.5t-29.5 -37.5t-47 -6t-37.5 30l-28 47l-29 53q-14 23 -29 45l-28 47l-10 -14l-80 -119q-51 -80 -60 -94q-14 -23 -39.5 -28t-48 9.5t-27.5 39.5zM399 633q92 20 371 63q-43 127 -92 301q-43 156 -45 160q-45 -88 -64 -133z" />
<glyph unicode="&#xc3;" d="M-30.5 109.5q-14.5 39.5 3.5 78.5q305 670 408 914q23 53 57 125q39 80 51 110q2 0 3 2v2q0 2 1 11.5t5 25.5q8 37 26 62q39 55 107 53q55 -2 96 -49q18 -23 37 -58q25 -47 51 -126q0 -2 59 -209q90 -317 177 -512l98 -213q63 -139 94 -226q14 -41 -4 -78.5t-58 -52 t-78 4t-52 57.5q-31 88 -88 209l-101 217l-18 43l-127 -21l-135 -20q-45 -6 -114 -20.5t-128 -30.5q-20 -6 -43 -2l-139 -304q-16 -39 -56.5 -53t-79 3.5t-53 57zM332 1618q-4 25 10 45q88 125 190 123q53 -2 154 -62q66 -39 98 -34q53 2 121 92q14 20 39 24t44.5 -11 t23.5 -39.5t-13 -43.5q-100 -135 -206 -143q-70 -4 -168 53q-72 43 -95 45q-39 0 -90 -74q-14 -20 -38.5 -24t-45 10t-24.5 39zM399 633q92 20 371 63q-43 127 -92 301q-43 156 -45 160q-45 -88 -64 -133z" />
<glyph unicode="&#xc4;" d="M-30.5 109.5q-14.5 39.5 3.5 78.5q305 670 408 914q23 53 57 125q39 80 51 110q2 0 3 2v2q0 2 1 11.5t5 25.5q8 37 26 62q39 55 107 53q55 -2 96 -49q18 -23 37 -58q25 -47 51 -126q0 -2 59 -209q90 -317 177 -512l98 -213q63 -139 94 -226q14 -41 -4 -78.5t-58 -52 t-78 4t-52 57.5q-31 88 -88 209l-101 217l-18 43l-127 -21l-135 -20q-45 -6 -114 -20.5t-128 -30.5q-20 -6 -43 -2l-139 -304q-16 -39 -56.5 -53t-79 3.5t-53 57zM365 1651q0 43 29.5 72.5t72.5 29.5t72.5 -29.5t29.5 -72.5t-29.5 -73t-72.5 -30t-72.5 30t-29.5 73zM399 633 q92 20 371 63q-43 127 -92 301q-43 156 -45 160q-45 -88 -64 -133zM657 1653q0 43 30 72.5t73 29.5t72.5 -29.5t29.5 -72.5t-29.5 -73t-72.5 -30t-73 30t-30 73z" />
<glyph unicode="&#xc5;" d="M-27.5 110.5q-15.5 38.5 0.5 77.5l183 404l225 512q23 53 57 125q39 80 51 108q2 0 3 2v2v7q0 4 2 11t4 19q8 37 26 62q10 14 23 24q-49 27 -75 77t-21 104q6 70 57 117.5t135 54.5q23 4 41 4q76 -4 111.5 -64.5t27.5 -130.5q-6 -53 -34.5 -99t-77.5 -67l16 -16 q18 -23 37 -58q25 -47 51 -126q14 -41 59 -207q90 -317 177 -512l98 -213q63 -139 94 -226q14 -41 -4 -78.5t-58 -52t-78 4t-52 57.5q-31 88 -88 209l-101 217l-18 43l-127 -19l-135 -20q-45 -8 -114 -22.5t-128 -30.5q-20 -6 -43 -2l-135 -302q-18 -39 -57 -54t-78 2.5 t-54.5 56zM399 635q92 20 371 63q-43 127 -92 301l-45 160q-45 -88 -64 -133zM530 1638q-4 -45 25 -78.5t82 -33.5q43 0 71.5 30.5t34.5 77.5q8 80 -43 101h-4q-23 4 -41 2q-8 -2 -18 -4l-57 -17q-45 -27 -50 -78z" />
<glyph unicode="&#xc6;" horiz-adv-x="2072" d="M-30.5 109.5q-14.5 39.5 3.5 78.5q305 670 408 914q23 53 57 125q39 80 51 110q2 0 3 2v2q0 2 1 11.5t5 25.5q8 37 26 62q39 55 107 53q55 -2 96 -49q18 -23 37 -58q25 -47 51 -126q6 -20 59 -209q35 -125 66 -222l25 232q35 283 36 287q-10 23 -10 47q2 41 33 70.5 t74 27.5h2h8h10q223 -8 588 10q41 2 72.5 -26.5t34 -70.5t-26.5 -74t-72 -34q-305 -14 -514 -12q-4 -41 -16.5 -131t-14.5 -119q-16 -121 -24 -215q76 10 212 24.5t181 20.5q43 4 76 -22.5t38 -68.5t-21.5 -74.5t-67.5 -38.5l-191 -21q-156 -16 -237 -27q-2 -27 -2 -49 q2 -166 28 -266l39 -88q20 -29 47 -37q43 -12 119 14q47 16 434 230q37 20 78 8t61.5 -49t8 -78t-49.5 -61q-401 -219 -462 -242q-133 -49 -240 -21q-8 -4 -14 -6q-41 -14 -79 4.5t-52 57.5q-14 41 -31 82l-2 2q-29 49 -49 112l-6 13l-101 217l-18 43l-127 -21l-135 -20 q-45 -6 -114 -20.5t-128 -30.5q-20 -6 -43 -2l-139 -304q-16 -39 -56.5 -53t-79 3.5t-53 57zM399 633q92 20 371 63q-43 127 -92 301q-43 156 -45 160q-45 -88 -64 -133z" />
<glyph unicode="&#xc7;" horiz-adv-x="1486" d="M5 639q-9 96 9 188q20 145 85 277.5t165.5 239t249 166t322.5 49.5q166 -10 282.5 -83t188.5 -223q18 -39 3.5 -78.5t-52 -58t-78 -4.5t-58.5 51q-49 96 -114 140q-70 45 -185 51q-123 6 -230.5 -36t-183 -120t-126 -180.5t-66.5 -218.5q-25 -158 13 -291t142.5 -223 t262.5 -105q156 -16 276 39q37 16 65 31.5t56 40.5l43 41q16 14 55 53l64 66q29 31 72 30.5t72.5 -30t29.5 -72.5t-31 -72l-59 -61q-39 -41 -61 -62l-58 -53q-35 -31 -76 -54.5t-90 -45.5q-123 -55 -260 -60q4 -27 -16 -45l-2 -2q45 -6 82 -24q49 -27 70.5 -74t11.5 -98 q-20 -104 -134 -146q-111 -43 -266 10q-25 8 -35 32t-1.5 47.5t32 33.5t45.5 2q84 -33 137.5 -22.5t76 29t24.5 38.5q6 25 -21 39q-51 29 -164 -6q-35 -10 -59 14q-10 6 -16 15q-12 16 -10.5 34.5t16.5 30.5q12 18 33 25h2q33 23 86 71h-11q-119 12 -217 54.5t-166.5 105 t-120 144t-74 173t-31.5 187.5z" />
<glyph unicode="&#xc8;" horiz-adv-x="1243" d="M20 717q-8 43 17.5 76.5t66.5 40.5l5 2q10 111 26 256q39 305 39 331q0 43 31 72t74 29q54 -2 83 -47q236 -8 603 10q41 2 72.5 -26.5t33.5 -70.5t-26.5 -74t-71.5 -34q-371 -18 -608 -10l-25 -205q-16 -135 -23 -203l215 25q141 14 185 20q43 4 75.5 -22.5t38 -68.5 t-21.5 -74.5t-68 -38.5q-35 -4 -193.5 -20.5t-242.5 -29.5q-2 -31 -2 -59q2 -246 62 -344q23 -39 53 -47q43 -12 119 14q47 16 434 230q37 20 78 7.5t61 -49t8 -77.5t-49 -62q-399 -219 -463 -241q-137 -51 -246 -19q-106 31 -172 137q-88 147 -90 449v39q-29 6 -51 29.5 t-27 54.5zM341 1863.5q-1 28.5 18.5 49t48.5 21.5t49 -19q172 -164 245 -244q18 -23 17.5 -50.5t-22 -47t-49 -18.5t-48.5 22q-70 78 -238 240q-20 18 -21 46.5z" />
<glyph unicode="&#xc9;" horiz-adv-x="1243" d="M20 717q-8 43 17.5 76.5t66.5 40.5l5 2q10 111 26 256q39 305 39 331q0 43 31 72t74 29q54 -2 83 -47q236 -8 603 10q41 2 72.5 -26.5t33.5 -70.5t-26.5 -74t-71.5 -34q-371 -18 -608 -10l-25 -205q-16 -135 -23 -203l215 25q141 14 185 20q43 4 75.5 -22.5t38 -68.5 t-21.5 -74.5t-68 -38.5q-35 -4 -193.5 -20.5t-242.5 -29.5q-2 -31 -2 -59q2 -246 62 -344q23 -39 53 -47q43 -12 119 14q47 16 434 230q37 20 78 7.5t61 -49t8 -77.5t-49 -62q-399 -219 -463 -241q-137 -51 -246 -19q-106 31 -172 137q-88 147 -90 449v39q-29 6 -51 29.5 t-27 54.5zM497 1609.5q-1 28.5 19 49.5q66 70 207 246q16 23 45 25.5t51.5 -15t25 -45.5t-15.5 -51q-143 -182 -215 -254q-18 -20 -46.5 -21.5t-49 18t-21.5 48z" />
<glyph unicode="&#xca;" horiz-adv-x="1243" d="M20 717q-8 43 17.5 76.5t66.5 40.5l5 2q10 111 26 256q39 305 39 331q0 43 31 72t74 29q54 -2 83 -47q236 -8 603 10q41 2 72.5 -26.5t33.5 -70.5t-26.5 -74t-71.5 -34q-371 -18 -608 -10l-25 -205q-16 -135 -23 -203l215 25q141 14 185 20q43 4 75.5 -22.5t38 -68.5 t-21.5 -74.5t-68 -38.5q-35 -4 -193.5 -20.5t-242.5 -29.5q-2 -31 -2 -59q2 -246 62 -344q23 -39 53 -47q43 -12 119 14q47 16 434 230q37 20 78 7.5t61 -49t8 -77.5t-49 -62q-399 -219 -463 -241q-137 -51 -246 -19q-106 31 -172 137q-88 147 -90 449v39q-29 6 -51 29.5 t-27 54.5zM396.5 1566q-4.5 26 11.5 46q47 72 116 196q27 47 39 64q27 37 55 49q47 20 91 -14q23 -18 49 -58q12 -18 125 -209q14 -23 8 -48t-28.5 -38.5t-48.5 -7.5t-38 29l-123 205l-18 -33q-74 -129 -125 -205q-14 -23 -40 -28t-47.5 10.5t-26 41.5zM631 1808l4 -2 q-2 2 -4 2z" />
<glyph unicode="&#xcb;" horiz-adv-x="1243" d="M20 717q-8 43 17.5 76.5t66.5 40.5l5 2q10 111 26 256q39 305 39 331q0 43 31 72t74 29q54 -2 83 -47q236 -8 603 10q41 2 72.5 -26.5t33.5 -70.5t-26.5 -74t-71.5 -34q-371 -18 -608 -10l-25 -205q-16 -135 -23 -203l215 25q141 14 185 20q43 4 75.5 -22.5t38 -68.5 t-21.5 -74.5t-68 -38.5q-35 -4 -193.5 -20.5t-242.5 -29.5q-2 -31 -2 -59q2 -246 62 -344q23 -39 53 -47q43 -12 119 14q47 16 434 230q37 20 78 7.5t61 -49t8 -77.5t-49 -62q-399 -219 -463 -241q-137 -51 -246 -19q-106 31 -172 137q-88 147 -90 449v39q-29 6 -51 29.5 t-27 54.5zM412 1659q0 43 29.5 72.5t72.5 29.5t72.5 -29.5t29.5 -72.5t-29.5 -73t-72.5 -30t-72.5 30t-29.5 73zM725 1675q0 43 29.5 73t72.5 30t73 -30t30 -73t-30 -72.5t-73 -29.5t-72.5 29.5t-29.5 72.5z" />
<glyph unicode="&#xcc;" horiz-adv-x="489" d="M-43 1876q0 29 20.5 49.5t49.5 20t49 -20.5l237 -233q20 -20 21.5 -48t-19 -48.5t-48 -21.5t-48.5 19l-242 234q-20 20 -20 49zM145 94q2 113 8.5 317.5t9.5 335t1 308.5q0 156 -8 329q-2 43 26.5 75t70.5 34t73.5 -26.5t33.5 -69.5q8 -158 9 -332q2 -182 -1 -314.5 t-9.5 -341t-8.5 -319.5q0 -43 -30.5 -71.5t-73.5 -28.5t-72 30.5t-29 73.5z" />
<glyph unicode="&#xcd;" horiz-adv-x="550" d="M83 1599.5q-1 28.5 17 51.5q72 80 209 250q16 23 45 25.5t51.5 -15t25.5 -45.5t-15 -51q-137 -174 -213 -259q-18 -20 -47 -21t-50.5 17.5t-22.5 47zM145 94q2 113 8.5 317.5t9.5 335t1 308.5q0 156 -8 329q-2 43 26.5 75t70.5 34t73.5 -26.5t33.5 -69.5q8 -158 9 -332 q2 -182 -1 -314.5t-9.5 -341t-8.5 -319.5q0 -43 -30.5 -71.5t-73.5 -28.5t-72 30.5t-29 73.5z" />
<glyph unicode="&#xce;" horiz-adv-x="616" d="M2 1534.5q-6 25.5 8 48.5q141 217 144 219l26 37l19 29q14 18 26 28q35 25 72 9q23 -8 39 -31l16 -29q35 -61 49 -84l88 -151q12 -23 5 -47.5t-29.5 -38t-47 -6t-38.5 29.5q-8 16 -27 45l-28 56q-14 25 -29 47l-29 47l-10 -14q-23 -31 -45 -66l-51 -82q-29 -43 -43 -68 q-14 -20 -40 -26t-47.5 8t-27.5 39.5zM145 94q2 113 8.5 317.5t9.5 335t1 308.5q0 156 -8 329q-2 43 26.5 75t70.5 34t73.5 -26.5t33.5 -69.5q8 -158 9 -332q2 -182 -1 -314.5t-9.5 -341t-8.5 -319.5q0 -43 -30.5 -71.5t-73.5 -28.5t-72 30.5t-29 73.5z" />
<glyph unicode="&#xcf;" horiz-adv-x="618" d="M2 1663q0 43 29.5 72.5t72.5 29.5t73 -29.5t30 -72.5t-30 -72.5t-73 -29.5t-72.5 29.5t-29.5 72.5zM145 94q2 113 8.5 317.5t9.5 335t1 308.5q0 156 -8 329q-2 43 26.5 75t70.5 34t73.5 -26.5t33.5 -69.5q8 -158 9 -332q2 -182 -1 -314.5t-9.5 -341t-8.5 -319.5 q0 -43 -30.5 -71.5t-73.5 -28.5t-72 30.5t-29 73.5zM293 1659q0 43 29.5 72.5t72.5 29.5t73 -29.5t30 -72.5t-30 -73t-73 -30t-72.5 30t-29.5 73z" />
<glyph unicode="&#xd0;" horiz-adv-x="1415" d="M-40 750.5q-1 37.5 25.5 66.5t65.5 29q23 2 45 2q-16 236 -10 416q-45 31 -45 86q0 43 30.5 71.5t73.5 28.5q377 -6 596 -59q408 -98 516 -373q45 -109 37 -225.5t-45 -214.5q-39 -96 -106 -195q-92 -133 -219 -240q-129 -106 -260 -168q-127 -61 -316 -41 q-29 -57 -92 -57q-39 0 -68.5 26.5t-33.5 65.5l-33 11q-41 10 -63.5 45.5t-10.5 76.5q8 37 37 58.5t63 19.5q-4 119 -32 441l-4 41h-56q-37 -2 -65.5 24.5t-29.5 64zM291 1241q-4 -168 10 -389q47 0 167 1t183 1q39 2 66.5 -25.5t29 -65.5t-26.5 -65.5t-65 -27.5 q-66 -2 -182.5 -3t-157.5 -1l4 -29q29 -348 35 -498q143 -16 224 21q106 51 213.5 141t183.5 199q170 244 90 444q-68 174 -373 248q-162 39 -401 49z" />
<glyph unicode="&#xd1;" horiz-adv-x="1390" d="M41 35q6 352 57 911q16 174 21 207q10 78 18 127q6 31 13 51q12 43 36 66q72 74 160 41q53 -18 94 -82q20 -29 52 -86q29 -57 36 -72q326 -553 504 -829v22q2 45 15.5 246t16.5 293t-3 236.5t-29 242.5q-8 41 14.5 77t63.5 45t77 -13.5t46 -63.5q25 -111 32 -271.5 t4 -259t-16 -305.5l-16 -239q-2 -25 -3 -89.5t-3 -92.5q-2 -59 -6 -93q-4 -25 -11 -43q-18 -55 -67 -75q-43 -16 -84 4q-14 6 -27 18q-12 10 -26 27q-16 20 -43 57l-90 139q-186 289 -525 865q-10 16 -28 51l-2 -19q-2 -18 -19 -202q-51 -551 -57 -895q0 -41 -31 -71 t-73 -30t-71.5 31t-29.5 74zM332 1618q-4 25 10 45q88 125 190 123q53 -2 154 -62q66 -39 98 -34q53 2 121 92q14 20 39 24t44.5 -11t23.5 -39.5t-13 -43.5q-100 -135 -206 -143q-70 -4 -168 53q-72 43 -95 45q-39 0 -90 -74q-14 -20 -38.5 -24t-45 10t-24.5 39zM1020 125v2 v-2z" />
<glyph unicode="&#xd2;" horiz-adv-x="1581" d="M10 628.5q0 98.5 19 198.5q49 233 217.5 406.5t412.5 198.5q-2 27 9 51q16 39 55 55t78 0q98 -41 203 -113q102 -74 194 -166t162 -205.5t92 -226.5q33 -162 -63 -393q-111 -266 -359 -389t-526 -41q-123 37 -217 102.5t-150.5 147.5t-91.5 179t-35 195.5zM216.5 602 q12.5 -92 49.5 -169t113 -138q76 -63 182 -94q203 -59 381 28q176 88 258 283q72 174 51 274q-27 129 -143.5 267.5t-263.5 230.5q-31 -55 -94 -53q-195 6 -337.5 -123t-185.5 -324q-23 -90 -10.5 -182zM507 1882q1 29 21.5 48.5t49.5 18t47 -21.5q94 -98 215 -237 q20 -20 18 -49t-23.5 -48.5t-50 -17.5t-47.5 24l-211 234q-20 20 -19 49z" />
<glyph unicode="&#xd3;" horiz-adv-x="1581" d="M10 628.5q0 98.5 19 198.5q49 233 217.5 406.5t412.5 198.5q-2 27 9 51q16 39 55 55t78 0q98 -41 203 -113q102 -74 194 -166t162 -205.5t92 -226.5q33 -162 -63 -393q-111 -266 -359 -389t-526 -41q-123 37 -217 102.5t-150.5 147.5t-91.5 179t-35 195.5zM216.5 602 q12.5 -92 49.5 -169t113 -138q76 -63 182 -94q203 -59 381 28q176 88 258 283q72 174 51 274q-27 129 -143.5 267.5t-263.5 230.5q-31 -55 -94 -53q-195 6 -337.5 -123t-185.5 -324q-23 -90 -10.5 -182zM540 1634.5q1 28.5 21 46.5q74 74 213 230q18 23 47 24.5t50.5 -18 t23.5 -48t-18 -48.5q-141 -162 -222 -238q-20 -20 -48.5 -19t-48 21.5t-18.5 49z" />
<glyph unicode="&#xd4;" horiz-adv-x="1581" d="M10 628.5q0 98.5 19 198.5q49 233 217.5 406.5t412.5 198.5q-2 27 9 51q16 39 55 55t78 0q98 -41 203 -113q102 -74 194 -166t162 -205.5t92 -226.5q33 -162 -63 -393q-111 -266 -359 -389t-526 -41q-123 37 -217 102.5t-150.5 147.5t-91.5 179t-35 195.5zM216.5 602 q12.5 -92 49.5 -169t113 -138q76 -63 182 -94q203 -59 381 28q176 88 258 283q72 174 51 274q-27 129 -143.5 267.5t-263.5 230.5q-31 -55 -94 -53q-195 6 -337.5 -123t-185.5 -324q-23 -90 -10.5 -182zM490 1601q-4 26 10 46q49 74 116 194q27 45 39 64q27 39 56 49 q47 20 90 -15q23 -18 49 -57q12 -16 125 -209q14 -23 8 -48.5t-28.5 -38.5t-48 -7t-38.5 29q-113 190 -123 204l-18 -32q-72 -125 -125 -203q-14 -23 -39.5 -27t-47 10.5t-25.5 40.5z" />
<glyph unicode="&#xd5;" horiz-adv-x="1581" d="M10 628.5q0 98.5 19 198.5q49 233 217.5 406.5t412.5 198.5q-2 27 9 51q16 39 55 55t78 0q98 -41 203 -113q102 -74 194 -166t162 -205.5t92 -226.5q33 -162 -63 -393q-111 -266 -359 -389t-526 -41q-123 37 -217 102.5t-150.5 147.5t-91.5 179t-35 195.5zM216.5 602 q12.5 -92 49.5 -169t113 -138q76 -63 182 -94q203 -59 381 28q176 88 258 283q72 174 51 274q-27 129 -143.5 267.5t-263.5 230.5q-31 -55 -94 -53q-195 6 -337.5 -123t-185.5 -324q-23 -90 -10.5 -182zM379 1634.5q-4 24.5 10 44.5q88 125 191 123q53 -2 153 -61 q66 -39 98 -35q53 2 121 92q14 20 39 24.5t44.5 -11t23.5 -40t-12 -42.5q-100 -135 -207 -144q-70 -4 -168 53q-72 43 -94 45q-39 0 -91 -73q-14 -20 -38.5 -24.5t-45 10t-24.5 39z" />
<glyph unicode="&#xd6;" horiz-adv-x="1581" d="M10 628.5q0 98.5 19 198.5q49 233 217.5 406.5t412.5 198.5q-2 27 9 51q16 39 55 55t78 0q98 -41 203 -113q102 -74 194 -166t162 -205.5t92 -226.5q33 -162 -63 -393q-111 -266 -359 -389t-526 -41q-123 37 -217 102.5t-150.5 147.5t-91.5 179t-35 195.5zM216.5 602 q12.5 -92 49.5 -169t113 -138q76 -63 182 -94q203 -59 381 28q176 88 258 283q72 174 51 274q-27 129 -143.5 267.5t-263.5 230.5q-31 -55 -94 -53q-195 6 -337.5 -123t-185.5 -324q-23 -90 -10.5 -182zM479 1667q0 43 30 72.5t73 29.5t72.5 -29.5t29.5 -72.5t-29.5 -72.5 t-72.5 -29.5t-73 29.5t-30 72.5zM799 1651q0 43 29.5 72.5t72.5 29.5t73 -29.5t30 -72.5t-30 -73t-73 -30t-72.5 30t-29.5 73z" />
<glyph unicode="&#xd7;" horiz-adv-x="1134" d="M6 900q-2 42 26.5 74t70.5 34t75 -27l334 -307q186 207 328 346q31 29 72.5 29t71.5 -31t30 -73t-31 -73q-141 -137 -326 -342q182 -188 304 -358q25 -35 17.5 -77t-42.5 -66.5t-77 -17.5t-66 42q-109 154 -273 324l-325 -359q-29 -31 -71 -32.5t-73 28t-33 71.5t29 73 l328 364l-336 307q-31 29 -33 71z" />
<glyph unicode="&#xd8;" horiz-adv-x="1581" d="M16 53.5q-2 24.5 15 44.5l133 152q-94 129 -125 299t2 321q31 160 110.5 296.5t216 234.5t302.5 115q-6 33 6 61q18 39 58 54.5t77 -1.5q207 -94 381 -280l113 110q18 18 43.5 18.5t43 -18t17.5 -44t-18 -42.5l-119 -119q143 -188 180 -381q33 -170 -59 -413 q-68 -176 -200 -301t-307 -170t-374 14q-156 51 -266 154l-121 -142q-18 -18 -43 -20t-44.5 15.5t-21.5 42zM244 834q-47 -244 61 -426l744 796q-90 96 -195 168q-28 -59 -96 -57q-193 6 -334 -131t-180 -350zM383 311q80 -76 190 -110q201 -66 375 30.5t252 303.5 q72 188 51 299q-27 135 -125 274z" />
<glyph unicode="&#xd9;" horiz-adv-x="1363" d="M72 1321q-2 41 27.5 71.5t71.5 32.5t72.5 -27.5t32.5 -72.5q2 -45 2.5 -143.5t2.5 -145.5q2 -184 16 -313q39 -350 178 -494q78 -82 181.5 -90t191.5 58q90 63 125 178q51 166 63 489q12 328 -18 508q-8 43 17.5 77t67.5 41t75.5 -18.5t40.5 -66.5q35 -193 21.5 -547 t-71.5 -545q-41 -129 -138 -225t-215 -134t-251 -6t-237 138q-186 195 -234 614q-14 137 -18 332q-2 47 -2 144.5t-2 144.5zM409 1835q-1 29 18 49.5t48 21t49 -19.5l244 -239q20 -20 19 -48t-21.5 -48.5t-48 -19.5t-47.5 21l-240 236q-20 18 -21 47z" />
<glyph unicode="&#xda;" horiz-adv-x="1363" d="M72 1321q-2 41 27.5 71.5t71.5 32.5t72.5 -27.5t32.5 -72.5q2 -45 2.5 -143.5t2.5 -145.5q2 -184 16 -313q39 -350 178 -494q78 -82 181.5 -90t191.5 58q90 63 125 178q51 166 63 489q12 328 -18 508q-8 43 17.5 77t67.5 41t75.5 -18.5t40.5 -66.5q35 -193 21.5 -547 t-71.5 -545q-41 -129 -138 -225t-215 -134t-251 -6t-237 138q-186 195 -234 614q-14 137 -18 332q-2 47 -2 144.5t-2 144.5zM514 1599.5q0 28.5 21 49.5q68 68 215 231q18 20 46.5 21.5t50 -17t22.5 -47t-17 -51.5q-145 -162 -219 -236q-20 -20 -49 -20t-49.5 20.5t-20.5 49 z" />
<glyph unicode="&#xdb;" horiz-adv-x="1363" d="M72 1321q-2 41 27.5 71.5t71.5 32.5t72.5 -27.5t32.5 -72.5q2 -45 2.5 -143.5t2.5 -145.5q2 -184 16 -313q39 -350 178 -494q78 -82 181.5 -90t191.5 58q90 63 125 178q51 166 63 489q12 328 -18 508q-8 43 17.5 77t67.5 41t75.5 -18.5t40.5 -66.5q35 -193 21.5 -547 t-71.5 -545q-41 -129 -138 -225t-215 -134t-251 -6t-237 138q-186 195 -234 614q-14 137 -18 332q-2 47 -2 144.5t-2 144.5zM449 1547.5q-4 25.5 10 45.5q49 74 116 195q27 45 39 63q27 37 56 50q47 20 90 -15q23 -18 49 -57q8 -12 125 -207q14 -23 8 -48.5t-28.5 -38.5 t-48 -7t-38.5 28q-115 193 -122 203l-19 -33q-72 -125 -125 -202q-14 -23 -39.5 -27t-47 10.5t-25.5 40z" />
<glyph unicode="&#xdc;" horiz-adv-x="1363" d="M72 1321q-2 41 27.5 71.5t71.5 32.5t72.5 -27.5t32.5 -72.5q2 -45 2.5 -143.5t2.5 -145.5q2 -184 16 -313q39 -350 178 -494q78 -82 181.5 -90t191.5 58q90 63 125 178q51 166 63 489q12 328 -18 508q-8 43 17.5 77t67.5 41t75.5 -18.5t40.5 -66.5q35 -193 21.5 -547 t-71.5 -545q-41 -129 -138 -225t-215 -134t-251 -6t-237 138q-186 195 -234 614q-14 137 -18 332q-2 47 -2 144.5t-2 144.5zM436 1640q0 43 31 74t74 31t73.5 -31t30.5 -74t-30.5 -73.5t-73.5 -30.5t-74 30.5t-31 73.5zM756 1630q0 43 30.5 74t73.5 31t74 -31t31 -74 t-31 -73.5t-74 -30.5t-73.5 30.5t-30.5 73.5z" />
<glyph unicode="&#xdd;" horiz-adv-x="1271" d="M95.5 1410q13.5 40 51 59.5t77.5 6t61 -50.5q188 -375 413 -649q123 285 254 670q12 41 50 59.5t79 5t59.5 -51.5t4.5 -79q-137 -408 -287.5 -748.5t-347.5 -629.5q-23 -35 -65 -43t-76.5 15.5t-43 65.5t16.5 77q143 213 272 479q-39 6 -63 35q-244 297 -451 700 q-18 39 -4.5 79zM443 1595.5q1 28.5 22 46.5q74 74 213 230q18 23 47 24.5t50.5 -17.5t23 -48t-18.5 -49q-141 -162 -221 -238q-20 -20 -49 -19t-48.5 21.5t-18.5 49z" />
<glyph unicode="&#xde;" horiz-adv-x="1247" d="M61 761q0 120 4.5 301t14.5 331q2 43 33.5 71.5t74.5 25.5t72 -35t25 -75q-6 -94 -11 -194q254 10 320 8q246 -8 354 -88q72 -51 119 -130t57 -167q10 -92 -24.5 -177t-120.5 -138q-49 -31 -160 -54q-86 -18 -215 -30q-166 -17 -336 -23v-281q0 -43 -29.5 -72.5 t-72.5 -29.5t-73 29.5t-30 72.5q0 86 -1 310.5t-1 344.5zM268 510q164 6 324 22q123 12 203 29q90 16 118 35q104 68 88 199q-6 61 -39.5 118.5t-82.5 94.5q-80 55 -289 63q-55 2 -318 -8q-6 -213 -4 -553z" />
<glyph unicode="&#xdf;" horiz-adv-x="1318" d="M111 573q33 530 247 795q51 61 128 105.5t157 54.5q100 10 183 -37t124 -154q31 -104 17.5 -199.5t-60.5 -187.5q109 -39 190 -136t97 -204.5t-30 -210t-130 -180.5q-82 -76 -186.5 -117t-206.5 -28q-57 8 -123 51l-39 27q-18 12 -28 18q-39 20 -51.5 60t8 78t60.5 50.5 t77 -8.5q23 -10 49 -28l35 -25q29 -18 41 -18q49 -8 109.5 16t114.5 74.5t79.5 106.5t19.5 102q-8 49 -38.5 106t-71.5 90t-84 -6q12 12 18 6q2 -4 -2 -6l-31 -14q-35 -18 -63 -23q-74 -10 -119 45q-31 35 -29 78q0 41 27 74q20 23 57 43q4 2 15.5 8t17.5 8l2 2 q47 61 66.5 142t-0.5 133q-25 68 -90 59q-39 -4 -81 -27.5t-69 -58.5q-174 -211 -203 -676q-20 -324 27 -514q8 -41 -13.5 -78t-62.5 -46t-78 12.5t-47 62.5q-53 221 -30 575z" />
<glyph unicode="&#xe0;" horiz-adv-x="1343" d="M14 490.5q4 76.5 23 152.5q33 127 103.5 237.5t187 189.5t252.5 85q88 4 186 -35q29 33 72 33t73.5 -28.5t30.5 -71.5q0 -31 8 -285t6 -387q-2 -59 -2 -143v-21q4 -4 7.5 -11l5.5 -11v-2q10 2 19 7t16.5 11t26 18.5t34.5 24.5q35 23 77 14.5t65.5 -43.5t15 -77t-42.5 -66 q-4 -2 -25 -16l-37 -25q-16 -12 -39.5 -24.5t-46.5 -20.5q-123 -39 -242 57q-16 12 -26 31q-27 -25 -55 -43q-160 -106 -361 -47q-92 27 -158 80q-68 53 -105.5 118.5t-55 143.5t-13.5 154.5zM236 592q-39 -147 5 -257t162 -145q109 -33 189 21q66 43 160 178q2 125 -11 520 q-43 18 -59 24.5t-42 12.5t-52 4q-117 -4 -215.5 -106.5t-136.5 -251.5zM259 1497q3 29 24.5 47.5t50.5 15.5t47 -26q111 -133 199 -254q16 -23 12 -51.5t-26.5 -45t-51.5 -12t-45 26.5q-82 111 -195 250q-18 20 -15 49z" />
<glyph unicode="&#xe1;" horiz-adv-x="1343" d="M14 490.5q4 76.5 23 152.5q33 127 103.5 237.5t187 189.5t252.5 85q88 4 186 -35q29 33 72 33t73.5 -28.5t30.5 -71.5q0 -31 8 -285t6 -387q-2 -59 -2 -143v-21q4 -4 7.5 -11l5.5 -11v-2q10 2 19 7t16.5 11t26 18.5t34.5 24.5q35 23 77 14.5t65.5 -43.5t15 -77t-42.5 -66 q-4 -2 -25 -16l-37 -25q-16 -12 -39.5 -24.5t-46.5 -20.5q-123 -39 -242 57q-16 12 -26 31q-27 -25 -55 -43q-160 -106 -361 -47q-92 27 -158 80q-68 53 -105.5 118.5t-55 143.5t-13.5 154.5zM236 592q-39 -147 5 -257t162 -145q109 -33 189 21q66 43 160 178q2 125 -11 520 q-43 18 -59 24.5t-42 12.5t-52 4q-117 -4 -215.5 -106.5t-136.5 -251.5zM355 1246.5q-3 27.5 16 49.5l194 250q16 23 45 27t51.5 -12.5t26.5 -45t-12 -51.5l-199 -254q-18 -23 -46 -25.5t-50.5 16t-25.5 46z" />
<glyph unicode="&#xe2;" horiz-adv-x="1343" d="M14 490.5q4 76.5 23 152.5q33 127 103.5 237.5t187 189.5t252.5 85q88 4 186 -35q29 33 72 33t73.5 -28.5t30.5 -71.5q0 -31 8 -285t6 -387q-2 -59 -2 -143v-21q4 -4 7.5 -11l5.5 -11v-2q10 2 19 7t16.5 11t26 18.5t34.5 24.5q35 23 77 14.5t65.5 -43.5t15 -77t-42.5 -66 q-4 -2 -25 -16l-37 -25q-16 -12 -39.5 -24.5t-46.5 -20.5q-123 -39 -242 57q-16 12 -26 31q-27 -25 -55 -43q-160 -106 -361 -47q-92 27 -158 80q-68 53 -105.5 118.5t-55 143.5t-13.5 154.5zM236 592q-39 -147 5 -257t162 -145q109 -33 189 21q66 43 160 178q2 125 -11 520 q-43 18 -59 24.5t-42 12.5t-52 4q-117 -4 -215.5 -106.5t-136.5 -251.5zM271.5 1224q-4.5 26 11.5 46q47 72 116 196q27 47 39 64q27 37 56 49q47 20 90 -14q23 -18 49 -58q12 -18 125 -209q14 -23 8 -48t-28.5 -38.5t-48 -7.5t-38.5 29l-123 205l-18 -33 q-74 -129 -125 -205q-14 -23 -40 -28t-47.5 10.5t-26 41.5zM506 1466l4 -2q-2 2 -4 2z" />
<glyph unicode="&#xe3;" horiz-adv-x="1343" d="M14 490.5q4 76.5 23 152.5q33 127 103.5 237.5t187 189.5t252.5 85q88 4 186 -35q29 33 72 33t73.5 -28.5t30.5 -71.5q0 -31 8 -285t6 -387q-2 -59 -2 -143v-21q4 -4 7.5 -11l5.5 -11v-2q10 2 19 7t16.5 11t26 18.5t34.5 24.5q35 23 77 14.5t65.5 -43.5t15 -77t-42.5 -66 q-4 -2 -25 -16l-37 -25q-16 -12 -39.5 -24.5t-46.5 -20.5q-123 -39 -242 57q-16 12 -26 31q-27 -25 -55 -43q-160 -106 -361 -47q-92 27 -158 80q-68 53 -105.5 118.5t-55 143.5t-13.5 154.5zM172 1270q-4 25 10 45q88 125 191 123q53 -2 153 -62q66 -39 99 -35q53 2 120 93 q14 20 39 24t44.5 -11t23.5 -40t-12 -43q-100 -135 -207 -143q-70 -4 -168 53q-72 43 -94 45q-39 0 -90 -74q-14 -20 -39 -24t-45.5 10t-24.5 39zM236 592q-39 -147 5 -257t162 -145q109 -33 189 21q66 43 160 178q2 125 -11 520q-43 18 -59 24.5t-42 12.5t-52 4 q-117 -4 -215.5 -106.5t-136.5 -251.5z" />
<glyph unicode="&#xe4;" horiz-adv-x="1343" d="M14 490.5q4 76.5 23 152.5q33 127 103.5 237.5t187 189.5t252.5 85q88 4 186 -35q29 33 72 33t73.5 -28.5t30.5 -71.5q0 -31 8 -285t6 -387q-2 -59 -2 -143v-21q4 -4 7.5 -11l5.5 -11v-2q10 2 19 7t16.5 11t26 18.5t34.5 24.5q35 23 77 14.5t65.5 -43.5t15 -77t-42.5 -66 q-4 -2 -25 -16l-37 -25q-16 -12 -39.5 -24.5t-46.5 -20.5q-123 -39 -242 57q-16 12 -26 31q-27 -25 -55 -43q-160 -106 -361 -47q-92 27 -158 80q-68 53 -105.5 118.5t-55 143.5t-13.5 154.5zM236 592q-39 -147 5 -257t162 -145q109 -33 189 21q66 43 160 178q2 125 -11 520 q-43 18 -59 24.5t-42 12.5t-52 4q-117 -4 -215.5 -106.5t-136.5 -251.5zM256 1331q0 43 30.5 74t73.5 31t74 -31t31 -74t-31 -73.5t-74 -30.5t-73.5 30.5t-30.5 73.5zM563 1346q0 43 31 73.5t74 30.5t73.5 -30.5t30.5 -73.5t-30.5 -74t-73.5 -31t-74 31t-31 74z" />
<glyph unicode="&#xe5;" horiz-adv-x="1343" d="M14 490.5q4 76.5 23 152.5q33 127 103.5 237.5t187 189.5t252.5 85q88 4 186 -35q29 33 72 33t73.5 -28.5t30.5 -71.5q0 -31 8 -285t6 -387q-2 -59 -2 -143v-21q4 -4 7.5 -11l5.5 -11v-2q10 2 19 7t16.5 11t26 18.5t34.5 24.5q35 23 77 14.5t65.5 -43.5t15 -77t-42.5 -66 q-4 -2 -25 -16l-37 -25q-16 -12 -39.5 -24.5t-46.5 -20.5q-123 -39 -242 57q-16 12 -26 31q-27 -25 -55 -43q-160 -106 -361 -47q-92 27 -158 80q-68 53 -105.5 118.5t-55 143.5t-13.5 154.5zM236 592q-39 -147 5 -257t162 -145q109 -33 189 21q66 43 160 178q2 125 -11 520 q-43 18 -59 24.5t-42 12.5t-52 4q-117 -4 -215.5 -106.5t-136.5 -251.5zM332 1425q6 70 57 118t135 54q23 4 41 5q76 -4 112 -64.5t28 -130.5q-8 -74 -57.5 -128t-129.5 -54q-90 0 -141 61.5t-45 138.5zM412 1419q-4 -45 24.5 -78.5t81.5 -33.5q43 0 71.5 30.5t35.5 77.5 q8 80 -43 101h-4q-23 4 -41 2q-8 -2 -19 -5l-57 -16q-45 -27 -49 -78z" />
<glyph unicode="&#xe6;" horiz-adv-x="1804" d="M35 326q-47 213 59 448q49 109 127 197t174 135q100 57 223 50t238 -87q28 -20 53 -49q25 -18 37 -47l6 -10l6 -11q158 170 361 178q20 0 41.5 -1t37 -3t38 -8t33 -8t34 -12.5t27.5 -11.5t28.5 -12t26.5 -11q10 -4 19 -8q39 -18 54 -56t-1 -77v-2v-15q0 -59 -21 -100 q-39 -84 -151 -160q-82 -57 -207 -117q-109 -49 -317 -129q2 -37 14 -71q6 -12 10 -27q45 -102 158 -135q109 -33 188 20q63 43 166 189q25 35 67 42t76.5 -17.5t42 -66.5t-17.5 -77q-123 -176 -219 -240q-160 -106 -361 -47q-84 25 -147 72q-27 -51 -84 -57 q-35 -2 -63.5 15t-42.5 46l-56 -25q-106 -49 -153 -55q-70 -10 -185 25q-131 39 -211 129q-80 88 -108 207zM236 371q33 -141 176 -185q74 -23 100 -18q16 2 94 37q81 37 99 49q-12 23 -13 47q0 27 -2 135.5t-1 163.5t11.5 145.5t28.5 161.5q-121 80 -242 17 q-129 -66 -206 -236q-78 -172 -45 -317zM997 633q111 43 193 82q113 51 178 98q66 45 84 78v6q-74 31 -125 29q-100 -4 -190 -85t-140 -208z" />
<glyph unicode="&#xe7;" horiz-adv-x="1062" d="M-4 489.5q0 75.5 10 149.5q14 96 55 183t104.5 161t158 115t206.5 35q137 -8 201 -46q25 -16 64 -53l73 -65q33 -27 37 -69t-23.5 -74.5t-69.5 -37t-75 24.5q-31 25 -80 70q-29 25 -34 30q-18 10 -105 15q-117 6 -202 -83t-109.5 -237.5t27 -262.5t155.5 -144 q70 -20 126 -14t116 44q16 10 27.5 21.5t23.5 32t18.5 34t20.5 50.5l24 55q18 37 58.5 52.5t78.5 -2t53 -57.5t-1 -79q-4 -6 -20.5 -46t-28 -61.5t-33 -57.5t-49 -63.5t-62.5 -50.5q-131 -84 -272 -79l-31 -43q80 4 137 -27q49 -27 71 -74t11 -98q-20 -104 -133 -148 q-111 -41 -266 13q-25 8 -35 31.5t-2 47t31.5 34t46.5 1.5q84 -33 137 -22.5t76 29t25 38.5q6 25 -21 39q-51 29 -164 -6q-25 -6 -47 5.5t-31 35.5q-2 10 -2 21q-6 25 11 45q55 61 77 94l-28 8q-84 25 -148.5 76t-102.5 115.5t-61.5 141.5t-23.5 152.5z" />
<glyph unicode="&#xe8;" horiz-adv-x="1128" d="M22.5 486.5q4.5 76.5 22.5 152.5q33 127 103.5 237.5t187.5 189.5t252 85q35 2 67.5 -2t66.5 -14.5t53.5 -17.5t53 -22.5t41.5 -19.5q40 -16 56 -55h4q41 -10 62.5 -46t13.5 -79q-2 -4 -5 -16q-4 -31 -4 -33q-8 -57 -32 -96q-86 -129 -398 -220q-109 -33 -342 -84 q4 -96 51.5 -164.5t135.5 -95.5q74 -23 100 -18q16 2 94 37q88 41 105 53q10 8 32 31l74 65q31 29 73 27t70.5 -34t26.5 -74t-35 -70l-67 -64q-31 -31 -49 -43q-33 -25 -144 -76q-109 -49 -153 -55q-70 -10 -185 25q-92 27 -158.5 80t-104.5 118.5t-55.5 143.5t-13 154.5z M259 1497q3 29 24.5 47.5t50.5 15.5t47 -26q111 -133 199 -254q16 -23 12 -51.5t-26.5 -45t-51.5 -12t-45 26.5q-82 111 -195 250q-18 20 -15 49zM268 666q143 31 242 61q240 70 283 137l2 13q2 4 2 8q-2 0 -4 2l-52 22l-43 17q-12 6 -31.5 12t-36 7t-34.5 1 q-100 -4 -189.5 -82t-138.5 -198z" />
<glyph unicode="&#xe9;" horiz-adv-x="1128" d="M22.5 486.5q4.5 76.5 22.5 152.5q33 127 103.5 237.5t187.5 189.5t252 85q35 2 67.5 -2t66.5 -14.5t53.5 -17.5t53 -22.5t41.5 -19.5q40 -16 56 -55h4q41 -10 62.5 -46t13.5 -79q-2 -4 -5 -16q-4 -31 -4 -33q-8 -57 -32 -96q-86 -129 -398 -220q-109 -33 -342 -84 q4 -96 51.5 -164.5t135.5 -95.5q74 -23 100 -18q16 2 94 37q88 41 105 53q10 8 32 31l74 65q31 29 73 27t70.5 -34t26.5 -74t-35 -70l-67 -64q-31 -31 -49 -43q-33 -25 -144 -76q-109 -49 -153 -55q-70 -10 -185 25q-92 27 -158.5 80t-104.5 118.5t-55.5 143.5t-13 154.5z M268 666q143 31 242 61q240 70 283 137l2 13q2 4 2 8q-2 0 -4 2l-52 22l-43 17q-12 6 -31.5 12t-36 7t-34.5 1q-100 -4 -189.5 -82t-138.5 -198zM356 1235q-2 29 19 49q61 72 196 246q18 23 47 26t51.5 -14.5t25.5 -46t-13 -51.5q-139 -176 -205 -250q-18 -23 -47 -25 t-50.5 17.5t-23.5 48.5z" />
<glyph unicode="&#xea;" horiz-adv-x="1128" d="M22.5 486.5q4.5 76.5 22.5 152.5q33 127 103.5 237.5t187.5 189.5t252 85q35 2 67.5 -2t66.5 -14.5t53.5 -17.5t53 -22.5t41.5 -19.5q40 -16 56 -55h4q41 -10 62.5 -46t13.5 -79q-2 -4 -5 -16q-4 -31 -4 -33q-8 -57 -32 -96q-86 -129 -398 -220q-109 -33 -342 -84 q4 -96 51.5 -164.5t135.5 -95.5q74 -23 100 -18q16 2 94 37q88 41 105 53q10 8 32 31l74 65q31 29 73 27t70.5 -34t26.5 -74t-35 -70l-67 -64q-31 -31 -49 -43q-33 -25 -144 -76q-109 -49 -153 -55q-70 -10 -185 25q-92 27 -158.5 80t-104.5 118.5t-55.5 143.5t-13 154.5z M268 666q143 31 242 61q240 70 283 137l2 13q2 4 2 8q-2 0 -4 2l-52 22l-43 17q-12 6 -31.5 12t-36 7t-34.5 1q-100 -4 -189.5 -82t-138.5 -198zM284 1203.5q-5 25.5 11 45.5q47 72 117 197q27 47 39 63q27 37 55 50q47 20 90 -15q23 -18 49 -57q12 -18 125 -209 q14 -23 8 -48.5t-28.5 -38.5t-48 -7t-37.5 28l-123 205l-19 -33q-74 -129 -125 -204q-14 -23 -39.5 -28t-47 10.5t-26.5 41zM518 1446l4 -2q-2 2 -4 2z" />
<glyph unicode="&#xeb;" horiz-adv-x="1128" d="M22.5 486.5q4.5 76.5 22.5 152.5q33 127 103.5 237.5t187.5 189.5t252 85q35 2 67.5 -2t66.5 -14.5t53.5 -17.5t53 -22.5t41.5 -19.5q40 -16 56 -55h4q41 -10 62.5 -46t13.5 -79q-2 -4 -5 -16q-4 -31 -4 -33q-8 -57 -32 -96q-86 -129 -398 -220q-109 -33 -342 -84 q4 -96 51.5 -164.5t135.5 -95.5q74 -23 100 -18q16 2 94 37q88 41 105 53q10 8 32 31l74 65q31 29 73 27t70.5 -34t26.5 -74t-35 -70l-67 -64q-31 -31 -49 -43q-33 -25 -144 -76q-109 -49 -153 -55q-70 -10 -185 25q-92 27 -158.5 80t-104.5 118.5t-55.5 143.5t-13 154.5z M268 666q143 31 242 61q240 70 283 137l2 13q2 4 2 8q-2 0 -4 2l-52 22l-43 17q-12 6 -31.5 12t-36 7t-34.5 1q-100 -4 -189.5 -82t-138.5 -198zM272 1331q0 41 30 71t71 30t70.5 -30t29.5 -71t-29.5 -70.5t-70.5 -29.5t-71 29.5t-30 70.5zM580 1354q0 41 29.5 70.5 t70.5 29.5t70.5 -29.5t29.5 -70.5t-29.5 -71t-70.5 -30t-70.5 30t-29.5 71z" />
<glyph unicode="&#xec;" horiz-adv-x="471" d="M5 1507q3 29 24.5 47.5t50.5 15.5t47 -26q111 -133 199 -254q16 -23 12 -51.5t-26.5 -44.5t-51.5 -12t-45 26q-82 111 -195 250q-18 20 -15 49zM139 979q0 41 31 70.5t73 29.5t71.5 -30.5t29.5 -73.5q-2 -147 3 -438t3 -435q0 -43 -30.5 -72.5t-72.5 -29.5t-72 30.5 t-30 71.5q2 145 -3 436t-3 441z" />
<glyph unicode="&#xed;" horiz-adv-x="559" d="M84 1259.5q0 28.5 20 49.5q80 80 215 231q18 23 47 25t50.5 -17.5t23.5 -48.5t-18 -49q-135 -156 -219 -240q-20 -20 -49 -20t-49.5 20.5t-20.5 49zM129 983q0 41 30.5 70.5t72.5 29.5t72 -30.5t30 -73.5q-2 -147 3 -438t3 -435q0 -43 -30.5 -72.5t-72.5 -29.5t-72 31 t-30 71q2 145 -3 436.5t-3 440.5z" />
<glyph unicode="&#xee;" horiz-adv-x="606" d="M-9 1203.5q-5 25.5 11 45.5q47 72 117 197q27 47 39 63q27 37 55 50q47 20 90 -15q23 -18 49 -57q12 -18 125 -209q14 -23 8 -48.5t-28.5 -38.5t-48 -7t-37.5 28l-123 205l-19 -33q-74 -129 -125 -204q-14 -23 -39.5 -28t-47 10.5t-26.5 41zM133 977q0 41 31 70.5 t73 29.5t71.5 -30.5t29.5 -73.5q-2 -147 3 -438t3 -435q0 -43 -30.5 -72.5t-72.5 -29.5t-72 30.5t-30 71.5q2 145 -3 436t-3 441zM225 1446l4 -2q-2 2 -4 2z" />
<glyph unicode="&#xef;" horiz-adv-x="604" d="M-16 1331q0 43 30.5 74t73.5 31t74 -31t31 -74t-31 -73.5t-74 -30.5t-73.5 30.5t-30.5 73.5zM123 983q0 41 30.5 70.5t72.5 29.5t72 -30.5t30 -73.5q-2 -147 3 -438t3 -435q0 -43 -31 -72.5t-73 -29.5t-71.5 31t-29.5 71q2 145 -3 436.5t-3 440.5zM274 1333q0 43 31 74 t74 31t73.5 -31t30.5 -74t-30.5 -73.5t-73.5 -30.5t-74 30.5t-31 73.5z" />
<glyph unicode="&#xf0;" horiz-adv-x="1122" d="M72.5 358.5q-19.5 110.5 17.5 234.5t133 234q84 96 154 150q100 74 188 113l-2 2q-80 115 -205 213q-70 -45 -129 -88q-18 -14 -42.5 -11.5t-39 22t-11.5 44t24 39.5q45 35 98 69l-49 35q-37 27 -44 69t18.5 77.5t67.5 43t77 -17.5l123 -88l127 76q20 12 44.5 6t37 -26.5 t6 -45t-26.5 -36.5l-92 -54q109 -94 188 -205l35 -53q41 14 79 -4t52 -59q23 -66 -29 -113q37 -70 60 -127q90 -217 65 -364q-18 -127 -75.5 -206t-163.5 -171q-104 -90 -221 -110.5t-215.5 21.5t-163.5 132q-66 88 -85.5 198.5zM278.5 392q12.5 -60 45.5 -107 q33 -43 75.5 -63.5t103 -8.5t120.5 63q86 74 122 123q35 49 48 127q12 90 -54 254q-24 57 -63 129q-82 -31 -172 -100q-51 -37 -125 -121q-66 -74 -88 -156q-25 -80 -12.5 -140z" />
<glyph unicode="&#xf1;" horiz-adv-x="1060" d="M66 680l4 35q2 162 0 256q0 43 29.5 73.5t71.5 30.5t72.5 -29.5t30.5 -70.5v-17q39 37 68 54q66 39 154 55t170 0q98 -16 169.5 -81.5t82.5 -178.5q8 -100 12 -216t6 -258.5t4 -217.5q2 -43 -27.5 -74t-71.5 -33t-73 28t-33 70q-2 78 -4 216.5t-5 252t-13 216.5 q-4 61 -84 75q-45 8 -96.5 -1t-88.5 -29q-27 -16 -100 -103l-70 -84q-2 -358 11 -555q2 -41 -26 -73.5t-70 -34.5t-74.5 25.5t-34.5 70.5q-12 197 -10 563q-6 0 -4 35zM213 1268q-4 25 10 45q88 125 191 123q53 -2 153 -62q66 -39 99 -35q53 2 120 93q14 20 39 24t44.5 -11 t23.5 -40t-12 -43q-100 -135 -207 -143q-70 -4 -168 53q-72 43 -94 45q-39 0 -90 -74q-14 -20 -39 -24.5t-45.5 10t-24.5 39.5z" />
<glyph unicode="&#xf2;" horiz-adv-x="1095" d="M10 506q-4 92 18.5 183t72 172t136.5 137.5t201 70.5q55 8 133 -6q41 0 80 -8q190 -43 289 -307q43 -119 33 -244t-68 -236q-61 -119 -168 -190q-109 -74 -248 -76q-111 0 -201.5 44t-148 118t-90.5 162t-39 180zM213 518q8 -137 84 -225t192 -86q156 0 236 155 q39 72 46 157t-19 155q-51 135 -115 170q-18 2 -82 14q-72 -4 -205 -61q-24 -13 -49 -9q-98 -100 -88 -270zM254 1480.5q2 28.5 23.5 48t50.5 18t47 -24.5q135 -154 209 -250q16 -23 12 -50.5t-26.5 -45t-50 -13.5t-46.5 27q-70 90 -201 242q-20 20 -18 48.5z" />
<glyph unicode="&#xf3;" horiz-adv-x="1095" d="M10 506q-4 92 18.5 183t72 172t136.5 137.5t201 70.5q55 8 133 -6q41 0 80 -8q190 -43 289 -307q43 -119 33 -244t-68 -236q-61 -119 -168 -190q-109 -74 -248 -76q-111 0 -201.5 44t-148 118t-90.5 162t-39 180zM213 518q8 -137 84 -225t192 -86q156 0 236 155 q39 72 46 157t-19 155q-51 135 -115 170q-18 2 -82 14q-72 -4 -205 -61q-24 -13 -49 -9q-98 -100 -88 -270zM315 1228.5q0 28.5 21 49.5q80 80 215 231q18 23 47 25t50.5 -17.5t23 -48.5t-18.5 -49q-135 -156 -219 -239q-20 -20 -49 -20.5t-49.5 20t-20.5 49z" />
<glyph unicode="&#xf4;" horiz-adv-x="1095" d="M10 506q-4 92 18.5 183t72 172t136.5 137.5t201 70.5q55 8 133 -6q41 0 80 -8q190 -43 289 -307q43 -119 33 -244t-68 -236q-61 -119 -168 -190q-109 -74 -248 -76q-111 0 -201.5 44t-148 118t-90.5 162t-39 180zM213 518q8 -137 84 -225t192 -86q156 0 236 155 q39 72 46 157t-19 155q-51 135 -115 170q-18 2 -82 14q-72 -4 -205 -61q-24 -13 -49 -9q-98 -100 -88 -270zM247 1189q-5 26 11 46q47 72 117 197q27 47 39 63q27 37 55 49q47 20 90 -14q23 -18 49 -57q12 -18 125 -209q14 -23 8 -48.5t-28.5 -39t-48 -7t-37.5 28.5 l-123 205l-19 -33q-74 -129 -125 -205q-14 -23 -39.5 -27.5t-47 10.5t-26.5 41zM481 1432l4 -2q-2 2 -4 2z" />
<glyph unicode="&#xf5;" horiz-adv-x="1095" d="M10 506q-4 92 18.5 183t72 172t136.5 137.5t201 70.5q55 8 133 -6q41 0 80 -8q190 -43 289 -307q43 -119 33 -244t-68 -236q-61 -119 -168 -190q-109 -74 -248 -76q-111 0 -201.5 44t-148 118t-90.5 162t-39 180zM172 1270q-4 25 10 45q88 125 191 123q53 -2 153 -62 q66 -39 99 -35q53 2 120 93q14 20 39 24t44.5 -11t23.5 -40t-12 -43q-100 -135 -207 -143q-70 -4 -168 53q-72 43 -94 45q-39 0 -90 -74q-14 -20 -39 -24t-45.5 10t-24.5 39zM213 518q8 -137 84 -225t192 -86q156 0 236 155q39 72 46 157t-19 155q-51 135 -115 170 q-18 2 -82 14q-72 -4 -205 -61q-24 -13 -49 -9q-98 -100 -88 -270z" />
<glyph unicode="&#xf6;" horiz-adv-x="1095" d="M10 506q-4 92 18.5 183t72 172t136.5 137.5t201 70.5q55 8 133 -6q41 0 80 -8q190 -43 289 -307q43 -119 33 -244t-68 -236q-61 -119 -168 -190q-109 -74 -248 -76q-111 0 -201.5 44t-148 118t-90.5 162t-39 180zM213 518q8 -137 84 -225t192 -86q156 0 236 155 q39 72 46 157t-19 155q-51 135 -115 170q-18 2 -82 14q-72 -4 -205 -61q-24 -13 -49 -9q-98 -100 -88 -270zM246 1319q0 43 30.5 73.5t73.5 30.5t74 -30.5t31 -73.5t-31 -74t-74 -31t-73.5 31t-30.5 74zM575 1325q0 43 31 74t74 31t73.5 -31t30.5 -74t-30.5 -73.5 t-73.5 -30.5t-74 30.5t-31 73.5z" />
<glyph unicode="&#xf7;" horiz-adv-x="1316" d="M-5 515q-3 42 23.5 73t67.5 35q356 27 1010 26q41 0 70.5 -29.5t29.5 -70.5t-29.5 -70.5t-70.5 -29.5q-647 0 -994 -27q-43 -2 -73.5 24.5t-33.5 68.5zM451 158q0 43 30.5 73.5t73.5 30.5t73.5 -30.5t30.5 -73.5t-30.5 -74t-73.5 -31t-73.5 31t-30.5 74zM461 936 q0 43 30.5 73.5t73.5 30.5t74 -30.5t31 -73.5t-31 -74t-74 -31t-73.5 31t-30.5 74z" />
<glyph unicode="&#xf8;" horiz-adv-x="1204" d="M39 27.5q-2 17.5 10 29.5l117 136q-88 135 -98 307q-6 96 16 190t72.5 177t139.5 141.5t206 72.5q59 8 139 -6q10 -4 29 -6q27 -2 51 -8q102 -20 176 -92l117 114q12 12 29.5 12.5t28.5 -12t11 -30t-12 -27.5l-123 -121q47 -70 74 -166q33 -113 24.5 -245t-61.5 -242 q-57 -123 -166.5 -196.5t-263.5 -75.5q-203 0 -338 147l-106 -123q-10 -12 -27.5 -14t-30 9t-14.5 28.5zM268 512q6 -88 39 -160l447 473q-20 18 -45 29q-23 4 -64 12q-90 2 -235 -61q-25 -12 -52 -8q-100 -106 -90 -285zM354 279q80 -96 201 -95q172 0 248 156 q35 74 41 167t-19 179q-10 39 -24 70z" />
<glyph unicode="&#xf9;" horiz-adv-x="1071" d="M66 507q0 77 4 231.5t4 230.5q0 43 30.5 72.5t72.5 29.5t72 -30.5t30 -71.5q0 -78 -4.5 -228.5t-4.5 -226.5t4 -229q2 -35 20.5 -53.5t57.5 -22.5q45 -6 97.5 6t85.5 37q55 39 198 176q-6 236 2 557q0 43 31 71.5t74 28.5t71.5 -30.5t28.5 -73.5q-12 -530 10 -877 q2 -41 -25.5 -73.5t-69.5 -34.5t-74.5 25.5t-35.5 70.5l-4 66q-49 -45 -84 -70q-68 -49 -157.5 -71.5t-173.5 -10.5q-104 12 -177 81t-79 189q-4 154 -4 231zM259 1497q3 29 24.5 47.5t50.5 15.5t47 -26q111 -133 199 -254q16 -23 12 -51.5t-26.5 -45t-51.5 -12t-45 26.5 q-82 111 -195 250q-18 20 -15 49z" />
<glyph unicode="&#xfa;" horiz-adv-x="1071" d="M66 507q0 77 4 231.5t4 230.5q0 43 30.5 72.5t72.5 29.5t72 -30.5t30 -71.5q0 -78 -4.5 -228.5t-4.5 -226.5t4 -229q2 -35 20.5 -53.5t57.5 -22.5q45 -6 97.5 6t85.5 37q55 39 198 176q-6 236 2 557q0 43 31 71.5t74 28.5t71.5 -30.5t28.5 -73.5q-12 -530 10 -877 q2 -41 -25.5 -73.5t-69.5 -34.5t-74.5 25.5t-35.5 70.5l-4 66q-49 -45 -84 -70q-68 -49 -157.5 -71.5t-173.5 -10.5q-104 12 -177 81t-79 189q-4 154 -4 231zM328 1237q0 29 20 49q80 80 215 232q18 23 47 24.5t50.5 -18t23.5 -48.5t-18 -49q-135 -156 -220 -239 q-20 -20 -48.5 -20.5t-49 20t-20.5 49.5z" />
<glyph unicode="&#xfb;" horiz-adv-x="1071" d="M66 507q0 77 4 231.5t4 230.5q0 43 30.5 72.5t72.5 29.5t72 -30.5t30 -71.5q0 -78 -4.5 -228.5t-4.5 -226.5t4 -229q2 -35 20.5 -53.5t57.5 -22.5q45 -6 97.5 6t85.5 37q55 39 198 176q-6 236 2 557q0 43 31 71.5t74 28.5t71.5 -30.5t28.5 -73.5q-12 -530 10 -877 q2 -41 -25.5 -73.5t-69.5 -34.5t-74.5 25.5t-35.5 70.5l-4 66q-49 -45 -84 -70q-68 -49 -157.5 -71.5t-173.5 -10.5q-104 12 -177 81t-79 189q-4 154 -4 231zM243 1189q-5 26 11 46q47 72 117 197q27 47 39 63q27 37 55 49q47 20 90 -14q23 -18 49 -57q12 -18 125 -209 q14 -23 8 -48.5t-28.5 -39t-48 -7t-37.5 28.5l-123 205l-19 -33q-74 -129 -125 -205q-14 -23 -39.5 -27.5t-47 10.5t-26.5 41zM477 1432l4 -2q-2 2 -4 2z" />
<glyph unicode="&#xfc;" horiz-adv-x="1071" d="M66 507q0 77 4 231.5t4 230.5q0 43 30.5 72.5t72.5 29.5t72 -30.5t30 -71.5q0 -78 -4.5 -228.5t-4.5 -226.5t4 -229q2 -35 20.5 -53.5t57.5 -22.5q45 -6 97.5 6t85.5 37q55 39 198 176q-6 236 2 557q0 43 31 71.5t74 28.5t71.5 -30.5t28.5 -73.5q-12 -530 10 -877 q2 -41 -25.5 -73.5t-69.5 -34.5t-74.5 25.5t-35.5 70.5l-4 66q-49 -45 -84 -70q-68 -49 -157.5 -71.5t-173.5 -10.5q-104 12 -177 81t-79 189q-4 154 -4 231zM240 1331q0 43 30.5 74t73.5 31t74 -31t31 -74t-31 -73.5t-74 -30.5t-73.5 30.5t-30.5 73.5zM545 1329 q0 43 30.5 74t73.5 31t74 -31t31 -74t-31 -73.5t-74 -30.5t-73.5 30.5t-30.5 73.5z" />
<glyph unicode="&#xfd;" horiz-adv-x="1030" d="M-3 996.5q13 39.5 51 59t78 6.5t60 -50q160 -317 342 -557l97 319l84 283q12 41 50 60.5t79 7t60 -50.5t7 -79l-69 -237l-80 -262q-31 -102 -88.5 -256t-113.5 -262.5t-142 -228.5t-187 -208q-31 -29 -72.5 -26.5t-70.5 34t-27 73.5t35 71q209 188 354 536 q-240 293 -442 689q-18 39 -5 78.5zM303 1216.5q0 28.5 21 49.5q80 80 215 231q18 23 46.5 25t50 -17.5t23.5 -48.5t-18 -49q-135 -156 -219 -240q-20 -20 -49 -20t-49.5 20.5t-20.5 49z" />
<glyph unicode="&#xfe;" horiz-adv-x="1026" d="M41 1505q-2 43 26.5 76t71.5 35t76 -26.5t35 -71.5q4 -66 17.5 -256.5t17.5 -294.5q94 86 215 98q102 10 193 -38t145 -153q66 -131 67 -329q4 -211 -71 -336q-72 -117 -166.5 -177.5t-197.5 -56t-196 73.5q-6 -236 -2 -405q0 -43 -29.5 -75t-72.5 -32t-75 30t-32 73 q-4 203 9 641q12 424 6 630q-4 115 -21 330q-14 207 -16 264zM279 217q88 -115 196 -119q141 -6 252 176q59 94 57 269q-4 170 -57 274q-35 72 -92 102.5t-121.5 23.5t-122 -48t-90.5 -111q-4 -8 -12 -16q2 -176 -8 -494z" />
<glyph unicode="&#xff;" horiz-adv-x="1030" d="M-3 996.5q13 39.5 51 59t78 6.5t60 -50q160 -317 342 -557l97 319l84 283q12 41 50 60.5t79 7t60 -50.5t7 -79l-69 -237l-80 -262q-31 -102 -88.5 -256t-113.5 -262.5t-142 -228.5t-187 -208q-31 -29 -72.5 -26.5t-70.5 34t-27 73.5t35 71q209 188 354 536 q-240 293 -442 689q-18 39 -5 78.5zM221 1352q0 43 31 73.5t74 30.5t73.5 -30.5t30.5 -73.5t-30.5 -74t-73.5 -31t-74 31t-31 74zM508 1337q0 43 30.5 74t73.5 31t74 -31t31 -74t-31 -73.5t-74 -30.5t-73.5 30.5t-30.5 73.5z" />
<glyph unicode="&#x153;" horiz-adv-x="1855" d="M10 506q-4 92 18.5 183t72 172t136.5 137.5t201 70.5q55 8 133 -6q41 0 80 -8q152 -35 244 -207q78 121 190.5 196.5t249.5 81.5q35 2 68 -2t66.5 -14t53 -17.5t53.5 -22.5t42 -19q31 -12 49 -41q29 -16 44 -48t7 -67q-2 -4 -4 -16q-4 -31 -4 -33q-8 -57 -33 -96 q-86 -127 -397 -220q-117 -35 -305 -75q-6 -111 42 -188t142 -105q74 -23 101 -19q16 2 94 37q88 41 104 53q10 8 33 31l74 66q31 29 72.5 26.5t70.5 -34t27 -73.5t-35 -71l-68 -63q-31 -31 -49 -43q-33 -25 -143 -76q-109 -49 -154 -55q-70 -10 -184 24q-178 53 -264 201 q-139 -162 -349 -164q-111 0 -201.5 44t-148 118t-90.5 162t-39 180zM213 518q8 -137 84 -225t192 -86q156 0 236 155q31 57 43 125q-6 12 -10 25q-8 41 12 76q-4 47 -18 86q-51 135 -115 170q-18 2 -82 14q-72 -4 -205 -61q-25 -12 -49 -9q-98 -100 -88 -270zM1032 678 q102 23 191 49q240 72 282 137l2 4v6q-4 4 -22.5 11.5t-21.5 8.5t-18 8t-17.5 7t-16.5 5.5t-15 3t-16.5 2t-17.5 2.5t-19 0q-92 -4 -175 -71t-136 -173z" />
<glyph unicode="&#x2000;" horiz-adv-x="980" />
<glyph unicode="&#x2001;" horiz-adv-x="1961" />
<glyph unicode="&#x2002;" horiz-adv-x="980" />
<glyph unicode="&#x2003;" horiz-adv-x="1961" />
<glyph unicode="&#x2004;" horiz-adv-x="653" />
<glyph unicode="&#x2005;" horiz-adv-x="490" />
<glyph unicode="&#x2006;" horiz-adv-x="326" />
<glyph unicode="&#x2007;" horiz-adv-x="326" />
<glyph unicode="&#x2008;" horiz-adv-x="245" />
<glyph unicode="&#x2009;" horiz-adv-x="392" />
<glyph unicode="&#x200a;" horiz-adv-x="108" />
<glyph unicode="&#x2010;" horiz-adv-x="927" d="M46 538.5q1 36.5 27.5 62.5t63.5 26q184 -4 578 8q37 2 64.5 -22.5t28.5 -61.5t-23.5 -64.5t-61.5 -27.5q-401 -14 -590 -13q-37 2 -62.5 29t-24.5 63.5z" />
<glyph unicode="&#x2011;" horiz-adv-x="927" d="M46 538.5q1 36.5 27.5 62.5t63.5 26q184 -4 578 8q37 2 64.5 -22.5t28.5 -61.5t-23.5 -64.5t-61.5 -27.5q-401 -14 -590 -13q-37 2 -62.5 29t-24.5 63.5z" />
<glyph unicode="&#x2012;" horiz-adv-x="927" d="M46 538.5q1 36.5 27.5 62.5t63.5 26q184 -4 578 8q37 2 64.5 -22.5t28.5 -61.5t-23.5 -64.5t-61.5 -27.5q-401 -14 -590 -13q-37 2 -62.5 29t-24.5 63.5z" />
<glyph unicode="&#x2013;" horiz-adv-x="1200" d="M-43 578.5q0 25.5 19 44t44 18.5q240 -2 333 -1t332 4t333 5q25 0 44 -18.5t19 -44t-18.5 -45t-44.5 -19.5q-92 0 -332 -4t-334 -4h-332q-27 0 -45 19.5t-18 45z" />
<glyph unicode="&#x2014;" horiz-adv-x="1822" d="M178 572.5q0 25.5 19.5 44t44.5 18.5q336 -2 466 -1t465.5 4t466.5 5q25 0 44.5 -18.5t19.5 -44t-18.5 -45t-45.5 -19.5q-129 0 -465.5 -4t-465.5 -4h-467q-27 0 -45.5 19.5t-18.5 45z" />
<glyph unicode="&#x2018;" horiz-adv-x="481" d="M16 1194q12 43 60 115q51 74 65 102q20 37 61.5 49.5t78 -8t49 -61.5t-8 -78t-75.5 -119l-15 -23q20 -6 48 -12q41 -8 64.5 -43t15 -77t-43 -65.5t-77.5 -15.5q-115 23 -168 66q-82 68 -54 170z" />
<glyph unicode="&#x2019;" horiz-adv-x="542" d="M66.5 1377q5.5 42 39 67.5t74.5 21.5q117 -16 172 -53q88 -59 68 -164q-8 -43 -51 -116q-43 -78 -56 -109q-18 -39 -57 -54.5t-78 2t-54 56.5t1 78q18 41 65 125l13 24q-20 4 -47 7q-43 6 -69 39.5t-20.5 75.5z" />
<glyph unicode="&#x201c;" horiz-adv-x="804" d="M16 1194q12 43 60 115q51 74 65 102q20 37 61.5 49.5t78 -8t49 -61.5t-8 -78t-75.5 -119l-15 -23q20 -6 48 -12q35 -6 57 -33q-4 33 4 68q12 43 59 115q51 74 66 102q20 37 61 49.5t78 -8t49.5 -61.5t-8 -78t-76.5 -119l-14 -23q20 -6 47 -12q41 -8 64.5 -43t15.5 -77 t-43 -65.5t-78 -15.5q-115 23 -168 66q-20 16 -33 37q0 -12 -2 -23q-8 -41 -42.5 -64.5t-77.5 -15.5q-115 23 -168 66q-82 68 -54 170z" />
<glyph unicode="&#x201d;" horiz-adv-x="800" d="M-11 1369q3 42 34.5 69.5t74.5 25.5q117 -8 174 -43q33 -20 52 -49v4q4 43 37.5 70t74.5 22q119 -12 174 -51q86 -57 68 -162q-8 -43 -47 -118q-41 -76 -56 -109q-16 -39 -55 -55.5t-78 0t-55 55.5t0 78q16 41 64 127l12 24q-20 4 -47 7q-39 4 -66 34q0 -18 -2 -36 q-6 -43 -43 -121q-39 -82 -51 -113q-16 -39 -55 -56.5t-78 -2t-56.5 54.5t-2 78t58.5 129q6 12 10 22q-20 4 -49 7q-41 4 -68.5 35.5t-24.5 73.5zM154 1249q6 -10 12 -4zM483 1251q6 -10 13 -4l-2 2q-7 2 -11 2z" />
<glyph unicode="&#x202f;" horiz-adv-x="392" />
<glyph unicode="&#x205f;" horiz-adv-x="490" />
<glyph unicode="&#x20ac;" horiz-adv-x="1472" d="M72 622.5q0 24.5 18.5 41t42.5 16.5q53 -2 109 -2q-2 63 2 125q-53 0 -103 2q-25 0 -41 18.5t-16 43t18.5 41t42.5 16.5q55 -2 115 -2q29 133 94 233q37 53 99 123q84 98 143 131q156 90 338 74q223 -18 319 -191q14 -25 26.5 -58.5t23 -67t10.5 -36.5q14 -41 -4.5 -78.5 t-58.5 -52t-78 4t-52 57.5q-10 29 -17 56.5t-12.5 43t-13.5 29.5q-45 80 -159 90q-119 10 -220 -47q-31 -18 -92 -88q-51 -59 -80 -105q-35 -51 -55 -122h467q25 0 42 -17.5t17 -42t-17 -42t-42 -17.5h-489q-6 -61 -3 -125h480q25 0 42 -17.5t17 -42t-17.5 -42t-41.5 -17.5 h-463q8 -39 20 -74q47 -150 141.5 -222.5t227.5 -51.5q55 10 111.5 36.5t78.5 57.5q20 29 37 60.5t38.5 79.5t41 85t60.5 50.5t77.5 -6t50 -60.5t-7.5 -78q-8 -16 -31.5 -69.5t-49 -101.5t-52.5 -83q-53 -70 -144 -115t-177 -57q-115 -20 -216.5 6.5t-174 89t-124 141.5 t-81.5 175q-23 68 -35 141q-66 0 -125 2q-25 0 -41 18.5t-16 43z" />
<glyph unicode="&#x2122;" horiz-adv-x="1794" d="M208 1374.5q-3 26.5 14.5 47t43.5 22.5q231 25 479 14q27 0 45.5 -19.5t17.5 -46t-20.5 -45t-46.5 -16.5q-88 2 -172 2q-27 -328 -22 -555q0 -27 -18.5 -45t-44 -19t-44 17.5t-20.5 42.5q-4 231 22 555q-82 -4 -163 -12q-27 -4 -47.5 13.5t-23.5 44zM907 1319v18v33 q2 27 13 45q12 25 36 33q27 10 54 -2q29 -12 59 -53l45 -74q31 -59 96 -197q76 -160 88 -182q8 23 39 107q43 121 66 174q39 100 70 145q25 37 51 53q51 29 98 -4q14 -10 20 -24q2 -6 5 -11q0 -4 2 -8v-8q0 -6 2 -16q0 -18 2 -54q0 -25 2 -82t2 -82q10 -256 16 -329 q4 -25 -12 -45.5t-42 -23.5t-46.5 13t-22.5 43q-10 78 -18 338l-2 74l-10 -26q-18 -41 -64 -170q-39 -111 -57 -152v-6q-4 -23 -6 -25q-4 -25 -17 -41q-31 -39 -78 -28q-23 6 -43 24q-10 12 -22 29q-16 25 -41 69q-20 39 -94 193l-54 111q4 -47 5 -78v-131q-4 -100 -7 -129 q0 -8 -2 -13v-8v-37q0 -27 -18 -45t-45 -18t-45.5 18.5t-18.5 44.5v68v4v4q0 4 1 9t4 10l2 4q0 10 1 39.5t1 52.5v127q0 33 -7 104q-8 76 -8 115z" />
<glyph unicode="&#x25fc;" horiz-adv-x="1116" d="M0 0v1116h1116v-1116h-1116z" />
</font>
</defs>
</svg>
